<svg width="368" height="145" viewBox="0 0 368 145" fill="none" xmlns="http://www.w3.org/2000/svg">
<g filter="url(#filter0_d_1237_2200)">
<rect x="37" y="37" width="287" height="64" rx="32" fill="white"/>
<path d="M69.444 56.812C69.444 55.996 69.632 55.264 70.008 54.616C70.392 53.968 70.908 53.464 71.556 53.104C72.212 52.736 72.928 52.552 73.704 52.552C74.592 52.552 75.38 52.772 76.068 53.212C76.764 53.644 77.268 54.26 77.58 55.06H75.936C75.72 54.62 75.42 54.292 75.036 54.076C74.652 53.86 74.208 53.752 73.704 53.752C73.152 53.752 72.66 53.876 72.228 54.124C71.796 54.372 71.456 54.728 71.208 55.192C70.968 55.656 70.848 56.196 70.848 56.812C70.848 57.428 70.968 57.968 71.208 58.432C71.456 58.896 71.796 59.256 72.228 59.512C72.66 59.76 73.152 59.884 73.704 59.884C74.208 59.884 74.652 59.776 75.036 59.56C75.42 59.344 75.72 59.016 75.936 58.576H77.58C77.268 59.376 76.764 59.992 76.068 60.424C75.38 60.856 74.592 61.072 73.704 61.072C72.92 61.072 72.204 60.892 71.556 60.532C70.908 60.164 70.392 59.656 70.008 59.008C69.632 58.36 69.444 57.628 69.444 56.812ZM80.5493 55.348C80.7493 55.012 81.0133 54.752 81.3413 54.568C81.6773 54.376 82.0733 54.28 82.5293 54.28V55.696H82.1813C81.6453 55.696 81.2373 55.832 80.9573 56.104C80.6853 56.376 80.5493 56.848 80.5493 57.52V61H79.1813V54.388H80.5493V55.348ZM89.8467 57.532C89.8467 57.78 89.8307 58.004 89.7987 58.204H84.7467C84.7867 58.732 84.9827 59.156 85.3347 59.476C85.6867 59.796 86.1187 59.956 86.6307 59.956C87.3667 59.956 87.8867 59.648 88.1907 59.032H89.6667C89.4667 59.64 89.1027 60.14 88.5747 60.532C88.0547 60.916 87.4067 61.108 86.6307 61.108C85.9987 61.108 85.4307 60.968 84.9267 60.688C84.4307 60.4 84.0387 60 83.7507 59.488C83.4707 58.968 83.3307 58.368 83.3307 57.688C83.3307 57.008 83.4667 56.412 83.7387 55.9C84.0187 55.38 84.4067 54.98 84.9027 54.7C85.4067 54.42 85.9827 54.28 86.6307 54.28C87.2547 54.28 87.8107 54.416 88.2987 54.688C88.7867 54.96 89.1667 55.344 89.4387 55.84C89.7107 56.328 89.8467 56.892 89.8467 57.532ZM88.4187 57.1C88.4107 56.596 88.2307 56.192 87.8787 55.888C87.5267 55.584 87.0907 55.432 86.5707 55.432C86.0987 55.432 85.6947 55.584 85.3587 55.888C85.0227 56.184 84.8227 56.588 84.7587 57.1H88.4187ZM90.737 57.664C90.737 57 90.873 56.412 91.145 55.9C91.425 55.388 91.801 54.992 92.273 54.712C92.753 54.424 93.285 54.28 93.869 54.28C94.301 54.28 94.725 54.376 95.141 54.568C95.565 54.752 95.901 55 96.149 55.312V52.12H97.529V61H96.149V60.004C95.925 60.324 95.613 60.588 95.213 60.796C94.821 61.004 94.369 61.108 93.857 61.108C93.281 61.108 92.753 60.964 92.273 60.676C91.801 60.38 91.425 59.972 91.145 59.452C90.873 58.924 90.737 58.328 90.737 57.664ZM96.149 57.688C96.149 57.232 96.053 56.836 95.861 56.5C95.677 56.164 95.433 55.908 95.129 55.732C94.825 55.556 94.497 55.468 94.145 55.468C93.793 55.468 93.465 55.556 93.161 55.732C92.857 55.9 92.609 56.152 92.417 56.488C92.233 56.816 92.141 57.208 92.141 57.664C92.141 58.12 92.233 58.52 92.417 58.864C92.609 59.208 92.857 59.472 93.161 59.656C93.473 59.832 93.801 59.92 94.145 59.92C94.497 59.92 94.825 59.832 95.129 59.656C95.433 59.48 95.677 59.224 95.861 58.888C96.053 58.544 96.149 58.144 96.149 57.688ZM100.022 53.512C99.7738 53.512 99.5658 53.428 99.3978 53.26C99.2298 53.092 99.1458 52.884 99.1458 52.636C99.1458 52.388 99.2298 52.18 99.3978 52.012C99.5658 51.844 99.7738 51.76 100.022 51.76C100.262 51.76 100.466 51.844 100.634 52.012C100.802 52.18 100.886 52.388 100.886 52.636C100.886 52.884 100.802 53.092 100.634 53.26C100.466 53.428 100.262 53.512 100.022 53.512ZM100.694 54.388V61H99.3258V54.388H100.694ZM104.086 55.504V59.164C104.086 59.412 104.142 59.592 104.254 59.704C104.374 59.808 104.574 59.86 104.854 59.86H105.694V61H104.614C103.998 61 103.526 60.856 103.198 60.568C102.87 60.28 102.706 59.812 102.706 59.164V55.504H101.926V54.388H102.706V52.744H104.086V54.388H105.694V55.504H104.086ZM109.616 56.812C109.616 55.996 109.804 55.264 110.18 54.616C110.564 53.968 111.08 53.464 111.728 53.104C112.384 52.736 113.1 52.552 113.876 52.552C114.764 52.552 115.552 52.772 116.24 53.212C116.936 53.644 117.44 54.26 117.752 55.06H116.108C115.892 54.62 115.592 54.292 115.208 54.076C114.824 53.86 114.38 53.752 113.876 53.752C113.324 53.752 112.832 53.876 112.4 54.124C111.968 54.372 111.628 54.728 111.38 55.192C111.14 55.656 111.02 56.196 111.02 56.812C111.02 57.428 111.14 57.968 111.38 58.432C111.628 58.896 111.968 59.256 112.4 59.512C112.832 59.76 113.324 59.884 113.876 59.884C114.38 59.884 114.824 59.776 115.208 59.56C115.592 59.344 115.892 59.016 116.108 58.576H117.752C117.44 59.376 116.936 59.992 116.24 60.424C115.552 60.856 114.764 61.072 113.876 61.072C113.092 61.072 112.376 60.892 111.728 60.532C111.08 60.164 110.564 59.656 110.18 59.008C109.804 58.36 109.616 57.628 109.616 56.812ZM118.897 57.664C118.897 57 119.033 56.412 119.305 55.9C119.585 55.388 119.961 54.992 120.433 54.712C120.913 54.424 121.441 54.28 122.017 54.28C122.537 54.28 122.989 54.384 123.373 54.592C123.765 54.792 124.077 55.044 124.309 55.348V54.388H125.689V61H124.309V60.016C124.077 60.328 123.761 60.588 123.361 60.796C122.961 61.004 122.505 61.108 121.993 61.108C121.425 61.108 120.905 60.964 120.433 60.676C119.961 60.38 119.585 59.972 119.305 59.452C119.033 58.924 118.897 58.328 118.897 57.664ZM124.309 57.688C124.309 57.232 124.213 56.836 124.021 56.5C123.837 56.164 123.593 55.908 123.289 55.732C122.985 55.556 122.657 55.468 122.305 55.468C121.953 55.468 121.625 55.556 121.321 55.732C121.017 55.9 120.769 56.152 120.577 56.488C120.393 56.816 120.301 57.208 120.301 57.664C120.301 58.12 120.393 58.52 120.577 58.864C120.769 59.208 121.017 59.472 121.321 59.656C121.633 59.832 121.961 59.92 122.305 59.92C122.657 59.92 122.985 59.832 123.289 59.656C123.593 59.48 123.837 59.224 124.021 58.888C124.213 58.544 124.309 58.144 124.309 57.688ZM128.854 55.348C129.054 55.012 129.318 54.752 129.646 54.568C129.982 54.376 130.378 54.28 130.834 54.28V55.696H130.486C129.95 55.696 129.542 55.832 129.262 56.104C128.99 56.376 128.854 56.848 128.854 57.52V61H127.486V54.388H128.854V55.348ZM131.635 57.664C131.635 57 131.771 56.412 132.043 55.9C132.323 55.388 132.699 54.992 133.171 54.712C133.651 54.424 134.183 54.28 134.767 54.28C135.199 54.28 135.623 54.376 136.039 54.568C136.463 54.752 136.799 55 137.047 55.312V52.12H138.427V61H137.047V60.004C136.823 60.324 136.511 60.588 136.111 60.796C135.719 61.004 135.267 61.108 134.755 61.108C134.179 61.108 133.651 60.964 133.171 60.676C132.699 60.38 132.323 59.972 132.043 59.452C131.771 58.924 131.635 58.328 131.635 57.664ZM137.047 57.688C137.047 57.232 136.951 56.836 136.759 56.5C136.575 56.164 136.331 55.908 136.027 55.732C135.723 55.556 135.395 55.468 135.043 55.468C134.691 55.468 134.363 55.556 134.059 55.732C133.755 55.9 133.507 56.152 133.315 56.488C133.131 56.816 133.039 57.208 133.039 57.664C133.039 58.12 133.131 58.52 133.315 58.864C133.507 59.208 133.755 59.472 134.059 59.656C134.371 59.832 134.699 59.92 135.043 59.92C135.395 59.92 135.723 59.832 136.027 59.656C136.331 59.48 136.575 59.224 136.759 58.888C136.951 58.544 137.047 58.144 137.047 57.688Z" fill="#7B8A98"/>
<path d="M72.78 73.94V78.02H77.58V79.88H72.78V84.14H78.18V86H70.5V72.08H78.18V73.94H72.78ZM95.6283 72.1V86H93.3483V76.48L89.1083 86H87.5283L83.2683 76.48V86H80.9883V72.1H83.4483L88.3283 83L93.1883 72.1H95.6283ZM100.905 72.1V86H98.625V72.1H100.905Z" fill="#000719"/>
<rect x="156" y="45" width="48" height="48" rx="24" fill="#E6EDFF"/>
<path d="M191.529 57.2655H168.438V80.0705H191.529V57.2655Z" fill="#E8282B"/>
<path d="M187.489 61.2822H172.477V76.0872H187.489V61.2822Z" fill="white"/>
<path d="M181.128 57H178.805V81H181.128V57Z" fill="white"/>
<path d="M192 67.5228H168V69.8133H192V67.5228Z" fill="white"/>
<path d="M183.45 65.2656H176.516V72.1038H183.45V65.2656Z" fill="#174A83"/>
<rect x="212" y="45" width="48" height="48" rx="24" fill="#E6EDFF"/>
<g clip-path="url(#clip0_1237_2200)">
<path fill-rule="evenodd" clip-rule="evenodd" d="M231.592 62.4234C237.058 56.9574 243.68 55.566 246.388 59.2556C249.034 62.9948 246.674 70.4858 241.207 75.9021C235.741 81.3681 229.058 82.8092 226.412 79.0699C223.753 75.3307 226.064 67.8397 231.592 62.4234Z" fill="#EF8022"/>
<path fill-rule="evenodd" clip-rule="evenodd" d="M235.22 59.4915C234.586 59.9511 234.015 60.4729 233.381 61.0443C228.586 65.8271 226.573 72.3367 228.934 75.5542C231.406 78.8338 237.282 77.6909 242.238 72.846C244.835 70.2496 246.611 67.2557 247.369 64.4979C247.605 62.4854 247.307 60.6344 246.388 59.2555C244.251 56.3858 239.704 56.6094 235.22 59.4915Z" fill="#AC2930"/>
<path fill-rule="evenodd" clip-rule="evenodd" d="M241.839 59.3182C242.473 60.0139 242.075 61.3928 240.97 62.486C239.877 63.5792 238.436 63.9271 237.802 63.3556C237.168 62.66 237.516 61.281 238.609 60.1257C239.765 59.0325 241.206 58.7468 241.839 59.3182ZM237.914 78.6108C235.38 80.5736 232.671 81.5426 230.087 81.083C231.181 81.1451 232.05 79.9276 232.796 78.3251C233.541 76.6604 233.951 75.1573 234.348 73.7162C234.808 71.418 234.87 69.8031 234.584 69.3931C234.187 68.8714 233.206 68.9956 232.05 69.6291C231.479 69.977 230.783 69.741 231.653 68.7099C232.522 67.6788 235.914 65.1445 237.181 64.7967C238.51 64.3992 240.063 64.9085 239.541 66.4116C239.131 67.4924 234.411 79.9401 237.914 78.6108Z" fill="white"/>
</g>
<rect x="268" y="45" width="48" height="48" rx="24" fill="#E6EDFF"/>
<path d="M280 57H304V81H280V57ZM292 70.4155L294.509 74.8552H298.788L296.247 70.4155H292L294.123 66.748L292 63.1448L285.212 74.8552H289.458L292 70.4155Z" fill="#97144D"/>
</g>
<defs>
<filter id="filter0_d_1237_2200" x="0.379292" y="0.379292" width="366.9" height="143.9" filterUnits="userSpaceOnUse" color-interpolation-filters="sRGB">
<feFlood flood-opacity="0" result="BackgroundImageFix"/>
<feColorMatrix in="SourceAlpha" type="matrix" values="0 0 0 0 0 0 0 0 0 0 0 0 0 0 0 0 0 0 127 0" result="hardAlpha"/>
<feOffset dx="3.32916" dy="3.32916"/>
<feGaussianBlur stdDeviation="19.9749"/>
<feComposite in2="hardAlpha" operator="out"/>
<feColorMatrix type="matrix" values="0 0 0 0 0 0 0 0 0 0 0 0 0 0 0 0 0 0 0.1 0"/>
<feBlend mode="normal" in2="BackgroundImageFix" result="effect1_dropShadow_1237_2200"/>
<feBlend mode="normal" in="SourceGraphic" in2="effect1_dropShadow_1237_2200" result="shape"/>
</filter>
<clipPath id="clip0_1237_2200">
<rect width="24" height="24" fill="white" transform="translate(224 57)"/>
</clipPath>
</defs>
</svg>
