<svg width="375" height="160" viewBox="0 0 375 160" fill="none" xmlns="http://www.w3.org/2000/svg">
<g filter="url(#filter0_d_881_82)">
<rect x="44" y="44" width="279" height="64" rx="32" fill="white"/>
<rect x="48" y="48" width="56" height="56" rx="28" fill="#E6EDFF"/>
<path d="M72 87L78.2251 65L84 75.967L72 87Z" fill="#028C3C"/>
<path d="M68 87L74.2251 65L80 75.967L68 87Z" fill="#FE7A09"/>
<path d="M127.744 58.88V60.368H123.024V63.648H126.704V65.136H123.024V70H121.2V58.88H127.744ZM131.258 62.464C131.525 62.016 131.877 61.6693 132.314 61.424C132.762 61.168 133.29 61.04 133.898 61.04V62.928H133.434C132.72 62.928 132.176 63.1093 131.802 63.472C131.44 63.8347 131.258 64.464 131.258 65.36V70H129.434V61.184H131.258V62.464ZM143.655 65.376C143.655 65.7067 143.634 66.0053 143.591 66.272H136.855C136.908 66.976 137.17 67.5413 137.639 67.968C138.108 68.3947 138.684 68.608 139.367 68.608C140.348 68.608 141.042 68.1973 141.447 67.376H143.415C143.148 68.1867 142.663 68.8533 141.959 69.376C141.266 69.888 140.402 70.144 139.367 70.144C138.524 70.144 137.767 69.9573 137.095 69.584C136.434 69.2 135.911 68.6667 135.527 67.984C135.154 67.2907 134.967 66.4907 134.967 65.584C134.967 64.6773 135.148 63.8827 135.511 63.2C135.884 62.5067 136.402 61.9733 137.063 61.6C137.735 61.2267 138.503 61.04 139.367 61.04C140.199 61.04 140.94 61.2213 141.591 61.584C142.242 61.9467 142.748 62.4587 143.111 63.12C143.474 63.7707 143.655 64.5227 143.655 65.376ZM141.751 64.8C141.74 64.128 141.5 63.5893 141.031 63.184C140.562 62.7787 139.98 62.576 139.287 62.576C138.658 62.576 138.119 62.7787 137.671 63.184C137.223 63.5787 136.956 64.1173 136.871 64.8H141.751ZM153.53 65.376C153.53 65.7067 153.509 66.0053 153.466 66.272H146.73C146.783 66.976 147.045 67.5413 147.514 67.968C147.983 68.3947 148.559 68.608 149.242 68.608C150.223 68.608 150.917 68.1973 151.322 67.376H153.29C153.023 68.1867 152.538 68.8533 151.834 69.376C151.141 69.888 150.277 70.144 149.242 70.144C148.399 70.144 147.642 69.9573 146.97 69.584C146.309 69.2 145.786 68.6667 145.402 67.984C145.029 67.2907 144.842 66.4907 144.842 65.584C144.842 64.6773 145.023 63.8827 145.386 63.2C145.759 62.5067 146.277 61.9733 146.938 61.6C147.61 61.2267 148.378 61.04 149.242 61.04C150.074 61.04 150.815 61.2213 151.466 61.584C152.117 61.9467 152.623 62.4587 152.986 63.12C153.349 63.7707 153.53 64.5227 153.53 65.376ZM151.626 64.8C151.615 64.128 151.375 63.5893 150.906 63.184C150.437 62.7787 149.855 62.576 149.162 62.576C148.533 62.576 147.994 62.7787 147.546 63.184C147.098 63.5787 146.831 64.1173 146.746 64.8H151.626ZM161.305 62.48C161.615 62.0747 162.036 61.7333 162.569 61.456C163.103 61.1787 163.705 61.04 164.377 61.04C165.145 61.04 165.844 61.232 166.473 61.616C167.113 61.9893 167.615 62.5173 167.977 63.2C168.34 63.8827 168.521 64.6667 168.521 65.552C168.521 66.4373 168.34 67.232 167.977 67.936C167.615 68.6293 167.113 69.1733 166.473 69.568C165.844 69.952 165.145 70.144 164.377 70.144C163.705 70.144 163.108 70.0107 162.585 69.744C162.063 69.4667 161.636 69.1253 161.305 68.72V74.192H159.481V61.184H161.305V62.48ZM166.665 65.552C166.665 64.944 166.537 64.4213 166.281 63.984C166.036 63.536 165.705 63.2 165.289 62.976C164.884 62.7413 164.447 62.624 163.977 62.624C163.519 62.624 163.081 62.7413 162.665 62.976C162.26 63.2107 161.929 63.552 161.673 64C161.428 64.448 161.305 64.976 161.305 65.584C161.305 66.192 161.428 66.7253 161.673 67.184C161.929 67.632 162.26 67.9733 162.665 68.208C163.081 68.4427 163.519 68.56 163.977 68.56C164.447 68.56 164.884 68.4427 165.289 68.208C165.705 67.9627 166.036 67.6107 166.281 67.152C166.537 66.6933 166.665 66.16 166.665 65.552ZM169.717 65.552C169.717 64.6667 169.898 63.8827 170.261 63.2C170.634 62.5173 171.136 61.9893 171.765 61.616C172.405 61.232 173.109 61.04 173.877 61.04C174.57 61.04 175.173 61.1787 175.685 61.456C176.208 61.7227 176.624 62.0587 176.933 62.464V61.184H178.773V70H176.933V68.688C176.624 69.104 176.202 69.4507 175.669 69.728C175.136 70.0053 174.528 70.144 173.845 70.144C173.088 70.144 172.394 69.952 171.765 69.568C171.136 69.1733 170.634 68.6293 170.261 67.936C169.898 67.232 169.717 66.4373 169.717 65.552ZM176.933 65.584C176.933 64.976 176.805 64.448 176.549 64C176.304 63.552 175.978 63.2107 175.573 62.976C175.168 62.7413 174.73 62.624 174.261 62.624C173.792 62.624 173.354 62.7413 172.949 62.976C172.544 63.2 172.213 63.536 171.957 63.984C171.712 64.4213 171.589 64.944 171.589 65.552C171.589 66.16 171.712 66.6933 171.957 67.152C172.213 67.6107 172.544 67.9627 172.949 68.208C173.365 68.4427 173.802 68.56 174.261 68.56C174.73 68.56 175.168 68.4427 175.573 68.208C175.978 67.9733 176.304 67.632 176.549 67.184C176.805 66.7253 176.933 66.192 176.933 65.584ZM189.105 61.184L183.697 74.144H181.809L183.601 69.856L180.129 61.184H182.161L184.641 67.904L187.217 61.184H189.105ZM201.153 61.04C201.847 61.04 202.465 61.184 203.009 61.472C203.564 61.76 203.996 62.1867 204.305 62.752C204.625 63.3173 204.785 64 204.785 64.8V70H202.977V65.072C202.977 64.2827 202.78 63.68 202.385 63.264C201.991 62.8373 201.452 62.624 200.769 62.624C200.087 62.624 199.543 62.8373 199.137 63.264C198.743 63.68 198.545 64.2827 198.545 65.072V70H196.737V65.072C196.737 64.2827 196.54 63.68 196.145 63.264C195.751 62.8373 195.212 62.624 194.529 62.624C193.847 62.624 193.303 62.8373 192.897 63.264C192.503 63.68 192.305 64.2827 192.305 65.072V70H190.481V61.184H192.305V62.192C192.604 61.8293 192.983 61.5467 193.441 61.344C193.9 61.1413 194.391 61.04 194.913 61.04C195.617 61.04 196.247 61.1893 196.801 61.488C197.356 61.7867 197.783 62.2187 198.081 62.784C198.348 62.2507 198.764 61.8293 199.329 61.52C199.895 61.2 200.503 61.04 201.153 61.04ZM215.186 65.376C215.186 65.7067 215.165 66.0053 215.122 66.272H208.386C208.44 66.976 208.701 67.5413 209.17 67.968C209.64 68.3947 210.216 68.608 210.898 68.608C211.88 68.608 212.573 68.1973 212.978 67.376H214.946C214.68 68.1867 214.194 68.8533 213.49 69.376C212.797 69.888 211.933 70.144 210.898 70.144C210.056 70.144 209.298 69.9573 208.626 69.584C207.965 69.2 207.442 68.6667 207.058 67.984C206.685 67.2907 206.498 66.4907 206.498 65.584C206.498 64.6773 206.68 63.8827 207.042 63.2C207.416 62.5067 207.933 61.9733 208.594 61.6C209.266 61.2267 210.034 61.04 210.898 61.04C211.73 61.04 212.472 61.2213 213.122 61.584C213.773 61.9467 214.28 62.4587 214.642 63.12C215.005 63.7707 215.186 64.5227 215.186 65.376ZM213.282 64.8C213.272 64.128 213.032 63.5893 212.562 63.184C212.093 62.7787 211.512 62.576 210.818 62.576C210.189 62.576 209.65 62.7787 209.202 63.184C208.754 63.5787 208.488 64.1173 208.402 64.8H213.282ZM221.429 61.04C222.123 61.04 222.741 61.184 223.285 61.472C223.84 61.76 224.272 62.1867 224.581 62.752C224.891 63.3173 225.045 64 225.045 64.8V70H223.237V65.072C223.237 64.2827 223.04 63.68 222.645 63.264C222.251 62.8373 221.712 62.624 221.029 62.624C220.347 62.624 219.803 62.8373 219.397 63.264C219.003 63.68 218.805 64.2827 218.805 65.072V70H216.981V61.184H218.805V62.192C219.104 61.8293 219.483 61.5467 219.941 61.344C220.411 61.1413 220.907 61.04 221.429 61.04ZM229.5 62.672V67.552C229.5 67.8827 229.575 68.1227 229.724 68.272C229.884 68.4107 230.151 68.48 230.524 68.48H231.644V70H230.204C229.383 70 228.753 69.808 228.316 69.424C227.879 69.04 227.66 68.416 227.66 67.552V62.672H226.62V61.184H227.66V58.992H229.5V61.184H231.644V62.672H229.5ZM236.873 65.552C236.873 64.6667 237.055 63.8827 237.417 63.2C237.791 62.5173 238.292 61.9893 238.921 61.616C239.561 61.232 240.265 61.04 241.033 61.04C241.727 61.04 242.329 61.1787 242.841 61.456C243.364 61.7227 243.78 62.0587 244.089 62.464V61.184H245.929V70H244.089V68.688C243.78 69.104 243.359 69.4507 242.825 69.728C242.292 70.0053 241.684 70.144 241.001 70.144C240.244 70.144 239.551 69.952 238.921 69.568C238.292 69.1733 237.791 68.6293 237.417 67.936C237.055 67.232 236.873 66.4373 236.873 65.552ZM244.089 65.584C244.089 64.976 243.961 64.448 243.705 64C243.46 63.552 243.135 63.2107 242.729 62.976C242.324 62.7413 241.887 62.624 241.417 62.624C240.948 62.624 240.511 62.7413 240.105 62.976C239.7 63.2 239.369 63.536 239.113 63.984C238.868 64.4213 238.745 64.944 238.745 65.552C238.745 66.16 238.868 66.6933 239.113 67.152C239.369 67.6107 239.7 67.9627 240.105 68.208C240.521 68.4427 240.959 68.56 241.417 68.56C241.887 68.56 242.324 68.4427 242.729 68.208C243.135 67.9733 243.46 67.632 243.705 67.184C243.961 66.7253 244.089 66.192 244.089 65.584ZM252.773 61.04C253.466 61.04 254.085 61.184 254.629 61.472C255.184 61.76 255.616 62.1867 255.925 62.752C256.234 63.3173 256.389 64 256.389 64.8V70H254.581V65.072C254.581 64.2827 254.384 63.68 253.989 63.264C253.594 62.8373 253.056 62.624 252.373 62.624C251.69 62.624 251.146 62.8373 250.741 63.264C250.346 63.68 250.149 64.2827 250.149 65.072V70H248.325V61.184H250.149V62.192C250.448 61.8293 250.826 61.5467 251.285 61.344C251.754 61.1413 252.25 61.04 252.773 61.04ZM258.108 65.552C258.108 64.6667 258.289 63.8827 258.652 63.2C259.025 62.5173 259.526 61.9893 260.156 61.616C260.796 61.232 261.505 61.04 262.284 61.04C262.86 61.04 263.425 61.168 263.98 61.424C264.545 61.6693 264.993 62 265.324 62.416V58.16H267.164V70H265.324V68.672C265.025 69.0987 264.609 69.4507 264.076 69.728C263.553 70.0053 262.95 70.144 262.268 70.144C261.5 70.144 260.796 69.952 260.156 69.568C259.526 69.1733 259.025 68.6293 258.652 67.936C258.289 67.232 258.108 66.4373 258.108 65.552ZM265.324 65.584C265.324 64.976 265.196 64.448 264.94 64C264.694 63.552 264.369 63.2107 263.964 62.976C263.558 62.7413 263.121 62.624 262.652 62.624C262.182 62.624 261.745 62.7413 261.34 62.976C260.934 63.2 260.604 63.536 260.348 63.984C260.102 64.4213 259.98 64.944 259.98 65.552C259.98 66.16 260.102 66.6933 260.348 67.152C260.604 67.6107 260.934 67.9627 261.34 68.208C261.756 68.4427 262.193 68.56 262.652 68.56C263.121 68.56 263.558 68.4427 263.964 68.208C264.369 67.9733 264.694 67.632 264.94 67.184C265.196 66.7253 265.324 66.192 265.324 65.584ZM120.592 88.416C120.592 87.328 120.843 86.352 121.344 85.488C121.856 84.624 122.544 83.952 123.408 83.472C124.283 82.9813 125.237 82.736 126.272 82.736C127.456 82.736 128.507 83.0293 129.424 83.616C130.352 84.192 131.024 85.0133 131.44 86.08H129.248C128.96 85.4933 128.56 85.056 128.048 84.768C127.536 84.48 126.944 84.336 126.272 84.336C125.536 84.336 124.88 84.5013 124.304 84.832C123.728 85.1627 123.275 85.6373 122.944 86.256C122.624 86.8747 122.464 87.5947 122.464 88.416C122.464 89.2373 122.624 89.9573 122.944 90.576C123.275 91.1947 123.728 91.6747 124.304 92.016C124.88 92.3467 125.536 92.512 126.272 92.512C126.944 92.512 127.536 92.368 128.048 92.08C128.56 91.792 128.96 91.3547 129.248 90.768H131.44C131.024 91.8347 130.352 92.656 129.424 93.232C128.507 93.808 127.456 94.096 126.272 94.096C125.227 94.096 124.272 93.856 123.408 93.376C122.544 92.8853 121.856 92.208 121.344 91.344C120.843 90.48 120.592 89.504 120.592 88.416ZM132.967 89.552C132.967 88.6667 133.148 87.8827 133.511 87.2C133.884 86.5173 134.386 85.9893 135.015 85.616C135.655 85.232 136.359 85.04 137.127 85.04C137.82 85.04 138.423 85.1787 138.935 85.456C139.458 85.7227 139.874 86.0587 140.183 86.464V85.184H142.023V94H140.183V92.688C139.874 93.104 139.452 93.4507 138.919 93.728C138.386 94.0053 137.778 94.144 137.095 94.144C136.338 94.144 135.644 93.952 135.015 93.568C134.386 93.1733 133.884 92.6293 133.511 91.936C133.148 91.232 132.967 90.4373 132.967 89.552ZM140.183 89.584C140.183 88.976 140.055 88.448 139.799 88C139.554 87.552 139.228 87.2107 138.823 86.976C138.418 86.7413 137.98 86.624 137.511 86.624C137.042 86.624 136.604 86.7413 136.199 86.976C135.794 87.2 135.463 87.536 135.207 87.984C134.962 88.4213 134.839 88.944 134.839 89.552C134.839 90.16 134.962 90.6933 135.207 91.152C135.463 91.6107 135.794 91.9627 136.199 92.208C136.615 92.4427 137.052 92.56 137.511 92.56C137.98 92.56 138.418 92.4427 138.823 92.208C139.228 91.9733 139.554 91.632 139.799 91.184C140.055 90.7253 140.183 90.192 140.183 89.584ZM147.619 94.144C146.925 94.144 146.301 94.0213 145.747 93.776C145.203 93.52 144.771 93.1787 144.451 92.752C144.131 92.3147 143.96 91.8293 143.939 91.296H145.827C145.859 91.6693 146.035 91.984 146.355 92.24C146.685 92.4853 147.096 92.608 147.587 92.608C148.099 92.608 148.493 92.512 148.771 92.32C149.059 92.1173 149.203 91.8613 149.203 91.552C149.203 91.2213 149.043 90.976 148.723 90.816C148.413 90.656 147.917 90.48 147.235 90.288C146.573 90.1067 146.035 89.9307 145.619 89.76C145.203 89.5893 144.84 89.328 144.531 88.976C144.232 88.624 144.083 88.16 144.083 87.584C144.083 87.1147 144.221 86.688 144.499 86.304C144.776 85.9093 145.171 85.6 145.683 85.376C146.205 85.152 146.803 85.04 147.475 85.04C148.477 85.04 149.283 85.296 149.891 85.808C150.509 86.3093 150.84 86.9973 150.883 87.872H149.059C149.027 87.4773 148.867 87.1627 148.579 86.928C148.291 86.6933 147.901 86.576 147.411 86.576C146.931 86.576 146.563 86.6667 146.307 86.848C146.051 87.0293 145.923 87.2693 145.923 87.568C145.923 87.8027 146.008 88 146.179 88.16C146.349 88.32 146.557 88.448 146.803 88.544C147.048 88.6293 147.411 88.7413 147.891 88.88C148.531 89.0507 149.053 89.2267 149.459 89.408C149.875 89.5787 150.232 89.8347 150.531 90.176C150.829 90.5173 150.984 90.9707 150.995 91.536C150.995 92.0373 150.856 92.4853 150.579 92.88C150.301 93.2747 149.907 93.584 149.395 93.808C148.893 94.032 148.301 94.144 147.619 94.144ZM157.526 85.04C158.198 85.04 158.795 85.184 159.318 85.472C159.851 85.76 160.267 86.1867 160.566 86.752C160.875 87.3173 161.03 88 161.03 88.8V94H159.222V89.072C159.222 88.2827 159.024 87.68 158.63 87.264C158.235 86.8373 157.696 86.624 157.014 86.624C156.331 86.624 155.787 86.8373 155.382 87.264C154.987 87.68 154.79 88.2827 154.79 89.072V94H152.966V82.16H154.79V86.208C155.099 85.8347 155.488 85.5467 155.958 85.344C156.438 85.1413 156.96 85.04 157.526 85.04ZM165.18 86.496C165.49 86.0693 165.911 85.7227 166.444 85.456C166.988 85.1787 167.591 85.04 168.252 85.04C169.031 85.04 169.735 85.2267 170.364 85.6C170.994 85.9733 171.49 86.5067 171.852 87.2C172.215 87.8827 172.396 88.6667 172.396 89.552C172.396 90.4373 172.215 91.232 171.852 91.936C171.49 92.6293 170.988 93.1733 170.348 93.568C169.719 93.952 169.02 94.144 168.252 94.144C167.57 94.144 166.962 94.0107 166.428 93.744C165.906 93.4773 165.49 93.136 165.18 92.72V94H163.356V82.16H165.18V86.496ZM170.54 89.552C170.54 88.944 170.412 88.4213 170.156 87.984C169.911 87.536 169.58 87.2 169.164 86.976C168.759 86.7413 168.322 86.624 167.852 86.624C167.394 86.624 166.956 86.7413 166.54 86.976C166.135 87.2107 165.804 87.552 165.548 88C165.303 88.448 165.18 88.976 165.18 89.584C165.18 90.192 165.303 90.7253 165.548 91.184C165.804 91.632 166.135 91.9733 166.54 92.208C166.956 92.4427 167.394 92.56 167.852 92.56C168.322 92.56 168.759 92.4427 169.164 92.208C169.58 91.9627 169.911 91.6107 170.156 91.152C170.412 90.6933 170.54 90.16 170.54 89.552ZM173.592 89.552C173.592 88.6667 173.773 87.8827 174.136 87.2C174.509 86.5173 175.011 85.9893 175.64 85.616C176.28 85.232 176.984 85.04 177.752 85.04C178.445 85.04 179.048 85.1787 179.56 85.456C180.083 85.7227 180.499 86.0587 180.808 86.464V85.184H182.648V94H180.808V92.688C180.499 93.104 180.077 93.4507 179.544 93.728C179.011 94.0053 178.403 94.144 177.72 94.144C176.963 94.144 176.269 93.952 175.64 93.568C175.011 93.1733 174.509 92.6293 174.136 91.936C173.773 91.232 173.592 90.4373 173.592 89.552ZM180.808 89.584C180.808 88.976 180.68 88.448 180.424 88C180.179 87.552 179.853 87.2107 179.448 86.976C179.043 86.7413 178.605 86.624 178.136 86.624C177.667 86.624 177.229 86.7413 176.824 86.976C176.419 87.2 176.088 87.536 175.832 87.984C175.587 88.4213 175.464 88.944 175.464 89.552C175.464 90.16 175.587 90.6933 175.832 91.152C176.088 91.6107 176.419 91.9627 176.824 92.208C177.24 92.4427 177.677 92.56 178.136 92.56C178.605 92.56 179.043 92.4427 179.448 92.208C179.853 91.9733 180.179 91.632 180.424 91.184C180.68 90.7253 180.808 90.192 180.808 89.584ZM184.436 89.584C184.436 88.6773 184.617 87.8827 184.98 87.2C185.353 86.5067 185.865 85.9733 186.516 85.6C187.166 85.2267 187.913 85.04 188.756 85.04C189.822 85.04 190.702 85.296 191.396 85.808C192.1 86.3093 192.574 87.0293 192.82 87.968H190.852C190.692 87.5307 190.436 87.1893 190.084 86.944C189.732 86.6987 189.289 86.576 188.756 86.576C188.009 86.576 187.412 86.8427 186.964 87.376C186.526 87.8987 186.308 88.6347 186.308 89.584C186.308 90.5333 186.526 91.2747 186.964 91.808C187.412 92.3413 188.009 92.608 188.756 92.608C189.812 92.608 190.51 92.144 190.852 91.216H192.82C192.564 92.112 192.084 92.8267 191.38 93.36C190.676 93.8827 189.801 94.144 188.756 94.144C187.913 94.144 187.166 93.9573 186.516 93.584C185.865 93.2 185.353 92.6667 184.98 91.984C184.617 91.2907 184.436 90.4907 184.436 89.584ZM198.126 89.6L202.19 94H199.726L196.462 90.208V94H194.638V82.16H196.462V89.04L199.662 85.184H202.19L198.126 89.6ZM206.697 94.144C206.004 94.144 205.38 94.0213 204.825 93.776C204.281 93.52 203.849 93.1787 203.529 92.752C203.209 92.3147 203.038 91.8293 203.017 91.296H204.905C204.937 91.6693 205.113 91.984 205.433 92.24C205.764 92.4853 206.174 92.608 206.665 92.608C207.177 92.608 207.572 92.512 207.849 92.32C208.137 92.1173 208.281 91.8613 208.281 91.552C208.281 91.2213 208.121 90.976 207.801 90.816C207.492 90.656 206.996 90.48 206.313 90.288C205.652 90.1067 205.113 89.9307 204.697 89.76C204.281 89.5893 203.918 89.328 203.609 88.976C203.31 88.624 203.161 88.16 203.161 87.584C203.161 87.1147 203.3 86.688 203.577 86.304C203.854 85.9093 204.249 85.6 204.761 85.376C205.284 85.152 205.881 85.04 206.553 85.04C207.556 85.04 208.361 85.296 208.969 85.808C209.588 86.3093 209.918 86.9973 209.961 87.872H208.137C208.105 87.4773 207.945 87.1627 207.657 86.928C207.369 86.6933 206.98 86.576 206.489 86.576C206.009 86.576 205.641 86.6667 205.385 86.848C205.129 87.0293 205.001 87.2693 205.001 87.568C205.001 87.8027 205.086 88 205.257 88.16C205.428 88.32 205.636 88.448 205.881 88.544C206.126 88.6293 206.489 88.7413 206.969 88.88C207.609 89.0507 208.132 89.2267 208.537 89.408C208.953 89.5787 209.31 89.8347 209.609 90.176C209.908 90.5173 210.062 90.9707 210.073 91.536C210.073 92.0373 209.934 92.4853 209.657 92.88C209.38 93.2747 208.985 93.584 208.473 93.808C207.972 94.032 207.38 94.144 206.697 94.144ZM224.184 85.184V94H222.36V92.96C222.072 93.3227 221.693 93.6107 221.224 93.824C220.765 94.0267 220.275 94.128 219.752 94.128C219.059 94.128 218.435 93.984 217.88 93.696C217.336 93.408 216.904 92.9813 216.584 92.416C216.275 91.8507 216.12 91.168 216.12 90.368V85.184H217.928V90.096C217.928 90.8853 218.125 91.4933 218.52 91.92C218.915 92.336 219.453 92.544 220.136 92.544C220.819 92.544 221.357 92.336 221.752 91.92C222.157 91.4933 222.36 90.8853 222.36 90.096V85.184H224.184ZM229.791 94.144C229.097 94.144 228.473 94.0213 227.919 93.776C227.375 93.52 226.943 93.1787 226.623 92.752C226.303 92.3147 226.132 91.8293 226.111 91.296H227.999C228.031 91.6693 228.207 91.984 228.527 92.24C228.857 92.4853 229.268 92.608 229.759 92.608C230.271 92.608 230.665 92.512 230.943 92.32C231.231 92.1173 231.375 91.8613 231.375 91.552C231.375 91.2213 231.215 90.976 230.895 90.816C230.585 90.656 230.089 90.48 229.407 90.288C228.745 90.1067 228.207 89.9307 227.791 89.76C227.375 89.5893 227.012 89.328 226.703 88.976C226.404 88.624 226.255 88.16 226.255 87.584C226.255 87.1147 226.393 86.688 226.671 86.304C226.948 85.9093 227.343 85.6 227.855 85.376C228.377 85.152 228.975 85.04 229.647 85.04C230.649 85.04 231.455 85.296 232.063 85.808C232.681 86.3093 233.012 86.9973 233.055 87.872H231.231C231.199 87.4773 231.039 87.1627 230.751 86.928C230.463 86.6933 230.073 86.576 229.583 86.576C229.103 86.576 228.735 86.6667 228.479 86.848C228.223 87.0293 228.095 87.2693 228.095 87.568C228.095 87.8027 228.18 88 228.351 88.16C228.521 88.32 228.729 88.448 228.975 88.544C229.22 88.6293 229.583 88.7413 230.063 88.88C230.703 89.0507 231.225 89.2267 231.631 89.408C232.047 89.5787 232.404 89.8347 232.703 90.176C233.001 90.5173 233.156 90.9707 233.167 91.536C233.167 92.0373 233.028 92.4853 232.751 92.88C232.473 93.2747 232.079 93.584 231.567 93.808C231.065 94.032 230.473 94.144 229.791 94.144ZM236.066 84.016C235.735 84.016 235.458 83.904 235.234 83.68C235.01 83.456 234.898 83.1787 234.898 82.848C234.898 82.5173 235.01 82.24 235.234 82.016C235.458 81.792 235.735 81.68 236.066 81.68C236.386 81.68 236.658 81.792 236.882 82.016C237.106 82.24 237.218 82.5173 237.218 82.848C237.218 83.1787 237.106 83.456 236.882 83.68C236.658 83.904 236.386 84.016 236.066 84.016ZM236.962 85.184V94H235.138V85.184H236.962ZM243.804 85.04C244.498 85.04 245.116 85.184 245.66 85.472C246.215 85.76 246.647 86.1867 246.956 86.752C247.266 87.3173 247.42 88 247.42 88.8V94H245.612V89.072C245.612 88.2827 245.415 87.68 245.02 87.264C244.626 86.8373 244.087 86.624 243.404 86.624C242.722 86.624 242.178 86.8373 241.772 87.264C241.378 87.68 241.18 88.2827 241.18 89.072V94H239.356V85.184H241.18V86.192C241.479 85.8293 241.858 85.5467 242.316 85.344C242.786 85.1413 243.282 85.04 243.804 85.04ZM253.299 85.04C253.982 85.04 254.584 85.1787 255.107 85.456C255.64 85.7227 256.056 86.0587 256.355 86.464V85.184H258.195V94.144C258.195 94.9547 258.024 95.6747 257.683 96.304C257.342 96.944 256.846 97.4453 256.195 97.808C255.555 98.1707 254.787 98.352 253.891 98.352C252.696 98.352 251.704 98.0693 250.915 97.504C250.126 96.9493 249.678 96.192 249.571 95.232H251.379C251.518 95.6907 251.811 96.0587 252.259 96.336C252.718 96.624 253.262 96.768 253.891 96.768C254.627 96.768 255.219 96.544 255.667 96.096C256.126 95.648 256.355 94.9973 256.355 94.144V92.672C256.046 93.088 255.624 93.44 255.091 93.728C254.568 94.0053 253.971 94.144 253.299 94.144C252.531 94.144 251.827 93.952 251.187 93.568C250.558 93.1733 250.056 92.6293 249.683 91.936C249.32 91.232 249.139 90.4373 249.139 89.552C249.139 88.6667 249.32 87.8827 249.683 87.2C250.056 86.5173 250.558 85.9893 251.187 85.616C251.827 85.232 252.531 85.04 253.299 85.04ZM256.355 89.584C256.355 88.976 256.227 88.448 255.971 88C255.726 87.552 255.4 87.2107 254.995 86.976C254.59 86.7413 254.152 86.624 253.683 86.624C253.214 86.624 252.776 86.7413 252.371 86.976C251.966 87.2 251.635 87.536 251.379 87.984C251.134 88.4213 251.011 88.944 251.011 89.552C251.011 90.16 251.134 90.6933 251.379 91.152C251.635 91.6107 251.966 91.9627 252.371 92.208C252.787 92.4427 253.224 92.56 253.683 92.56C254.152 92.56 254.59 92.4427 254.995 92.208C255.4 91.9733 255.726 91.632 255.971 91.184C256.227 90.7253 256.355 90.192 256.355 89.584ZM266.555 82.88V89.968C266.555 90.8107 266.774 91.4453 267.211 91.872C267.659 92.2987 268.278 92.512 269.067 92.512C269.867 92.512 270.486 92.2987 270.923 91.872C271.371 91.4453 271.595 90.8107 271.595 89.968V82.88H273.419V89.936C273.419 90.8427 273.222 91.6107 272.827 92.24C272.432 92.8693 271.904 93.3387 271.243 93.648C270.582 93.9573 269.851 94.112 269.051 94.112C268.251 94.112 267.52 93.9573 266.859 93.648C266.208 93.3387 265.691 92.8693 265.307 92.24C264.923 91.6107 264.731 90.8427 264.731 89.936V82.88H266.555ZM283.57 86.192C283.57 86.7573 283.436 87.2907 283.17 87.792C282.903 88.2933 282.476 88.704 281.89 89.024C281.303 89.3333 280.551 89.488 279.634 89.488H277.618V94H275.794V82.88H279.634C280.487 82.88 281.207 83.0293 281.794 83.328C282.391 83.616 282.834 84.0107 283.122 84.512C283.42 85.0133 283.57 85.5733 283.57 86.192ZM279.634 88C280.327 88 280.844 87.8453 281.186 87.536C281.527 87.216 281.698 86.768 281.698 86.192C281.698 84.976 281.01 84.368 279.634 84.368H277.618V88H279.634ZM287.133 82.88V94H285.309V82.88H287.133Z" fill="#01154C"/>
</g>
<defs>
<filter id="filter0_d_881_82" x="0" y="0" width="375" height="160" filterUnits="userSpaceOnUse" color-interpolation-filters="sRGB">
<feFlood flood-opacity="0" result="BackgroundImageFix"/>
<feColorMatrix in="SourceAlpha" type="matrix" values="0 0 0 0 0 0 0 0 0 0 0 0 0 0 0 0 0 0 127 0" result="hardAlpha"/>
<feOffset dx="4" dy="4"/>
<feGaussianBlur stdDeviation="24"/>
<feComposite in2="hardAlpha" operator="out"/>
<feColorMatrix type="matrix" values="0 0 0 0 0 0 0 0 0 0 0 0 0 0 0 0 0 0 0.1 0"/>
<feBlend mode="normal" in2="BackgroundImageFix" result="effect1_dropShadow_881_82"/>
<feBlend mode="normal" in="SourceGraphic" in2="effect1_dropShadow_881_82" result="shape"/>
</filter>
</defs>
</svg>
