<svg width="372" height="161" viewBox="0 0 372 161" fill="none" xmlns="http://www.w3.org/2000/svg">
<g filter="url(#filter0_d_1838_2190)">
<rect x="44" y="44.7719" width="279" height="64" rx="32" fill="white"/>
<rect x="48" y="48.7719" width="56" height="56" rx="28" fill="#E6EDFF"/>
<g clip-path="url(#clip0_1838_2190)">
<path d="M89.9077 64.8634V76.0458C89.9077 76.3642 89.6502 76.6227 89.3308 76.6227H74.1211C73.8027 76.6227 73.5442 76.3642 73.5442 76.0458V75.1625L74.698 74.389V75.469H88.7529V65.4393H74.697V69.6602C74.6461 69.6991 74.5912 69.733 74.5433 69.7769L74.3816 69.8887C74.187 69.3797 73.8906 68.9785 73.5442 68.6491V64.8634C73.5442 64.545 73.8037 64.2865 74.1211 64.2865H89.3308C89.6502 64.2865 89.9077 64.544 89.9077 64.8634ZM76.2889 72.4428L76.9796 71.9797H76.9786C76.9796 71.9757 76.9816 71.9757 76.9836 71.9727C77.3349 71.6244 77.3888 71.1064 77.1712 70.6982L82.7595 66.9065L82.5059 66.5322L76.8708 70.3548C76.6942 70.2271 76.4965 70.1462 76.2889 70.1392C75.9935 70.1293 75.6931 70.2291 75.4675 70.4556C75.4675 70.4556 75.4625 70.4616 75.4605 70.4616L75.3228 70.5574L74.0712 71.4118V71.0485C73.8387 68.2848 70.6358 68.3257 70.6358 68.3257H69.2485L68.0828 70.244L66.911 68.3267H65.5806C61.9666 68.3946 62.0943 71.0485 62.0943 71.0485V77.2425H62.0963C62.0973 77.2585 62.0943 77.2775 62.0943 77.2904C62.0943 77.8803 62.5704 78.3544 63.1583 78.3544C63.7441 78.3544 64.2202 77.8783 64.2202 77.2904C64.2202 77.2775 64.2202 77.2585 64.2182 77.2425H64.2202V71.5136H64.8849L64.8769 89.5618C64.8769 90.3552 65.5217 91 66.3122 91C67.1056 91 67.7484 90.3552 67.7484 89.5618V77.9142H68.3882V89.5747L68.4001 89.5877C68.4101 90.3672 69.0449 91 69.8294 91C70.6169 91 71.2576 90.3582 71.2576 89.5708L71.2536 71.4836H71.9453V73.368C71.9453 73.37 71.9453 73.375 71.9453 73.377C71.9453 73.9629 72.4214 74.4399 73.0063 74.4399C73.1789 74.4399 73.3336 74.391 73.4803 74.3152L73.4853 74.3222L75.3218 73.0905L76.2889 72.4428ZM68.0618 67.8646C69.4052 67.8646 70.4941 66.7757 70.4941 65.4323C70.4941 64.0889 69.4052 63 68.0618 63C66.7184 63 65.6295 64.0899 65.6295 65.4323C65.6295 66.7747 66.7184 67.8646 68.0618 67.8646Z" fill="#1C59FC"/>
</g>
<path d="M127.152 65.0599C127.749 65.1666 128.256 65.4813 128.672 66.0039C129.088 66.5266 129.296 67.1186 129.296 67.7799C129.296 68.3453 129.147 68.8573 128.848 69.3159C128.56 69.7639 128.139 70.1213 127.584 70.3879C127.029 70.6439 126.384 70.7719 125.648 70.7719H121.2V59.6519H125.44C126.197 59.6519 126.848 59.7799 127.392 60.0359C127.936 60.2919 128.347 60.6386 128.624 61.0759C128.901 61.5026 129.04 61.9826 129.04 62.5159C129.04 63.1559 128.869 63.6893 128.528 64.1159C128.187 64.5426 127.728 64.8573 127.152 65.0599ZM123.024 64.3239H125.28C125.877 64.3239 126.341 64.1906 126.672 63.9239C127.013 63.6466 127.184 63.2519 127.184 62.7399C127.184 62.2386 127.013 61.8493 126.672 61.5719C126.341 61.2839 125.877 61.1399 125.28 61.1399H123.024V64.3239ZM125.488 69.2839C126.107 69.2839 126.592 69.1346 126.944 68.8359C127.296 68.5373 127.472 68.1213 127.472 67.5879C127.472 67.0439 127.285 66.6119 126.912 66.2919C126.539 65.9719 126.043 65.8119 125.424 65.8119H123.024V69.2839H125.488ZM135.102 70.9159C134.27 70.9159 133.518 70.7293 132.846 70.3559C132.174 69.9719 131.646 69.4386 131.262 68.7559C130.878 68.0626 130.686 67.2626 130.686 66.3559C130.686 65.4599 130.883 64.6653 131.278 63.9719C131.673 63.2786 132.211 62.7453 132.894 62.3719C133.577 61.9986 134.339 61.8119 135.182 61.8119C136.025 61.8119 136.787 61.9986 137.47 62.3719C138.153 62.7453 138.691 63.2786 139.086 63.9719C139.481 64.6653 139.678 65.4599 139.678 66.3559C139.678 67.2519 139.475 68.0466 139.07 68.7399C138.665 69.4333 138.11 69.9719 137.406 70.3559C136.713 70.7293 135.945 70.9159 135.102 70.9159ZM135.102 69.3319C135.571 69.3319 136.009 69.2199 136.414 68.9959C136.83 68.7719 137.166 68.4359 137.422 67.9879C137.678 67.5399 137.806 66.9959 137.806 66.3559C137.806 65.7159 137.683 65.1773 137.438 64.7399C137.193 64.2919 136.867 63.9559 136.462 63.7319C136.057 63.5079 135.619 63.3959 135.15 63.3959C134.681 63.3959 134.243 63.5079 133.838 63.7319C133.443 63.9559 133.129 64.2919 132.894 64.7399C132.659 65.1773 132.542 65.7159 132.542 66.3559C132.542 67.3053 132.782 68.0413 133.262 68.5639C133.753 69.0759 134.366 69.3319 135.102 69.3319ZM145.305 70.9159C144.473 70.9159 143.721 70.7293 143.049 70.3559C142.377 69.9719 141.849 69.4386 141.465 68.7559C141.081 68.0626 140.889 67.2626 140.889 66.3559C140.889 65.4599 141.087 64.6653 141.481 63.9719C141.876 63.2786 142.415 62.7453 143.097 62.3719C143.78 61.9986 144.543 61.8119 145.385 61.8119C146.228 61.8119 146.991 61.9986 147.673 62.3719C148.356 62.7453 148.895 63.2786 149.289 63.9719C149.684 64.6653 149.881 65.4599 149.881 66.3559C149.881 67.2519 149.679 68.0466 149.273 68.7399C148.868 69.4333 148.313 69.9719 147.609 70.3559C146.916 70.7293 146.148 70.9159 145.305 70.9159ZM145.305 69.3319C145.775 69.3319 146.212 69.2199 146.617 68.9959C147.033 68.7719 147.369 68.4359 147.625 67.9879C147.881 67.5399 148.009 66.9959 148.009 66.3559C148.009 65.7159 147.887 65.1773 147.641 64.7399C147.396 64.2919 147.071 63.9559 146.665 63.7319C146.26 63.5079 145.823 63.3959 145.353 63.3959C144.884 63.3959 144.447 63.5079 144.041 63.7319C143.647 63.9559 143.332 64.2919 143.097 64.7399C142.863 65.1773 142.745 65.7159 142.745 66.3559C142.745 67.3053 142.985 68.0413 143.465 68.5639C143.956 69.0759 144.569 69.3319 145.305 69.3319ZM155.172 66.3719L159.236 70.7719H156.772L153.508 66.9799V70.7719H151.684V58.9319H153.508V65.8119L156.708 61.9559H159.236L155.172 66.3719ZM168.364 70.8839C167.617 70.8839 166.945 70.7559 166.348 70.4999C165.751 70.2333 165.281 69.8599 164.94 69.3799C164.599 68.8999 164.428 68.3399 164.428 67.6999H166.38C166.423 68.1799 166.609 68.5746 166.94 68.8839C167.281 69.1933 167.756 69.3479 168.364 69.3479C168.993 69.3479 169.484 69.1986 169.836 68.8999C170.188 68.5906 170.364 68.1959 170.364 67.7159C170.364 67.3426 170.252 67.0386 170.028 66.8039C169.815 66.5693 169.543 66.3879 169.212 66.2599C168.892 66.1319 168.444 65.9933 167.868 65.8439C167.143 65.6519 166.551 65.4599 166.092 65.2679C165.644 65.0653 165.26 64.7559 164.94 64.3399C164.62 63.9239 164.46 63.3693 164.46 62.6759C164.46 62.0359 164.62 61.4759 164.94 60.9959C165.26 60.5159 165.708 60.1479 166.284 59.8919C166.86 59.6359 167.527 59.5079 168.284 59.5079C169.361 59.5079 170.241 59.7799 170.924 60.3239C171.617 60.8573 172.001 61.5933 172.076 62.5319H170.06C170.028 62.1266 169.836 61.7799 169.484 61.4919C169.132 61.2039 168.668 61.0599 168.092 61.0599C167.569 61.0599 167.143 61.1933 166.812 61.4599C166.481 61.7266 166.316 62.1106 166.316 62.6119C166.316 62.9533 166.417 63.2359 166.62 63.4599C166.833 63.6733 167.1 63.8439 167.42 63.9719C167.74 64.0999 168.177 64.2386 168.732 64.3879C169.468 64.5906 170.065 64.7933 170.524 64.9959C170.993 65.1986 171.388 65.5133 171.708 65.9399C172.039 66.3559 172.204 66.9159 172.204 67.6199C172.204 68.1853 172.049 68.7186 171.74 69.2199C171.441 69.7213 170.999 70.1266 170.412 70.4359C169.836 70.7346 169.153 70.8839 168.364 70.8839ZM182.436 66.1479C182.436 66.4786 182.415 66.7773 182.372 67.0439H175.636C175.69 67.7479 175.951 68.3133 176.42 68.7399C176.89 69.1666 177.466 69.3799 178.148 69.3799C179.13 69.3799 179.823 68.9693 180.228 68.1479H182.196C181.93 68.9586 181.444 69.6253 180.74 70.1479C180.047 70.6599 179.183 70.9159 178.148 70.9159C177.306 70.9159 176.548 70.7293 175.876 70.3559C175.215 69.9719 174.692 69.4386 174.308 68.7559C173.935 68.0626 173.748 67.2626 173.748 66.3559C173.748 65.4493 173.93 64.6546 174.292 63.9719C174.666 63.2786 175.183 62.7453 175.844 62.3719C176.516 61.9986 177.284 61.8119 178.148 61.8119C178.98 61.8119 179.722 61.9933 180.372 62.3559C181.023 62.7186 181.53 63.2306 181.892 63.8919C182.255 64.5426 182.436 65.2946 182.436 66.1479ZM180.532 65.5719C180.522 64.8999 180.282 64.3613 179.812 63.9559C179.343 63.5506 178.762 63.3479 178.068 63.3479C177.439 63.3479 176.9 63.5506 176.452 63.9559C176.004 64.3506 175.738 64.8893 175.652 65.5719H180.532ZM187.431 70.9159C186.738 70.9159 186.114 70.7933 185.559 70.5479C185.015 70.2919 184.583 69.9506 184.263 69.5239C183.943 69.0866 183.773 68.6013 183.751 68.0679H185.639C185.671 68.4413 185.847 68.7559 186.167 69.0119C186.498 69.2573 186.909 69.3799 187.399 69.3799C187.911 69.3799 188.306 69.2839 188.583 69.0919C188.871 68.8893 189.015 68.6333 189.015 68.3239C189.015 67.9933 188.855 67.7479 188.535 67.5879C188.226 67.4279 187.73 67.2519 187.047 67.0599C186.386 66.8786 185.847 66.7026 185.431 66.5319C185.015 66.3613 184.653 66.0999 184.343 65.7479C184.045 65.3959 183.895 64.9319 183.895 64.3559C183.895 63.8866 184.034 63.4599 184.311 63.0759C184.589 62.6813 184.983 62.3719 185.495 62.1479C186.018 61.9239 186.615 61.8119 187.287 61.8119C188.29 61.8119 189.095 62.0679 189.703 62.5799C190.322 63.0813 190.653 63.7693 190.695 64.6439H188.871C188.839 64.2493 188.679 63.9346 188.391 63.6999C188.103 63.4653 187.714 63.3479 187.223 63.3479C186.743 63.3479 186.375 63.4386 186.119 63.6199C185.863 63.8013 185.735 64.0413 185.735 64.3399C185.735 64.5746 185.821 64.7719 185.991 64.9319C186.162 65.0919 186.37 65.2199 186.615 65.3159C186.861 65.4013 187.223 65.5133 187.703 65.6519C188.343 65.8226 188.866 65.9986 189.271 66.1799C189.687 66.3506 190.045 66.6066 190.343 66.9479C190.642 67.2893 190.797 67.7426 190.807 68.3079C190.807 68.8093 190.669 69.2573 190.391 69.6519C190.114 70.0466 189.719 70.3559 189.207 70.5799C188.706 70.8039 188.114 70.9159 187.431 70.9159ZM195.978 70.9159C195.285 70.9159 194.661 70.7933 194.106 70.5479C193.562 70.2919 193.13 69.9506 192.81 69.5239C192.49 69.0866 192.319 68.6013 192.298 68.0679H194.186C194.218 68.4413 194.394 68.7559 194.714 69.0119C195.045 69.2573 195.455 69.3799 195.946 69.3799C196.458 69.3799 196.853 69.2839 197.13 69.0919C197.418 68.8893 197.562 68.6333 197.562 68.3239C197.562 67.9933 197.402 67.7479 197.082 67.5879C196.773 67.4279 196.277 67.2519 195.594 67.0599C194.933 66.8786 194.394 66.7026 193.978 66.5319C193.562 66.3613 193.199 66.0999 192.89 65.7479C192.591 65.3959 192.442 64.9319 192.442 64.3559C192.442 63.8866 192.581 63.4599 192.858 63.0759C193.135 62.6813 193.53 62.3719 194.042 62.1479C194.565 61.9239 195.162 61.8119 195.834 61.8119C196.837 61.8119 197.642 62.0679 198.25 62.5799C198.869 63.0813 199.199 63.7693 199.242 64.6439H197.418C197.386 64.2493 197.226 63.9346 196.938 63.6999C196.65 63.4653 196.261 63.3479 195.77 63.3479C195.29 63.3479 194.922 63.4386 194.666 63.6199C194.41 63.8013 194.282 64.0413 194.282 64.3399C194.282 64.5746 194.367 64.7719 194.538 64.9319C194.709 65.0919 194.917 65.2199 195.162 65.3159C195.407 65.4013 195.77 65.5133 196.25 65.6519C196.89 65.8226 197.413 65.9986 197.818 66.1799C198.234 66.3506 198.591 66.6066 198.89 66.9479C199.189 67.2893 199.343 67.7426 199.354 68.3079C199.354 68.8093 199.215 69.2573 198.938 69.6519C198.661 70.0466 198.266 70.3559 197.754 70.5799C197.253 70.8039 196.661 70.9159 195.978 70.9159ZM202.253 60.7879C201.922 60.7879 201.645 60.6759 201.421 60.4519C201.197 60.2279 201.085 59.9506 201.085 59.6199C201.085 59.2893 201.197 59.0119 201.421 58.7879C201.645 58.5639 201.922 58.4519 202.253 58.4519C202.573 58.4519 202.845 58.5639 203.069 58.7879C203.293 59.0119 203.405 59.2893 203.405 59.6199C203.405 59.9506 203.293 60.2279 203.069 60.4519C202.845 60.6759 202.573 60.7879 202.253 60.7879ZM203.149 61.9559V70.7719H201.325V61.9559H203.149ZM209.368 70.9159C208.536 70.9159 207.784 70.7293 207.112 70.3559C206.44 69.9719 205.912 69.4386 205.528 68.7559C205.144 68.0626 204.952 67.2626 204.952 66.3559C204.952 65.4599 205.149 64.6653 205.544 63.9719C205.938 63.2786 206.477 62.7453 207.16 62.3719C207.842 61.9986 208.605 61.8119 209.448 61.8119C210.29 61.8119 211.053 61.9986 211.736 62.3719C212.418 62.7453 212.957 63.2786 213.352 63.9719C213.746 64.6653 213.944 65.4599 213.944 66.3559C213.944 67.2519 213.741 68.0466 213.336 68.7399C212.93 69.4333 212.376 69.9719 211.672 70.3559C210.978 70.7293 210.21 70.9159 209.368 70.9159ZM209.368 69.3319C209.837 69.3319 210.274 69.2199 210.68 68.9959C211.096 68.7719 211.432 68.4359 211.688 67.9879C211.944 67.5399 212.072 66.9959 212.072 66.3559C212.072 65.7159 211.949 65.1773 211.704 64.7399C211.458 64.2919 211.133 63.9559 210.728 63.7319C210.322 63.5079 209.885 63.3959 209.416 63.3959C208.946 63.3959 208.509 63.5079 208.104 63.7319C207.709 63.9559 207.394 64.2919 207.16 64.7399C206.925 65.1773 206.808 65.7159 206.808 66.3559C206.808 67.3053 207.048 68.0413 207.528 68.5639C208.018 69.0759 208.632 69.3319 209.368 69.3319ZM220.195 61.8119C220.888 61.8119 221.507 61.9559 222.051 62.2439C222.606 62.5319 223.038 62.9586 223.347 63.5239C223.656 64.0893 223.811 64.7719 223.811 65.5719V70.7719H222.003V65.8439C222.003 65.0546 221.806 64.4519 221.411 64.0359C221.016 63.6093 220.478 63.3959 219.795 63.3959C219.112 63.3959 218.568 63.6093 218.163 64.0359C217.768 64.4519 217.571 65.0546 217.571 65.8439V70.7719H215.747V61.9559H217.571V62.9639C217.87 62.6013 218.248 62.3186 218.707 62.1159C219.176 61.9133 219.672 61.8119 220.195 61.8119ZM229.338 70.9159C228.644 70.9159 228.02 70.7933 227.466 70.5479C226.922 70.2919 226.49 69.9506 226.17 69.5239C225.85 69.0866 225.679 68.6013 225.658 68.0679H227.546C227.578 68.4413 227.754 68.7559 228.074 69.0119C228.404 69.2573 228.815 69.3799 229.306 69.3799C229.818 69.3799 230.212 69.2839 230.49 69.0919C230.778 68.8893 230.922 68.6333 230.922 68.3239C230.922 67.9933 230.762 67.7479 230.442 67.5879C230.132 67.4279 229.636 67.2519 228.954 67.0599C228.292 66.8786 227.754 66.7026 227.338 66.5319C226.922 66.3613 226.559 66.0999 226.25 65.7479C225.951 65.3959 225.802 64.9319 225.802 64.3559C225.802 63.8866 225.94 63.4599 226.218 63.0759C226.495 62.6813 226.89 62.3719 227.402 62.1479C227.924 61.9239 228.522 61.8119 229.194 61.8119C230.196 61.8119 231.002 62.0679 231.61 62.5799C232.228 63.0813 232.559 63.7693 232.602 64.6439H230.778C230.746 64.2493 230.586 63.9346 230.298 63.6999C230.01 63.4653 229.62 63.3479 229.13 63.3479C228.65 63.3479 228.282 63.4386 228.026 63.6199C227.77 63.8013 227.642 64.0413 227.642 64.3399C227.642 64.5746 227.727 64.7719 227.898 64.9319C228.068 65.0919 228.276 65.2199 228.522 65.3159C228.767 65.4013 229.13 65.5133 229.61 65.6519C230.25 65.8226 230.772 65.9986 231.178 66.1799C231.594 66.3506 231.951 66.6066 232.25 66.9479C232.548 67.2893 232.703 67.7426 232.714 68.3079C232.714 68.8093 232.575 69.2573 232.298 69.6519C232.02 70.0466 231.626 70.3559 231.114 70.5799C230.612 70.8039 230.02 70.9159 229.338 70.9159ZM250.681 61.9559L247.945 70.7719H246.025L244.249 64.2599L242.473 70.7719H240.553L237.801 61.9559H239.657L241.497 69.0439L243.369 61.9559H245.273L247.065 69.0119L248.889 61.9559H250.681ZM252.972 60.7879C252.641 60.7879 252.364 60.6759 252.14 60.4519C251.916 60.2279 251.804 59.9506 251.804 59.6199C251.804 59.2893 251.916 59.0119 252.14 58.7879C252.364 58.5639 252.641 58.4519 252.972 58.4519C253.292 58.4519 253.564 58.5639 253.788 58.7879C254.012 59.0119 254.124 59.2893 254.124 59.6199C254.124 59.9506 254.012 60.2279 253.788 60.4519C253.564 60.6759 253.292 60.7879 252.972 60.7879ZM253.868 61.9559V70.7719H252.044V61.9559H253.868ZM258.391 63.4439V68.3239C258.391 68.6546 258.465 68.8946 258.615 69.0439C258.775 69.1826 259.041 69.2519 259.415 69.2519H260.535V70.7719H259.095C258.273 70.7719 257.644 70.5799 257.207 70.1959C256.769 69.8119 256.551 69.1879 256.551 68.3239V63.4439H255.511V61.9559H256.551V59.7639H258.391V61.9559H260.535V63.4439H258.391ZM266.776 61.8119C267.448 61.8119 268.045 61.9559 268.568 62.2439C269.101 62.5319 269.517 62.9586 269.816 63.5239C270.125 64.0893 270.28 64.7719 270.28 65.5719V70.7719H268.472V65.8439C268.472 65.0546 268.274 64.4519 267.88 64.0359C267.485 63.6093 266.946 63.3959 266.264 63.3959C265.581 63.3959 265.037 63.6093 264.632 64.0359C264.237 64.4519 264.04 65.0546 264.04 65.8439V70.7719H262.216V58.9319H264.04V62.9799C264.349 62.6066 264.738 62.3186 265.208 62.1159C265.688 61.9133 266.21 61.8119 266.776 61.8119ZM124.608 93.1399L127.104 85.9559H129.04L125.68 94.7719H123.504L120.16 85.9559H122.112L124.608 93.1399ZM138.499 90.1479C138.499 90.4786 138.477 90.7773 138.435 91.0439H131.699C131.752 91.7479 132.013 92.3133 132.483 92.7399C132.952 93.1666 133.528 93.3799 134.211 93.3799C135.192 93.3799 135.885 92.9693 136.291 92.1479H138.259C137.992 92.9586 137.507 93.6253 136.803 94.1479C136.109 94.6599 135.245 94.9159 134.211 94.9159C133.368 94.9159 132.611 94.7293 131.939 94.3559C131.277 93.9719 130.755 93.4386 130.371 92.7559C129.997 92.0626 129.811 91.2626 129.811 90.3559C129.811 89.4493 129.992 88.6546 130.355 87.9719C130.728 87.2786 131.245 86.7453 131.907 86.3719C132.579 85.9986 133.347 85.8119 134.211 85.8119C135.043 85.8119 135.784 85.9933 136.435 86.3559C137.085 86.7186 137.592 87.2306 137.955 87.8919C138.317 88.5426 138.499 89.2946 138.499 90.1479ZM136.595 89.5719C136.584 88.8999 136.344 88.3613 135.875 87.9559C135.405 87.5506 134.824 87.3479 134.131 87.3479C133.501 87.3479 132.963 87.5506 132.515 87.9559C132.067 88.3506 131.8 88.8893 131.715 89.5719H136.595ZM142.118 87.2359C142.384 86.7879 142.736 86.4413 143.174 86.1959C143.622 85.9399 144.15 85.8119 144.758 85.8119V87.6999H144.294C143.579 87.6999 143.035 87.8813 142.662 88.2439C142.299 88.6066 142.118 89.2359 142.118 90.1319V94.7719H140.294V85.9559H142.118V87.2359ZM147.362 84.7879C147.032 84.7879 146.754 84.6759 146.53 84.4519C146.306 84.2279 146.194 83.9506 146.194 83.6199C146.194 83.2893 146.306 83.0119 146.53 82.7879C146.754 82.5639 147.032 82.4519 147.362 82.4519C147.682 82.4519 147.954 82.5639 148.178 82.7879C148.402 83.0119 148.514 83.2893 148.514 83.6199C148.514 83.9506 148.402 84.2279 148.178 84.4519C147.954 84.6759 147.682 84.7879 147.362 84.7879ZM148.258 85.9559V94.7719H146.434V85.9559H148.258ZM154.349 87.4439H152.717V94.7719H150.877V87.4439H149.837V85.9559H150.877V85.3319C150.877 84.3186 151.144 83.5826 151.677 83.1239C152.221 82.6546 153.069 82.4199 154.221 82.4199V83.9399C153.666 83.9399 153.277 84.0466 153.053 84.2599C152.829 84.4626 152.717 84.8199 152.717 85.3319V85.9559H154.349V87.4439ZM156.894 84.7879C156.563 84.7879 156.286 84.6759 156.062 84.4519C155.838 84.2279 155.726 83.9506 155.726 83.6199C155.726 83.2893 155.838 83.0119 156.062 82.7879C156.286 82.5639 156.563 82.4519 156.894 82.4519C157.214 82.4519 157.486 82.5639 157.71 82.7879C157.934 83.0119 158.046 83.2893 158.046 83.6199C158.046 83.9506 157.934 84.2279 157.71 84.4519C157.486 84.6759 157.214 84.7879 156.894 84.7879ZM157.79 85.9559V94.7719H155.966V85.9559H157.79ZM168.264 90.1479C168.264 90.4786 168.243 90.7773 168.2 91.0439H161.464C161.518 91.7479 161.779 92.3133 162.248 92.7399C162.718 93.1666 163.294 93.3799 163.976 93.3799C164.958 93.3799 165.651 92.9693 166.056 92.1479H168.024C167.758 92.9586 167.272 93.6253 166.568 94.1479C165.875 94.6599 165.011 94.9159 163.976 94.9159C163.134 94.9159 162.376 94.7293 161.704 94.3559C161.043 93.9719 160.52 93.4386 160.136 92.7559C159.763 92.0626 159.576 91.2626 159.576 90.3559C159.576 89.4493 159.758 88.6546 160.12 87.9719C160.494 87.2786 161.011 86.7453 161.672 86.3719C162.344 85.9986 163.112 85.8119 163.976 85.8119C164.808 85.8119 165.55 85.9933 166.2 86.3559C166.851 86.7186 167.358 87.2306 167.72 87.8919C168.083 88.5426 168.264 89.2946 168.264 90.1479ZM166.36 89.5719C166.35 88.8999 166.11 88.3613 165.64 87.9559C165.171 87.5506 164.59 87.3479 163.896 87.3479C163.267 87.3479 162.728 87.5506 162.28 87.9559C161.832 88.3506 161.566 88.8893 161.48 89.5719H166.36ZM169.451 90.3239C169.451 89.4386 169.633 88.6546 169.995 87.9719C170.369 87.2893 170.87 86.7613 171.499 86.3879C172.139 86.0039 172.849 85.8119 173.627 85.8119C174.203 85.8119 174.769 85.9399 175.323 86.1959C175.889 86.4413 176.337 86.7719 176.667 87.1879V82.9319H178.507V94.7719H176.667V93.4439C176.369 93.8706 175.953 94.2226 175.419 94.4999C174.897 94.7773 174.294 94.9159 173.611 94.9159C172.843 94.9159 172.139 94.7239 171.499 94.3399C170.87 93.9453 170.369 93.4013 169.995 92.7079C169.633 92.0039 169.451 91.2093 169.451 90.3239ZM176.667 90.3559C176.667 89.7479 176.539 89.2199 176.283 88.7719C176.038 88.3239 175.713 87.9826 175.307 87.7479C174.902 87.5133 174.465 87.3959 173.995 87.3959C173.526 87.3959 173.089 87.5133 172.683 87.7479C172.278 87.9719 171.947 88.3079 171.691 88.7559C171.446 89.1933 171.323 89.7159 171.323 90.3239C171.323 90.9319 171.446 91.4653 171.691 91.9239C171.947 92.3826 172.278 92.7346 172.683 92.9799C173.099 93.2146 173.537 93.3319 173.995 93.3319C174.465 93.3319 174.902 93.2146 175.307 92.9799C175.713 92.7453 176.038 92.4039 176.283 91.9559C176.539 91.4973 176.667 90.9639 176.667 90.3559ZM187.187 87.4439V92.3239C187.187 92.6546 187.262 92.8946 187.411 93.0439C187.571 93.1826 187.838 93.2519 188.211 93.2519H189.331V94.7719H187.891C187.07 94.7719 186.441 94.5799 186.003 94.1959C185.566 93.8119 185.347 93.1879 185.347 92.3239V87.4439H184.307V85.9559H185.347V83.7639H187.187V85.9559H189.331V87.4439H187.187ZM198.997 85.9559V94.7719H197.173V93.7319C196.885 94.0946 196.506 94.3826 196.037 94.5959C195.578 94.7986 195.087 94.8999 194.565 94.8999C193.871 94.8999 193.247 94.7559 192.693 94.4679C192.149 94.1799 191.717 93.7533 191.397 93.1879C191.087 92.6226 190.933 91.9399 190.933 91.1399V85.9559H192.741V90.8679C192.741 91.6573 192.938 92.2653 193.333 92.6919C193.727 93.1079 194.266 93.3159 194.949 93.3159C195.631 93.3159 196.17 93.1079 196.565 92.6919C196.97 92.2653 197.173 91.6573 197.173 90.8679V85.9559H198.997ZM203.531 87.4439V92.3239C203.531 92.6546 203.606 92.8946 203.755 93.0439C203.915 93.1826 204.182 93.2519 204.555 93.2519H205.675V94.7719H204.235C203.414 94.7719 202.784 94.5799 202.347 94.1959C201.91 93.8119 201.691 93.1879 201.691 92.3239V87.4439H200.651V85.9559H201.691V83.7639H203.531V85.9559H205.675V87.4439H203.531ZM211.18 94.9159C210.348 94.9159 209.596 94.7293 208.924 94.3559C208.252 93.9719 207.724 93.4386 207.34 92.7559C206.956 92.0626 206.764 91.2626 206.764 90.3559C206.764 89.4599 206.962 88.6653 207.356 87.9719C207.751 87.2786 208.29 86.7453 208.972 86.3719C209.655 85.9986 210.418 85.8119 211.26 85.8119C212.103 85.8119 212.866 85.9986 213.548 86.3719C214.231 86.7453 214.77 87.2786 215.164 87.9719C215.559 88.6653 215.756 89.4599 215.756 90.3559C215.756 91.2519 215.554 92.0466 215.148 92.7399C214.743 93.4333 214.188 93.9719 213.484 94.3559C212.791 94.7293 212.023 94.9159 211.18 94.9159ZM211.18 93.3319C211.65 93.3319 212.087 93.2199 212.492 92.9959C212.908 92.7719 213.244 92.4359 213.5 91.9879C213.756 91.5399 213.884 90.9959 213.884 90.3559C213.884 89.7159 213.762 89.1773 213.516 88.7399C213.271 88.2919 212.946 87.9559 212.54 87.7319C212.135 87.5079 211.698 87.3959 211.228 87.3959C210.759 87.3959 210.322 87.5079 209.916 87.7319C209.522 87.9559 209.207 88.2919 208.972 88.7399C208.738 89.1773 208.62 89.7159 208.62 90.3559C208.62 91.3053 208.86 92.0413 209.34 92.5639C209.831 93.0759 210.444 93.3319 211.18 93.3319ZM219.383 87.2359C219.65 86.7879 220.002 86.4413 220.439 86.1959C220.887 85.9399 221.415 85.8119 222.023 85.8119V87.6999H221.559C220.845 87.6999 220.301 87.8813 219.927 88.2439C219.565 88.6066 219.383 89.2359 219.383 90.1319V94.7719H217.559V85.9559H219.383V87.2359ZM226.9 94.9159C226.207 94.9159 225.583 94.7933 225.028 94.5479C224.484 94.2919 224.052 93.9506 223.732 93.5239C223.412 93.0866 223.241 92.6013 223.22 92.0679H225.108C225.14 92.4413 225.316 92.7559 225.636 93.0119C225.967 93.2573 226.377 93.3799 226.868 93.3799C227.38 93.3799 227.775 93.2839 228.052 93.0919C228.34 92.8893 228.484 92.6333 228.484 92.3239C228.484 91.9933 228.324 91.7479 228.004 91.5879C227.695 91.4279 227.199 91.2519 226.516 91.0599C225.855 90.8786 225.316 90.7026 224.9 90.5319C224.484 90.3613 224.121 90.0999 223.812 89.7479C223.513 89.3959 223.364 88.9319 223.364 88.3559C223.364 87.8866 223.503 87.4599 223.78 87.0759C224.057 86.6813 224.452 86.3719 224.964 86.1479C225.487 85.9239 226.084 85.8119 226.756 85.8119C227.759 85.8119 228.564 86.0679 229.172 86.5799C229.791 87.0813 230.121 87.7693 230.164 88.6439H228.34C228.308 88.2493 228.148 87.9346 227.86 87.6999C227.572 87.4653 227.183 87.3479 226.692 87.3479C226.212 87.3479 225.844 87.4386 225.588 87.6199C225.332 87.8013 225.204 88.0413 225.204 88.3399C225.204 88.5746 225.289 88.7719 225.46 88.9319C225.631 89.0919 225.839 89.2199 226.084 89.3159C226.329 89.4013 226.692 89.5133 227.172 89.6519C227.812 89.8226 228.335 89.9986 228.74 90.1799C229.156 90.3506 229.513 90.6066 229.812 90.9479C230.111 91.2893 230.265 91.7426 230.276 92.3079C230.276 92.8093 230.137 93.2573 229.86 93.6519C229.583 94.0466 229.188 94.3559 228.676 94.5799C228.175 94.8039 227.583 94.9159 226.9 94.9159Z" fill="#01154C"/>
</g>
<defs>
<filter id="filter0_d_1838_2190" x="0" y="0.771942" width="375" height="160" filterUnits="userSpaceOnUse" color-interpolation-filters="sRGB">
<feFlood flood-opacity="0" result="BackgroundImageFix"/>
<feColorMatrix in="SourceAlpha" type="matrix" values="0 0 0 0 0 0 0 0 0 0 0 0 0 0 0 0 0 0 127 0" result="hardAlpha"/>
<feOffset dx="4" dy="4"/>
<feGaussianBlur stdDeviation="24"/>
<feComposite in2="hardAlpha" operator="out"/>
<feColorMatrix type="matrix" values="0 0 0 0 0 0 0 0 0 0 0 0 0 0 0 0 0 0 0.1 0"/>
<feBlend mode="normal" in2="BackgroundImageFix" result="effect1_dropShadow_1838_2190"/>
<feBlend mode="normal" in="SourceGraphic" in2="effect1_dropShadow_1838_2190" result="shape"/>
</filter>
<clipPath id="clip0_1838_2190">
<rect width="28" height="28" fill="white" transform="translate(62 62.7719)"/>
</clipPath>
</defs>
</svg>
