<svg width="360" height="160" viewBox="0 0 360 160" fill="none" xmlns="http://www.w3.org/2000/svg">
<g filter="url(#filter0_d_881_86)">
<rect x="44" y="44" width="264" height="64" rx="32" fill="white"/>
<rect x="48" y="48" width="56" height="56" rx="28" fill="#E6EDFF"/>
<path fill-rule="evenodd" clip-rule="evenodd" d="M75.5728 60.0238C75.8488 59.9235 76.1512 59.9235 76.4272 60.0238L90.1772 65.0238C90.6712 65.2034 91 65.6729 91 66.1985V71C91 71.6903 90.4403 72.25 89.75 72.25H62.25C61.5597 72.25 61 71.6903 61 71V66.1985C61 65.6729 61.3288 65.2034 61.8228 65.0238L75.5728 60.0238ZM63.5 67.0741V69.75H88.5V67.0741L76 62.5286L63.5 67.0741Z" fill="#1C59FC"/>
<path fill-rule="evenodd" clip-rule="evenodd" d="M61 85.5833C61 84.893 61.5597 84.3333 62.25 84.3333H89.75C90.4403 84.3333 91 84.893 91 85.5833V91.4166C91 92.107 90.4403 92.6666 89.75 92.6666H62.25C61.5597 92.6666 61 92.107 61 91.4166V85.5833ZM63.5 86.8333V90.1666H88.5V86.8333H63.5Z" fill="#1C59FC"/>
<path fill-rule="evenodd" clip-rule="evenodd" d="M64.332 85.0176V71.5745H66.832V85.0176H64.332ZM74.7849 85.0176V71.5745H77.2849V85.0176H74.7849ZM85.2041 85.0176V71.5745H87.7041V85.0176H85.2041Z" fill="#1C59FC"/>
<path d="M120.592 64.416C120.592 63.328 120.843 62.352 121.344 61.488C121.856 60.624 122.544 59.952 123.408 59.472C124.283 58.9813 125.237 58.736 126.272 58.736C127.456 58.736 128.507 59.0293 129.424 59.616C130.352 60.192 131.024 61.0133 131.44 62.08H129.248C128.96 61.4933 128.56 61.056 128.048 60.768C127.536 60.48 126.944 60.336 126.272 60.336C125.536 60.336 124.88 60.5013 124.304 60.832C123.728 61.1627 123.275 61.6373 122.944 62.256C122.624 62.8747 122.464 63.5947 122.464 64.416C122.464 65.2373 122.624 65.9573 122.944 66.576C123.275 67.1947 123.728 67.6747 124.304 68.016C124.88 68.3467 125.536 68.512 126.272 68.512C126.944 68.512 127.536 68.368 128.048 68.08C128.56 67.792 128.96 67.3547 129.248 66.768H131.44C131.024 67.8347 130.352 68.656 129.424 69.232C128.507 69.808 127.456 70.096 126.272 70.096C125.227 70.096 124.272 69.856 123.408 69.376C122.544 68.8853 121.856 68.208 121.344 67.344C120.843 66.48 120.592 65.504 120.592 64.416ZM135.399 62.464C135.666 62.016 136.018 61.6693 136.455 61.424C136.903 61.168 137.431 61.04 138.039 61.04V62.928H137.575C136.86 62.928 136.316 63.1093 135.943 63.472C135.58 63.8347 135.399 64.464 135.399 65.36V70H133.575V61.184H135.399V62.464ZM147.796 65.376C147.796 65.7067 147.774 66.0053 147.732 66.272H140.996C141.049 66.976 141.31 67.5413 141.78 67.968C142.249 68.3947 142.825 68.608 143.508 68.608C144.489 68.608 145.182 68.1973 145.588 67.376H147.556C147.289 68.1867 146.804 68.8533 146.1 69.376C145.406 69.888 144.542 70.144 143.508 70.144C142.665 70.144 141.908 69.9573 141.236 69.584C140.574 69.2 140.052 68.6667 139.668 67.984C139.294 67.2907 139.108 66.4907 139.108 65.584C139.108 64.6773 139.289 63.8827 139.652 63.2C140.025 62.5067 140.542 61.9733 141.204 61.6C141.876 61.2267 142.644 61.04 143.508 61.04C144.34 61.04 145.081 61.2213 145.732 61.584C146.382 61.9467 146.889 62.4587 147.252 63.12C147.614 63.7707 147.796 64.5227 147.796 65.376ZM145.892 64.8C145.881 64.128 145.641 63.5893 145.172 63.184C144.702 62.7787 144.121 62.576 143.428 62.576C142.798 62.576 142.26 62.7787 141.812 63.184C141.364 63.5787 141.097 64.1173 141.012 64.8H145.892ZM148.983 65.552C148.983 64.6667 149.164 63.8827 149.527 63.2C149.9 62.5173 150.401 61.9893 151.031 61.616C151.671 61.232 152.38 61.04 153.159 61.04C153.735 61.04 154.3 61.168 154.855 61.424C155.42 61.6693 155.868 62 156.199 62.416V58.16H158.039V70H156.199V68.672C155.9 69.0987 155.484 69.4507 154.951 69.728C154.428 70.0053 153.825 70.144 153.143 70.144C152.375 70.144 151.671 69.952 151.031 69.568C150.401 69.1733 149.9 68.6293 149.527 67.936C149.164 67.232 148.983 66.4373 148.983 65.552ZM156.199 65.584C156.199 64.976 156.071 64.448 155.815 64C155.569 63.552 155.244 63.2107 154.839 62.976C154.433 62.7413 153.996 62.624 153.527 62.624C153.057 62.624 152.62 62.7413 152.215 62.976C151.809 63.2 151.479 63.536 151.223 63.984C150.977 64.4213 150.855 64.944 150.855 65.552C150.855 66.16 150.977 66.6933 151.223 67.152C151.479 67.6107 151.809 67.9627 152.215 68.208C152.631 68.4427 153.068 68.56 153.527 68.56C153.996 68.56 154.433 68.4427 154.839 68.208C155.244 67.9733 155.569 67.632 155.815 67.184C156.071 66.7253 156.199 66.192 156.199 65.584ZM161.362 60.016C161.032 60.016 160.754 59.904 160.53 59.68C160.306 59.456 160.194 59.1787 160.194 58.848C160.194 58.5173 160.306 58.24 160.53 58.016C160.754 57.792 161.032 57.68 161.362 57.68C161.682 57.68 161.954 57.792 162.178 58.016C162.402 58.24 162.514 58.5173 162.514 58.848C162.514 59.1787 162.402 59.456 162.178 59.68C161.954 59.904 161.682 60.016 161.362 60.016ZM162.258 61.184V70H160.434V61.184H162.258ZM166.781 62.672V67.552C166.781 67.8827 166.856 68.1227 167.005 68.272C167.165 68.4107 167.432 68.48 167.805 68.48H168.925V70H167.485C166.664 70 166.034 69.808 165.597 69.424C165.16 69.04 164.941 68.416 164.941 67.552V62.672H163.901V61.184H164.941V58.992H166.781V61.184H168.925V62.672H166.781ZM174.155 65.584C174.155 64.6773 174.336 63.8827 174.699 63.2C175.072 62.5067 175.584 61.9733 176.235 61.6C176.885 61.2267 177.632 61.04 178.475 61.04C179.541 61.04 180.421 61.296 181.115 61.808C181.819 62.3093 182.293 63.0293 182.539 63.968H180.571C180.411 63.5307 180.155 63.1893 179.803 62.944C179.451 62.6987 179.008 62.576 178.475 62.576C177.728 62.576 177.131 62.8427 176.683 63.376C176.245 63.8987 176.027 64.6347 176.027 65.584C176.027 66.5333 176.245 67.2747 176.683 67.808C177.131 68.3413 177.728 68.608 178.475 68.608C179.531 68.608 180.229 68.144 180.571 67.216H182.539C182.283 68.112 181.803 68.8267 181.099 69.36C180.395 69.8827 179.52 70.144 178.475 70.144C177.632 70.144 176.885 69.9573 176.235 69.584C175.584 69.2 175.072 68.6667 174.699 67.984C174.336 67.2907 174.155 66.4907 174.155 65.584ZM183.748 65.552C183.748 64.6667 183.93 63.8827 184.292 63.2C184.666 62.5173 185.167 61.9893 185.796 61.616C186.436 61.232 187.14 61.04 187.908 61.04C188.602 61.04 189.204 61.1787 189.716 61.456C190.239 61.7227 190.655 62.0587 190.964 62.464V61.184H192.804V70H190.964V68.688C190.655 69.104 190.234 69.4507 189.7 69.728C189.167 70.0053 188.559 70.144 187.876 70.144C187.119 70.144 186.426 69.952 185.796 69.568C185.167 69.1733 184.666 68.6293 184.292 67.936C183.93 67.232 183.748 66.4373 183.748 65.552ZM190.964 65.584C190.964 64.976 190.836 64.448 190.58 64C190.335 63.552 190.01 63.2107 189.604 62.976C189.199 62.7413 188.762 62.624 188.292 62.624C187.823 62.624 187.386 62.7413 186.98 62.976C186.575 63.2 186.244 63.536 185.988 63.984C185.743 64.4213 185.62 64.944 185.62 65.552C185.62 66.16 185.743 66.6933 185.988 67.152C186.244 67.6107 186.575 67.9627 186.98 68.208C187.396 68.4427 187.834 68.56 188.292 68.56C188.762 68.56 189.199 68.4427 189.604 68.208C190.01 67.9733 190.335 67.632 190.58 67.184C190.836 66.7253 190.964 66.192 190.964 65.584ZM197.024 62.464C197.291 62.016 197.643 61.6693 198.08 61.424C198.528 61.168 199.056 61.04 199.664 61.04V62.928H199.2C198.485 62.928 197.941 63.1093 197.568 63.472C197.205 63.8347 197.024 64.464 197.024 65.36V70H195.2V61.184H197.024V62.464ZM200.733 65.552C200.733 64.6667 200.914 63.8827 201.277 63.2C201.65 62.5173 202.151 61.9893 202.781 61.616C203.421 61.232 204.13 61.04 204.909 61.04C205.485 61.04 206.05 61.168 206.605 61.424C207.17 61.6693 207.618 62 207.949 62.416V58.16H209.789V70H207.949V68.672C207.65 69.0987 207.234 69.4507 206.701 69.728C206.178 70.0053 205.575 70.144 204.893 70.144C204.125 70.144 203.421 69.952 202.781 69.568C202.151 69.1733 201.65 68.6293 201.277 67.936C200.914 67.232 200.733 66.4373 200.733 65.552ZM207.949 65.584C207.949 64.976 207.821 64.448 207.565 64C207.319 63.552 206.994 63.2107 206.589 62.976C206.183 62.7413 205.746 62.624 205.277 62.624C204.807 62.624 204.37 62.7413 203.965 62.976C203.559 63.2 203.229 63.536 202.973 63.984C202.727 64.4213 202.605 64.944 202.605 65.552C202.605 66.16 202.727 66.6933 202.973 67.152C203.229 67.6107 203.559 67.9627 203.965 68.208C204.381 68.4427 204.818 68.56 205.277 68.56C205.746 68.56 206.183 68.4427 206.589 68.208C206.994 67.9733 207.319 67.632 207.565 67.184C207.821 66.7253 207.949 66.192 207.949 65.584ZM218.469 62.672V67.552C218.469 67.8827 218.543 68.1227 218.693 68.272C218.853 68.4107 219.119 68.48 219.493 68.48H220.613V70H219.173C218.351 70 217.722 69.808 217.285 69.424C216.847 69.04 216.629 68.416 216.629 67.552V62.672H215.589V61.184H216.629V58.992H218.469V61.184H220.613V62.672H218.469ZM226.118 70.144C225.286 70.144 224.534 69.9573 223.862 69.584C223.19 69.2 222.662 68.6667 222.278 67.984C221.894 67.2907 221.702 66.4907 221.702 65.584C221.702 64.688 221.899 63.8933 222.294 63.2C222.688 62.5067 223.227 61.9733 223.91 61.6C224.592 61.2267 225.355 61.04 226.198 61.04C227.04 61.04 227.803 61.2267 228.486 61.6C229.168 61.9733 229.707 62.5067 230.102 63.2C230.496 63.8933 230.694 64.688 230.694 65.584C230.694 66.48 230.491 67.2747 230.086 67.968C229.68 68.6613 229.126 69.2 228.422 69.584C227.728 69.9573 226.96 70.144 226.118 70.144ZM226.118 68.56C226.587 68.56 227.024 68.448 227.43 68.224C227.846 68 228.182 67.664 228.438 67.216C228.694 66.768 228.822 66.224 228.822 65.584C228.822 64.944 228.699 64.4053 228.454 63.968C228.208 63.52 227.883 63.184 227.478 62.96C227.072 62.736 226.635 62.624 226.166 62.624C225.696 62.624 225.259 62.736 224.854 62.96C224.459 63.184 224.144 63.52 223.91 63.968C223.675 64.4053 223.558 64.944 223.558 65.584C223.558 66.5333 223.798 67.2693 224.278 67.792C224.768 68.304 225.382 68.56 226.118 68.56ZM238.477 62.496C238.786 62.0693 239.208 61.7227 239.741 61.456C240.285 61.1787 240.888 61.04 241.549 61.04C242.328 61.04 243.032 61.2267 243.661 61.6C244.29 61.9733 244.786 62.5067 245.149 63.2C245.512 63.8827 245.693 64.6667 245.693 65.552C245.693 66.4373 245.512 67.232 245.149 67.936C244.786 68.6293 244.285 69.1733 243.645 69.568C243.016 69.952 242.317 70.144 241.549 70.144C240.866 70.144 240.258 70.0107 239.725 69.744C239.202 69.4773 238.786 69.136 238.477 68.72V70H236.653V58.16H238.477V62.496ZM243.837 65.552C243.837 64.944 243.709 64.4213 243.453 63.984C243.208 63.536 242.877 63.2 242.461 62.976C242.056 62.7413 241.618 62.624 241.149 62.624C240.69 62.624 240.253 62.7413 239.837 62.976C239.432 63.2107 239.101 63.552 238.845 64C238.6 64.448 238.477 64.976 238.477 65.584C238.477 66.192 238.6 66.7253 238.845 67.184C239.101 67.632 239.432 67.9733 239.837 68.208C240.253 68.4427 240.69 68.56 241.149 68.56C241.618 68.56 242.056 68.4427 242.461 68.208C242.877 67.9627 243.208 67.6107 243.453 67.152C243.709 66.6933 243.837 66.16 243.837 65.552ZM246.889 65.552C246.889 64.6667 247.07 63.8827 247.433 63.2C247.806 62.5173 248.308 61.9893 248.937 61.616C249.577 61.232 250.281 61.04 251.049 61.04C251.742 61.04 252.345 61.1787 252.857 61.456C253.38 61.7227 253.796 62.0587 254.105 62.464V61.184H255.945V70H254.105V68.688C253.796 69.104 253.374 69.4507 252.841 69.728C252.308 70.0053 251.7 70.144 251.017 70.144C250.26 70.144 249.566 69.952 248.937 69.568C248.308 69.1733 247.806 68.6293 247.433 67.936C247.07 67.232 246.889 66.4373 246.889 65.552ZM254.105 65.584C254.105 64.976 253.977 64.448 253.721 64C253.476 63.552 253.15 63.2107 252.745 62.976C252.34 62.7413 251.902 62.624 251.433 62.624C250.964 62.624 250.526 62.7413 250.121 62.976C249.716 63.2 249.385 63.536 249.129 63.984C248.884 64.4213 248.761 64.944 248.761 65.552C248.761 66.16 248.884 66.6933 249.129 67.152C249.385 67.6107 249.716 67.9627 250.121 68.208C250.537 68.4427 250.974 68.56 251.433 68.56C251.902 68.56 252.34 68.4427 252.745 68.208C253.15 67.9733 253.476 67.632 253.721 67.184C253.977 66.7253 254.105 66.192 254.105 65.584ZM262.789 61.04C263.482 61.04 264.101 61.184 264.645 61.472C265.199 61.76 265.631 62.1867 265.941 62.752C266.25 63.3173 266.405 64 266.405 64.8V70H264.597V65.072C264.597 64.2827 264.399 63.68 264.005 63.264C263.61 62.8373 263.071 62.624 262.389 62.624C261.706 62.624 261.162 62.8373 260.757 63.264C260.362 63.68 260.165 64.2827 260.165 65.072V70H258.341V61.184H260.165V62.192C260.463 61.8293 260.842 61.5467 261.301 61.344C261.77 61.1413 262.266 61.04 262.789 61.04ZM272.219 65.6L276.283 70H273.819L270.555 66.208V70H268.731V58.16H270.555V65.04L273.755 61.184H276.283L272.219 65.6ZM120.592 89.552C120.592 88.6667 120.773 87.8827 121.136 87.2C121.509 86.5173 122.011 85.9893 122.64 85.616C123.28 85.232 123.984 85.04 124.752 85.04C125.445 85.04 126.048 85.1787 126.56 85.456C127.083 85.7227 127.499 86.0587 127.808 86.464V85.184H129.648V94H127.808V92.688C127.499 93.104 127.077 93.4507 126.544 93.728C126.011 94.0053 125.403 94.144 124.72 94.144C123.963 94.144 123.269 93.952 122.64 93.568C122.011 93.1733 121.509 92.6293 121.136 91.936C120.773 91.232 120.592 90.4373 120.592 89.552ZM127.808 89.584C127.808 88.976 127.68 88.448 127.424 88C127.179 87.552 126.853 87.2107 126.448 86.976C126.043 86.7413 125.605 86.624 125.136 86.624C124.667 86.624 124.229 86.7413 123.824 86.976C123.419 87.2 123.088 87.536 122.832 87.984C122.587 88.4213 122.464 88.944 122.464 89.552C122.464 90.16 122.587 90.6933 122.832 91.152C123.088 91.6107 123.419 91.9627 123.824 92.208C124.24 92.4427 124.677 92.56 125.136 92.56C125.605 92.56 126.043 92.4427 126.448 92.208C126.853 91.9733 127.179 91.632 127.424 91.184C127.68 90.7253 127.808 90.192 127.808 89.584ZM131.436 89.584C131.436 88.6773 131.617 87.8827 131.98 87.2C132.353 86.5067 132.865 85.9733 133.516 85.6C134.166 85.2267 134.913 85.04 135.756 85.04C136.822 85.04 137.702 85.296 138.396 85.808C139.1 86.3093 139.574 87.0293 139.82 87.968H137.852C137.692 87.5307 137.436 87.1893 137.084 86.944C136.732 86.6987 136.289 86.576 135.756 86.576C135.009 86.576 134.412 86.8427 133.964 87.376C133.526 87.8987 133.308 88.6347 133.308 89.584C133.308 90.5333 133.526 91.2747 133.964 91.808C134.412 92.3413 135.009 92.608 135.756 92.608C136.812 92.608 137.51 92.144 137.852 91.216H139.82C139.564 92.112 139.084 92.8267 138.38 93.36C137.676 93.8827 136.801 94.144 135.756 94.144C134.913 94.144 134.166 93.9573 133.516 93.584C132.865 93.2 132.353 92.6667 131.98 91.984C131.617 91.2907 131.436 90.4907 131.436 89.584ZM141.03 89.584C141.03 88.6773 141.211 87.8827 141.574 87.2C141.947 86.5067 142.459 85.9733 143.11 85.6C143.76 85.2267 144.507 85.04 145.35 85.04C146.416 85.04 147.296 85.296 147.99 85.808C148.694 86.3093 149.168 87.0293 149.414 87.968H147.446C147.286 87.5307 147.03 87.1893 146.678 86.944C146.326 86.6987 145.883 86.576 145.35 86.576C144.603 86.576 144.006 86.8427 143.558 87.376C143.12 87.8987 142.902 88.6347 142.902 89.584C142.902 90.5333 143.12 91.2747 143.558 91.808C144.006 92.3413 144.603 92.608 145.35 92.608C146.406 92.608 147.104 92.144 147.446 91.216H149.414C149.158 92.112 148.678 92.8267 147.974 93.36C147.27 93.8827 146.395 94.144 145.35 94.144C144.507 94.144 143.76 93.9573 143.11 93.584C142.459 93.2 141.947 92.6667 141.574 91.984C141.211 91.2907 141.03 90.4907 141.03 89.584ZM155.055 94.144C154.223 94.144 153.471 93.9573 152.799 93.584C152.127 93.2 151.599 92.6667 151.215 91.984C150.831 91.2907 150.639 90.4907 150.639 89.584C150.639 88.688 150.837 87.8933 151.231 87.2C151.626 86.5067 152.165 85.9733 152.847 85.6C153.53 85.2267 154.293 85.04 155.135 85.04C155.978 85.04 156.741 85.2267 157.423 85.6C158.106 85.9733 158.645 86.5067 159.039 87.2C159.434 87.8933 159.631 88.688 159.631 89.584C159.631 90.48 159.429 91.2747 159.023 91.968C158.618 92.6613 158.063 93.2 157.359 93.584C156.666 93.9573 155.898 94.144 155.055 94.144ZM155.055 92.56C155.525 92.56 155.962 92.448 156.367 92.224C156.783 92 157.119 91.664 157.375 91.216C157.631 90.768 157.759 90.224 157.759 89.584C157.759 88.944 157.637 88.4053 157.391 87.968C157.146 87.52 156.821 87.184 156.415 86.96C156.01 86.736 155.573 86.624 155.103 86.624C154.634 86.624 154.197 86.736 153.791 86.96C153.397 87.184 153.082 87.52 152.847 87.968C152.613 88.4053 152.495 88.944 152.495 89.584C152.495 90.5333 152.735 91.2693 153.215 91.792C153.706 92.304 154.319 92.56 155.055 92.56ZM169.418 85.184V94H167.594V92.96C167.306 93.3227 166.928 93.6107 166.458 93.824C166 94.0267 165.509 94.128 164.986 94.128C164.293 94.128 163.669 93.984 163.114 93.696C162.57 93.408 162.138 92.9813 161.818 92.416C161.509 91.8507 161.354 91.168 161.354 90.368V85.184H163.162V90.096C163.162 90.8853 163.36 91.4933 163.754 91.92C164.149 92.336 164.688 92.544 165.37 92.544C166.053 92.544 166.592 92.336 166.986 91.92C167.392 91.4933 167.594 90.8853 167.594 90.096V85.184H169.418ZM176.273 85.04C176.966 85.04 177.585 85.184 178.129 85.472C178.684 85.76 179.116 86.1867 179.425 86.752C179.734 87.3173 179.889 88 179.889 88.8V94H178.081V89.072C178.081 88.2827 177.884 87.68 177.489 87.264C177.094 86.8373 176.556 86.624 175.873 86.624C175.19 86.624 174.646 86.8373 174.241 87.264C173.846 87.68 173.649 88.2827 173.649 89.072V94H171.825V85.184H173.649V86.192C173.948 85.8293 174.326 85.5467 174.785 85.344C175.254 85.1413 175.75 85.04 176.273 85.04ZM184.344 86.672V91.552C184.344 91.8827 184.418 92.1227 184.568 92.272C184.728 92.4107 184.994 92.48 185.368 92.48H186.488V94H185.048C184.226 94 183.597 93.808 183.16 93.424C182.722 93.04 182.504 92.416 182.504 91.552V86.672H181.464V85.184H182.504V82.992H184.344V85.184H186.488V86.672H184.344ZM191.717 89.552C191.717 88.6667 191.898 87.8827 192.261 87.2C192.634 86.5173 193.136 85.9893 193.765 85.616C194.405 85.232 195.109 85.04 195.877 85.04C196.57 85.04 197.173 85.1787 197.685 85.456C198.208 85.7227 198.624 86.0587 198.933 86.464V85.184H200.773V94H198.933V92.688C198.624 93.104 198.202 93.4507 197.669 93.728C197.136 94.0053 196.528 94.144 195.845 94.144C195.088 94.144 194.394 93.952 193.765 93.568C193.136 93.1733 192.634 92.6293 192.261 91.936C191.898 91.232 191.717 90.4373 191.717 89.552ZM198.933 89.584C198.933 88.976 198.805 88.448 198.549 88C198.304 87.552 197.978 87.2107 197.573 86.976C197.168 86.7413 196.73 86.624 196.261 86.624C195.792 86.624 195.354 86.7413 194.949 86.976C194.544 87.2 194.213 87.536 193.957 87.984C193.712 88.4213 193.589 88.944 193.589 89.552C193.589 90.16 193.712 90.6933 193.957 91.152C194.213 91.6107 194.544 91.9627 194.949 92.208C195.365 92.4427 195.802 92.56 196.261 92.56C196.73 92.56 197.168 92.4427 197.573 92.208C197.978 91.9733 198.304 91.632 198.549 91.184C198.805 90.7253 198.933 90.192 198.933 89.584ZM205.297 86.672V91.552C205.297 91.8827 205.371 92.1227 205.521 92.272C205.681 92.4107 205.947 92.48 206.321 92.48H207.441V94H206.001C205.179 94 204.55 93.808 204.113 93.424C203.675 93.04 203.457 92.416 203.457 91.552V86.672H202.417V85.184H203.457V82.992H205.297V85.184H207.441V86.672H205.297ZM212.798 84V82.336H216.126V94H214.286V84H212.798ZM218.344 85.152C218.344 84.3733 218.568 83.7653 219.016 83.328C219.475 82.88 220.061 82.656 220.776 82.656C221.491 82.656 222.072 82.88 222.52 83.328C222.979 83.7653 223.208 84.3733 223.208 85.152C223.208 85.9307 222.979 86.544 222.52 86.992C222.072 87.44 221.491 87.664 220.776 87.664C220.061 87.664 219.475 87.44 219.016 86.992C218.568 86.544 218.344 85.9307 218.344 85.152ZM228.104 82.864L221.72 94H219.928L226.312 82.864H228.104ZM220.776 83.76C220.104 83.76 219.768 84.224 219.768 85.152C219.768 86.0907 220.104 86.56 220.776 86.56C221.096 86.56 221.341 86.448 221.512 86.224C221.693 85.9893 221.784 85.632 221.784 85.152C221.784 84.224 221.448 83.76 220.776 83.76ZM224.856 91.696C224.856 90.9173 225.08 90.3093 225.528 89.872C225.987 89.424 226.573 89.2 227.288 89.2C227.992 89.2 228.568 89.424 229.016 89.872C229.475 90.3093 229.704 90.9173 229.704 91.696C229.704 92.4747 229.475 93.088 229.016 93.536C228.568 93.984 227.992 94.208 227.288 94.208C226.573 94.208 225.987 93.984 225.528 93.536C225.08 93.088 224.856 92.4747 224.856 91.696ZM227.272 90.304C226.6 90.304 226.264 90.768 226.264 91.696C226.264 92.624 226.6 93.088 227.272 93.088C227.944 93.088 228.28 92.624 228.28 91.696C228.28 90.768 227.944 90.304 227.272 90.304Z" fill="#01154C"/>
</g>
<defs>
<filter id="filter0_d_881_86" x="0" y="0" width="360" height="160" filterUnits="userSpaceOnUse" color-interpolation-filters="sRGB">
<feFlood flood-opacity="0" result="BackgroundImageFix"/>
<feColorMatrix in="SourceAlpha" type="matrix" values="0 0 0 0 0 0 0 0 0 0 0 0 0 0 0 0 0 0 127 0" result="hardAlpha"/>
<feOffset dx="4" dy="4"/>
<feGaussianBlur stdDeviation="24"/>
<feComposite in2="hardAlpha" operator="out"/>
<feColorMatrix type="matrix" values="0 0 0 0 0 0 0 0 0 0 0 0 0 0 0 0 0 0 0.1 0"/>
<feBlend mode="normal" in2="BackgroundImageFix" result="effect1_dropShadow_881_86"/>
<feBlend mode="normal" in="SourceGraphic" in2="effect1_dropShadow_881_86" result="shape"/>
</filter>
</defs>
</svg>
