<svg width="352" height="168" viewBox="0 0 352 168" fill="none" xmlns="http://www.w3.org/2000/svg">
<g filter="url(#filter0_d_1839_2233)">
<rect x="44" y="44" width="284" height="72" rx="36" fill="white"/>
<rect x="52" y="50" width="60" height="60" rx="30" fill="#E6EDFF"/>
<path d="M101.203 64.6285V80.069C101.203 80.5086 100.847 80.8655 100.406 80.8655H79.405C78.9654 80.8655 78.6084 80.5086 78.6084 80.069V78.8493L80.2016 77.7813V79.2724H99.6083V65.4237H80.2002V71.2517C80.1299 71.3055 80.0541 71.3523 79.9879 71.413L79.7647 71.5673C79.496 70.8645 79.0867 70.3105 78.6084 69.8557V64.6285C78.6084 64.1889 78.9668 63.8319 79.405 63.8319H100.406C100.847 63.8319 101.203 64.1875 101.203 64.6285ZM82.3983 75.0939L83.3519 74.4545H83.3506C83.3519 74.449 83.3547 74.449 83.3575 74.4449C83.8426 73.9639 83.917 73.2486 83.6165 72.685L91.3327 67.4495L90.9826 66.9327L83.2017 72.2109C82.9578 72.0345 82.6849 71.9229 82.3983 71.9132C81.9904 71.8995 81.5755 72.0373 81.2641 72.3501C81.2641 72.3501 81.2572 72.3584 81.2544 72.3584L81.0643 72.4907L79.3361 73.6703V73.1687C79.015 69.3527 74.5926 69.4092 74.5926 69.4092H72.677L71.0674 72.0579L69.4494 69.4106H67.6124C62.6222 69.5043 62.7986 73.1687 62.7986 73.1687V81.7213H62.8014C62.8028 81.7434 62.7986 81.7696 62.7986 81.7875C62.7986 82.602 63.456 83.2566 64.2677 83.2566C65.0767 83.2566 65.734 82.5992 65.734 81.7875C65.734 81.7696 65.734 81.7434 65.7313 81.7213H65.734V73.8109H66.6519L66.6408 98.7315C66.6408 99.8271 67.5311 100.717 68.6226 100.717C69.7182 100.717 70.6057 99.8271 70.6057 98.7315V82.6488H71.4891V98.7494L71.5056 98.7673C71.5194 99.8437 72.3959 100.717 73.4791 100.717C74.5664 100.717 75.4512 99.8313 75.4512 98.7439L75.4457 73.7696H76.4007V76.3715C76.4007 76.3742 76.4007 76.3811 76.4007 76.3839C76.4007 77.1928 77.0581 77.8516 77.8656 77.8516C78.1041 77.8516 78.3177 77.784 78.5202 77.6793L78.5271 77.689L81.0629 75.9884L82.3983 75.0939ZM71.0384 68.7725C72.8934 68.7725 74.3969 67.269 74.3969 65.414C74.3969 63.5591 72.8934 62.0555 71.0384 62.0555C69.1835 62.0555 67.6799 63.5604 67.6799 65.414C67.6799 67.2676 69.1835 68.7725 71.0384 68.7725Z" fill="#1C59FC"/>
<path d="M122.864 74.112C122.117 74.112 121.445 73.984 120.848 73.728C120.251 73.4613 119.781 73.088 119.44 72.608C119.099 72.128 118.928 71.568 118.928 70.928H120.88C120.923 71.408 121.109 71.8027 121.44 72.112C121.781 72.4213 122.256 72.576 122.864 72.576C123.493 72.576 123.984 72.4267 124.336 72.128C124.688 71.8187 124.864 71.424 124.864 70.944C124.864 70.5707 124.752 70.2667 124.528 70.032C124.315 69.7973 124.043 69.616 123.712 69.488C123.392 69.36 122.944 69.2213 122.368 69.072C121.643 68.88 121.051 68.688 120.592 68.496C120.144 68.2933 119.76 67.984 119.44 67.568C119.12 67.152 118.96 66.5973 118.96 65.904C118.96 65.264 119.12 64.704 119.44 64.224C119.76 63.744 120.208 63.376 120.784 63.12C121.36 62.864 122.027 62.736 122.784 62.736C123.861 62.736 124.741 63.008 125.424 63.552C126.117 64.0853 126.501 64.8213 126.576 65.76H124.56C124.528 65.3547 124.336 65.008 123.984 64.72C123.632 64.432 123.168 64.288 122.592 64.288C122.069 64.288 121.643 64.4213 121.312 64.688C120.981 64.9547 120.816 65.3387 120.816 65.84C120.816 66.1813 120.917 66.464 121.12 66.688C121.333 66.9013 121.6 67.072 121.92 67.2C122.24 67.328 122.677 67.4667 123.232 67.616C123.968 67.8187 124.565 68.0213 125.024 68.224C125.493 68.4267 125.888 68.7413 126.208 69.168C126.539 69.584 126.704 70.144 126.704 70.848C126.704 71.4133 126.549 71.9467 126.24 72.448C125.941 72.9493 125.499 73.3547 124.912 73.664C124.336 73.9627 123.653 74.112 122.864 74.112ZM128.248 69.584C128.248 68.6773 128.43 67.8827 128.792 67.2C129.166 66.5067 129.678 65.9733 130.328 65.6C130.979 65.2267 131.726 65.04 132.568 65.04C133.635 65.04 134.515 65.296 135.208 65.808C135.912 66.3093 136.387 67.0293 136.632 67.968H134.664C134.504 67.5307 134.248 67.1893 133.896 66.944C133.544 66.6987 133.102 66.576 132.568 66.576C131.822 66.576 131.224 66.8427 130.776 67.376C130.339 67.8987 130.12 68.6347 130.12 69.584C130.12 70.5333 130.339 71.2747 130.776 71.808C131.224 72.3413 131.822 72.608 132.568 72.608C133.624 72.608 134.323 72.144 134.664 71.216H136.632C136.376 72.112 135.896 72.8267 135.192 73.36C134.488 73.8827 133.614 74.144 132.568 74.144C131.726 74.144 130.979 73.9573 130.328 73.584C129.678 73.2 129.166 72.6667 128.792 71.984C128.43 71.2907 128.248 70.4907 128.248 69.584ZM143.01 65.04C143.682 65.04 144.279 65.184 144.802 65.472C145.335 65.76 145.751 66.1867 146.05 66.752C146.359 67.3173 146.514 68 146.514 68.8V74H144.706V69.072C144.706 68.2827 144.509 67.68 144.114 67.264C143.719 66.8373 143.181 66.624 142.498 66.624C141.815 66.624 141.271 66.8373 140.866 67.264C140.471 67.68 140.274 68.2827 140.274 69.072V74H138.45V62.16H140.274V66.208C140.583 65.8347 140.973 65.5467 141.442 65.344C141.922 65.1413 142.445 65.04 143.01 65.04ZM156.921 69.376C156.921 69.7067 156.899 70.0053 156.857 70.272H150.121C150.174 70.976 150.435 71.5413 150.905 71.968C151.374 72.3947 151.95 72.608 152.633 72.608C153.614 72.608 154.307 72.1973 154.713 71.376H156.681C156.414 72.1867 155.929 72.8533 155.225 73.376C154.531 73.888 153.667 74.144 152.633 74.144C151.79 74.144 151.033 73.9573 150.361 73.584C149.699 73.2 149.177 72.6667 148.793 71.984C148.419 71.2907 148.233 70.4907 148.233 69.584C148.233 68.6773 148.414 67.8827 148.777 67.2C149.15 66.5067 149.667 65.9733 150.329 65.6C151.001 65.2267 151.769 65.04 152.633 65.04C153.465 65.04 154.206 65.2213 154.857 65.584C155.507 65.9467 156.014 66.4587 156.377 67.12C156.739 67.7707 156.921 68.5227 156.921 69.376ZM155.017 68.8C155.006 68.128 154.766 67.5893 154.297 67.184C153.827 66.7787 153.246 66.576 152.553 66.576C151.923 66.576 151.385 66.7787 150.937 67.184C150.489 67.5787 150.222 68.1173 150.137 68.8H155.017ZM158.108 69.552C158.108 68.6667 158.289 67.8827 158.652 67.2C159.025 66.5173 159.526 65.9893 160.156 65.616C160.796 65.232 161.505 65.04 162.284 65.04C162.86 65.04 163.425 65.168 163.98 65.424C164.545 65.6693 164.993 66 165.324 66.416V62.16H167.164V74H165.324V72.672C165.025 73.0987 164.609 73.4507 164.076 73.728C163.553 74.0053 162.95 74.144 162.268 74.144C161.5 74.144 160.796 73.952 160.156 73.568C159.526 73.1733 159.025 72.6293 158.652 71.936C158.289 71.232 158.108 70.4373 158.108 69.552ZM165.324 69.584C165.324 68.976 165.196 68.448 164.94 68C164.694 67.552 164.369 67.2107 163.964 66.976C163.558 66.7413 163.121 66.624 162.652 66.624C162.182 66.624 161.745 66.7413 161.34 66.976C160.934 67.2 160.604 67.536 160.348 67.984C160.102 68.4213 159.98 68.944 159.98 69.552C159.98 70.16 160.102 70.6933 160.348 71.152C160.604 71.6107 160.934 71.9627 161.34 72.208C161.756 72.4427 162.193 72.56 162.652 72.56C163.121 72.56 163.558 72.4427 163.964 72.208C164.369 71.9733 164.694 71.632 164.94 71.184C165.196 70.7253 165.324 70.192 165.324 69.584ZM177.543 65.184V74H175.719V72.96C175.431 73.3227 175.053 73.6107 174.583 73.824C174.125 74.0267 173.634 74.128 173.111 74.128C172.418 74.128 171.794 73.984 171.239 73.696C170.695 73.408 170.263 72.9813 169.943 72.416C169.634 71.8507 169.479 71.168 169.479 70.368V65.184H171.287V70.096C171.287 70.8853 171.485 71.4933 171.879 71.92C172.274 72.336 172.813 72.544 173.495 72.544C174.178 72.544 174.717 72.336 175.111 71.92C175.517 71.4933 175.719 70.8853 175.719 70.096V65.184H177.543ZM181.774 62.16V74H179.95V62.16H181.774ZM192.249 69.376C192.249 69.7067 192.227 70.0053 192.185 70.272H185.449C185.502 70.976 185.763 71.5413 186.233 71.968C186.702 72.3947 187.278 72.608 187.961 72.608C188.942 72.608 189.635 72.1973 190.041 71.376H192.009C191.742 72.1867 191.257 72.8533 190.553 73.376C189.859 73.888 188.995 74.144 187.961 74.144C187.118 74.144 186.361 73.9573 185.689 73.584C185.027 73.2 184.505 72.6667 184.121 71.984C183.747 71.2907 183.561 70.4907 183.561 69.584C183.561 68.6773 183.742 67.8827 184.105 67.2C184.478 66.5067 184.995 65.9733 185.657 65.6C186.329 65.2267 187.097 65.04 187.961 65.04C188.793 65.04 189.534 65.2213 190.185 65.584C190.835 65.9467 191.342 66.4587 191.705 67.12C192.067 67.7707 192.249 68.5227 192.249 69.376ZM190.345 68.8C190.334 68.128 190.094 67.5893 189.625 67.184C189.155 66.7787 188.574 66.576 187.881 66.576C187.251 66.576 186.713 66.7787 186.265 67.184C185.817 67.5787 185.55 68.1173 185.465 68.8H190.345ZM197.592 69.584C197.592 68.6773 197.773 67.8827 198.136 67.2C198.509 66.5067 199.021 65.9733 199.672 65.6C200.323 65.2267 201.069 65.04 201.912 65.04C202.979 65.04 203.859 65.296 204.552 65.808C205.256 66.3093 205.731 67.0293 205.976 67.968H204.008C203.848 67.5307 203.592 67.1893 203.24 66.944C202.888 66.6987 202.445 66.576 201.912 66.576C201.165 66.576 200.568 66.8427 200.12 67.376C199.683 67.8987 199.464 68.6347 199.464 69.584C199.464 70.5333 199.683 71.2747 200.12 71.808C200.568 72.3413 201.165 72.608 201.912 72.608C202.968 72.608 203.667 72.144 204.008 71.216H205.976C205.72 72.112 205.24 72.8267 204.536 73.36C203.832 73.8827 202.957 74.144 201.912 74.144C201.069 74.144 200.323 73.9573 199.672 73.584C199.021 73.2 198.509 72.6667 198.136 71.984C197.773 71.2907 197.592 70.4907 197.592 69.584ZM209.618 62.16V74H207.794V62.16H209.618ZM211.405 69.552C211.405 68.6667 211.586 67.8827 211.949 67.2C212.322 66.5173 212.823 65.9893 213.453 65.616C214.093 65.232 214.797 65.04 215.565 65.04C216.258 65.04 216.861 65.1787 217.373 65.456C217.895 65.7227 218.311 66.0587 218.621 66.464V65.184H220.461V74H218.621V72.688C218.311 73.104 217.89 73.4507 217.357 73.728C216.823 74.0053 216.215 74.144 215.533 74.144C214.775 74.144 214.082 73.952 213.453 73.568C212.823 73.1733 212.322 72.6293 211.949 71.936C211.586 71.232 211.405 70.4373 211.405 69.552ZM218.621 69.584C218.621 68.976 218.493 68.448 218.237 68C217.991 67.552 217.666 67.2107 217.261 66.976C216.855 66.7413 216.418 66.624 215.949 66.624C215.479 66.624 215.042 66.7413 214.637 66.976C214.231 67.2 213.901 67.536 213.645 67.984C213.399 68.4213 213.277 68.944 213.277 69.552C213.277 70.16 213.399 70.6933 213.645 71.152C213.901 71.6107 214.231 71.9627 214.637 72.208C215.053 72.4427 215.49 72.56 215.949 72.56C216.418 72.56 216.855 72.4427 217.261 72.208C217.666 71.9733 217.991 71.632 218.237 71.184C218.493 70.7253 218.621 70.192 218.621 69.584ZM226.056 74.144C225.363 74.144 224.739 74.0213 224.184 73.776C223.64 73.52 223.208 73.1787 222.888 72.752C222.568 72.3147 222.398 71.8293 222.376 71.296H224.264C224.296 71.6693 224.472 71.984 224.792 72.24C225.123 72.4853 225.534 72.608 226.024 72.608C226.536 72.608 226.931 72.512 227.208 72.32C227.496 72.1173 227.64 71.8613 227.64 71.552C227.64 71.2213 227.48 70.976 227.16 70.816C226.851 70.656 226.355 70.48 225.672 70.288C225.011 70.1067 224.472 69.9307 224.056 69.76C223.64 69.5893 223.278 69.328 222.968 68.976C222.67 68.624 222.52 68.16 222.52 67.584C222.52 67.1147 222.659 66.688 222.936 66.304C223.214 65.9093 223.608 65.6 224.12 65.376C224.643 65.152 225.24 65.04 225.912 65.04C226.915 65.04 227.72 65.296 228.328 65.808C228.947 66.3093 229.278 66.9973 229.32 67.872H227.496C227.464 67.4773 227.304 67.1627 227.016 66.928C226.728 66.6933 226.339 66.576 225.848 66.576C225.368 66.576 225 66.6667 224.744 66.848C224.488 67.0293 224.36 67.2693 224.36 67.568C224.36 67.8027 224.446 68 224.616 68.16C224.787 68.32 224.995 68.448 225.24 68.544C225.486 68.6293 225.848 68.7413 226.328 68.88C226.968 69.0507 227.491 69.2267 227.896 69.408C228.312 69.5787 228.67 69.8347 228.968 70.176C229.267 70.5173 229.422 70.9707 229.432 71.536C229.432 72.0373 229.294 72.4853 229.016 72.88C228.739 73.2747 228.344 73.584 227.832 73.808C227.331 74.032 226.739 74.144 226.056 74.144ZM234.603 74.144C233.91 74.144 233.286 74.0213 232.731 73.776C232.187 73.52 231.755 73.1787 231.435 72.752C231.115 72.3147 230.944 71.8293 230.923 71.296H232.811C232.843 71.6693 233.019 71.984 233.339 72.24C233.67 72.4853 234.08 72.608 234.571 72.608C235.083 72.608 235.478 72.512 235.755 72.32C236.043 72.1173 236.187 71.8613 236.187 71.552C236.187 71.2213 236.027 70.976 235.707 70.816C235.398 70.656 234.902 70.48 234.219 70.288C233.558 70.1067 233.019 69.9307 232.603 69.76C232.187 69.5893 231.824 69.328 231.515 68.976C231.216 68.624 231.067 68.16 231.067 67.584C231.067 67.1147 231.206 66.688 231.483 66.304C231.76 65.9093 232.155 65.6 232.667 65.376C233.19 65.152 233.787 65.04 234.459 65.04C235.462 65.04 236.267 65.296 236.875 65.808C237.494 66.3093 237.824 66.9973 237.867 67.872H236.043C236.011 67.4773 235.851 67.1627 235.563 66.928C235.275 66.6933 234.886 66.576 234.395 66.576C233.915 66.576 233.547 66.6667 233.291 66.848C233.035 67.0293 232.907 67.2693 232.907 67.568C232.907 67.8027 232.992 68 233.163 68.16C233.334 68.32 233.542 68.448 233.787 68.544C234.032 68.6293 234.395 68.7413 234.875 68.88C235.515 69.0507 236.038 69.2267 236.443 69.408C236.859 69.5787 237.216 69.8347 237.515 70.176C237.814 70.5173 237.968 70.9707 237.979 71.536C237.979 72.0373 237.84 72.4853 237.563 72.88C237.286 73.2747 236.891 73.584 236.379 73.808C235.878 74.032 235.286 74.144 234.603 74.144ZM248.03 69.376C248.03 69.7067 248.009 70.0053 247.966 70.272H241.23C241.283 70.976 241.545 71.5413 242.014 71.968C242.483 72.3947 243.059 72.608 243.742 72.608C244.723 72.608 245.417 72.1973 245.822 71.376H247.79C247.523 72.1867 247.038 72.8533 246.334 73.376C245.641 73.888 244.777 74.144 243.742 74.144C242.899 74.144 242.142 73.9573 241.47 73.584C240.809 73.2 240.286 72.6667 239.902 71.984C239.529 71.2907 239.342 70.4907 239.342 69.584C239.342 68.6773 239.523 67.8827 239.886 67.2C240.259 66.5067 240.777 65.9733 241.438 65.6C242.11 65.2267 242.878 65.04 243.742 65.04C244.574 65.04 245.315 65.2213 245.966 65.584C246.617 65.9467 247.123 66.4587 247.486 67.12C247.849 67.7707 248.03 68.5227 248.03 69.376ZM246.126 68.8C246.115 68.128 245.875 67.5893 245.406 67.184C244.937 66.7787 244.355 66.576 243.662 66.576C243.033 66.576 242.494 66.7787 242.046 67.184C241.598 67.5787 241.331 68.1173 241.246 68.8H246.126ZM253.025 74.144C252.332 74.144 251.708 74.0213 251.153 73.776C250.609 73.52 250.177 73.1787 249.857 72.752C249.537 72.3147 249.366 71.8293 249.345 71.296H251.233C251.265 71.6693 251.441 71.984 251.761 72.24C252.092 72.4853 252.502 72.608 252.993 72.608C253.505 72.608 253.9 72.512 254.177 72.32C254.465 72.1173 254.609 71.8613 254.609 71.552C254.609 71.2213 254.449 70.976 254.129 70.816C253.82 70.656 253.324 70.48 252.641 70.288C251.98 70.1067 251.441 69.9307 251.025 69.76C250.609 69.5893 250.246 69.328 249.937 68.976C249.638 68.624 249.489 68.16 249.489 67.584C249.489 67.1147 249.628 66.688 249.905 66.304C250.182 65.9093 250.577 65.6 251.089 65.376C251.612 65.152 252.209 65.04 252.881 65.04C253.884 65.04 254.689 65.296 255.297 65.808C255.916 66.3093 256.246 66.9973 256.289 67.872H254.465C254.433 67.4773 254.273 67.1627 253.985 66.928C253.697 66.6933 253.308 66.576 252.817 66.576C252.337 66.576 251.969 66.6667 251.713 66.848C251.457 67.0293 251.329 67.2693 251.329 67.568C251.329 67.8027 251.414 68 251.585 68.16C251.756 68.32 251.964 68.448 252.209 68.544C252.454 68.6293 252.817 68.7413 253.297 68.88C253.937 69.0507 254.46 69.2267 254.865 69.408C255.281 69.5787 255.638 69.8347 255.937 70.176C256.236 70.5173 256.39 70.9707 256.401 71.536C256.401 72.0373 256.262 72.4853 255.985 72.88C255.708 73.2747 255.313 73.584 254.801 73.808C254.3 74.032 253.708 74.144 253.025 74.144ZM274.368 65.184L271.632 74H269.712L267.936 67.488L266.16 74H264.24L261.488 65.184H263.344L265.184 72.272L267.056 65.184H268.96L270.752 72.24L272.576 65.184H274.368ZM276.659 64.016C276.329 64.016 276.051 63.904 275.827 63.68C275.603 63.456 275.491 63.1787 275.491 62.848C275.491 62.5173 275.603 62.24 275.827 62.016C276.051 61.792 276.329 61.68 276.659 61.68C276.979 61.68 277.251 61.792 277.475 62.016C277.699 62.24 277.811 62.5173 277.811 62.848C277.811 63.1787 277.699 63.456 277.475 63.68C277.251 63.904 276.979 64.016 276.659 64.016ZM277.555 65.184V74H275.731V65.184H277.555ZM282.078 66.672V71.552C282.078 71.8827 282.153 72.1227 282.302 72.272C282.462 72.4107 282.729 72.48 283.102 72.48H284.222V74H282.782C281.961 74 281.331 73.808 280.894 73.424C280.457 73.04 280.238 72.416 280.238 71.552V66.672H279.198V65.184H280.238V62.992H282.078V65.184H284.222V66.672H282.078ZM290.463 65.04C291.135 65.04 291.732 65.184 292.255 65.472C292.788 65.76 293.204 66.1867 293.503 66.752C293.812 67.3173 293.967 68 293.967 68.8V74H292.159V69.072C292.159 68.2827 291.962 67.68 291.567 67.264C291.172 66.8373 290.634 66.624 289.951 66.624C289.268 66.624 288.724 66.8373 288.319 67.264C287.924 67.68 287.727 68.2827 287.727 69.072V74H285.903V62.16H287.727V66.208C288.036 65.8347 288.426 65.5467 288.895 65.344C289.375 65.1413 289.898 65.04 290.463 65.04ZM122.4 98.144C121.707 98.144 121.083 98.0213 120.528 97.776C119.984 97.52 119.552 97.1787 119.232 96.752C118.912 96.3147 118.741 95.8293 118.72 95.296H120.608C120.64 95.6693 120.816 95.984 121.136 96.24C121.467 96.4853 121.877 96.608 122.368 96.608C122.88 96.608 123.275 96.512 123.552 96.32C123.84 96.1173 123.984 95.8613 123.984 95.552C123.984 95.2213 123.824 94.976 123.504 94.816C123.195 94.656 122.699 94.48 122.016 94.288C121.355 94.1067 120.816 93.9307 120.4 93.76C119.984 93.5893 119.621 93.328 119.312 92.976C119.013 92.624 118.864 92.16 118.864 91.584C118.864 91.1147 119.003 90.688 119.28 90.304C119.557 89.9093 119.952 89.6 120.464 89.376C120.987 89.152 121.584 89.04 122.256 89.04C123.259 89.04 124.064 89.296 124.672 89.808C125.291 90.3093 125.621 90.9973 125.664 91.872H123.84C123.808 91.4773 123.648 91.1627 123.36 90.928C123.072 90.6933 122.683 90.576 122.192 90.576C121.712 90.576 121.344 90.6667 121.088 90.848C120.832 91.0293 120.704 91.2693 120.704 91.568C120.704 91.8027 120.789 92 120.96 92.16C121.131 92.32 121.339 92.448 121.584 92.544C121.829 92.6293 122.192 92.7413 122.672 92.88C123.312 93.0507 123.835 93.2267 124.24 93.408C124.656 93.5787 125.013 93.8347 125.312 94.176C125.611 94.5173 125.765 94.9707 125.776 95.536C125.776 96.0373 125.637 96.4853 125.36 96.88C125.083 97.2747 124.688 97.584 124.176 97.808C123.675 98.032 123.083 98.144 122.4 98.144ZM129.875 90.672V95.552C129.875 95.8827 129.95 96.1227 130.099 96.272C130.259 96.4107 130.526 96.48 130.899 96.48H132.019V98H130.579C129.758 98 129.128 97.808 128.691 97.424C128.254 97.04 128.035 96.416 128.035 95.552V90.672H126.995V89.184H128.035V86.992H129.875V89.184H132.019V90.672H129.875ZM141.684 89.184V98H139.86V96.96C139.572 97.3227 139.193 97.6107 138.724 97.824C138.265 98.0267 137.775 98.128 137.252 98.128C136.559 98.128 135.935 97.984 135.38 97.696C134.836 97.408 134.404 96.9813 134.084 96.416C133.775 95.8507 133.62 95.168 133.62 94.368V89.184H135.428V94.096C135.428 94.8853 135.625 95.4933 136.02 95.92C136.415 96.336 136.953 96.544 137.636 96.544C138.319 96.544 138.857 96.336 139.252 95.92C139.657 95.4933 139.86 94.8853 139.86 94.096V89.184H141.684ZM143.483 93.552C143.483 92.6667 143.664 91.8827 144.027 91.2C144.4 90.5173 144.901 89.9893 145.531 89.616C146.171 89.232 146.88 89.04 147.659 89.04C148.235 89.04 148.8 89.168 149.355 89.424C149.92 89.6693 150.368 90 150.699 90.416V86.16H152.539V98H150.699V96.672C150.4 97.0987 149.984 97.4507 149.451 97.728C148.928 98.0053 148.325 98.144 147.643 98.144C146.875 98.144 146.171 97.952 145.531 97.568C144.901 97.1733 144.4 96.6293 144.027 95.936C143.664 95.232 143.483 94.4373 143.483 93.552ZM150.699 93.584C150.699 92.976 150.571 92.448 150.315 92C150.069 91.552 149.744 91.2107 149.339 90.976C148.933 90.7413 148.496 90.624 148.027 90.624C147.557 90.624 147.12 90.7413 146.715 90.976C146.309 91.2 145.979 91.536 145.723 91.984C145.477 92.4213 145.355 92.944 145.355 93.552C145.355 94.16 145.477 94.6933 145.723 95.152C145.979 95.6107 146.309 95.9627 146.715 96.208C147.131 96.4427 147.568 96.56 148.027 96.56C148.496 96.56 148.933 96.4427 149.339 96.208C149.744 95.9733 150.069 95.632 150.315 95.184C150.571 94.7253 150.699 94.192 150.699 93.584ZM163.014 93.376C163.014 93.7067 162.993 94.0053 162.95 94.272H156.214C156.268 94.976 156.529 95.5413 156.998 95.968C157.468 96.3947 158.044 96.608 158.726 96.608C159.708 96.608 160.401 96.1973 160.806 95.376H162.774C162.508 96.1867 162.022 96.8533 161.318 97.376C160.625 97.888 159.761 98.144 158.726 98.144C157.884 98.144 157.126 97.9573 156.454 97.584C155.793 97.2 155.27 96.6667 154.886 95.984C154.513 95.2907 154.326 94.4907 154.326 93.584C154.326 92.6773 154.508 91.8827 154.87 91.2C155.244 90.5067 155.761 89.9733 156.422 89.6C157.094 89.2267 157.862 89.04 158.726 89.04C159.558 89.04 160.3 89.2213 160.95 89.584C161.601 89.9467 162.108 90.4587 162.47 91.12C162.833 91.7707 163.014 92.5227 163.014 93.376ZM161.11 92.8C161.1 92.128 160.86 91.5893 160.39 91.184C159.921 90.7787 159.34 90.576 158.646 90.576C158.017 90.576 157.478 90.7787 157.03 91.184C156.582 91.5787 156.316 92.1173 156.23 92.8H161.11ZM169.257 89.04C169.951 89.04 170.569 89.184 171.113 89.472C171.668 89.76 172.1 90.1867 172.409 90.752C172.719 91.3173 172.873 92 172.873 92.8V98H171.065V93.072C171.065 92.2827 170.868 91.68 170.473 91.264C170.079 90.8373 169.54 90.624 168.857 90.624C168.175 90.624 167.631 90.8373 167.225 91.264C166.831 91.68 166.633 92.2827 166.633 93.072V98H164.809V89.184H166.633V90.192C166.932 89.8293 167.311 89.5467 167.769 89.344C168.239 89.1413 168.735 89.04 169.257 89.04ZM177.328 90.672V95.552C177.328 95.8827 177.403 96.1227 177.552 96.272C177.712 96.4107 177.979 96.48 178.352 96.48H179.472V98H178.032C177.211 98 176.581 97.808 176.144 97.424C175.707 97.04 175.488 96.416 175.488 95.552V90.672H174.448V89.184H175.488V86.992H177.328V89.184H179.472V90.672H177.328ZM184.353 98.144C183.66 98.144 183.036 98.0213 182.481 97.776C181.937 97.52 181.505 97.1787 181.185 96.752C180.865 96.3147 180.694 95.8293 180.673 95.296H182.561C182.593 95.6693 182.769 95.984 183.089 96.24C183.42 96.4853 183.83 96.608 184.321 96.608C184.833 96.608 185.228 96.512 185.505 96.32C185.793 96.1173 185.937 95.8613 185.937 95.552C185.937 95.2213 185.777 94.976 185.457 94.816C185.148 94.656 184.652 94.48 183.969 94.288C183.308 94.1067 182.769 93.9307 182.353 93.76C181.937 93.5893 181.574 93.328 181.265 92.976C180.966 92.624 180.817 92.16 180.817 91.584C180.817 91.1147 180.956 90.688 181.233 90.304C181.51 89.9093 181.905 89.6 182.417 89.376C182.94 89.152 183.537 89.04 184.209 89.04C185.212 89.04 186.017 89.296 186.625 89.808C187.244 90.3093 187.574 90.9973 187.617 91.872H185.793C185.761 91.4773 185.601 91.1627 185.313 90.928C185.025 90.6933 184.636 90.576 184.145 90.576C183.665 90.576 183.297 90.6667 183.041 90.848C182.785 91.0293 182.657 91.2693 182.657 91.568C182.657 91.8027 182.742 92 182.913 92.16C183.084 92.32 183.292 92.448 183.537 92.544C183.782 92.6293 184.145 92.7413 184.625 92.88C185.265 93.0507 185.788 93.2267 186.193 93.408C186.609 93.5787 186.966 93.8347 187.265 94.176C187.564 94.5173 187.718 94.9707 187.729 95.536C187.729 96.0373 187.59 96.4853 187.313 96.88C187.036 97.2747 186.641 97.584 186.129 97.808C185.628 98.032 185.036 98.144 184.353 98.144ZM198.416 89.04C199.088 89.04 199.686 89.184 200.208 89.472C200.742 89.76 201.158 90.1867 201.456 90.752C201.766 91.3173 201.92 92 201.92 92.8V98H200.112V93.072C200.112 92.2827 199.915 91.68 199.52 91.264C199.126 90.8373 198.587 90.624 197.904 90.624C197.222 90.624 196.678 90.8373 196.272 91.264C195.878 91.68 195.68 92.2827 195.68 93.072V98H193.856V86.16H195.68V90.208C195.99 89.8347 196.379 89.5467 196.848 89.344C197.328 89.1413 197.851 89.04 198.416 89.04ZM203.639 93.552C203.639 92.6667 203.82 91.8827 204.183 91.2C204.556 90.5173 205.058 89.9893 205.687 89.616C206.327 89.232 207.031 89.04 207.799 89.04C208.492 89.04 209.095 89.1787 209.607 89.456C210.13 89.7227 210.546 90.0587 210.855 90.464V89.184H212.695V98H210.855V96.688C210.546 97.104 210.124 97.4507 209.591 97.728C209.058 98.0053 208.45 98.144 207.767 98.144C207.01 98.144 206.316 97.952 205.687 97.568C205.058 97.1733 204.556 96.6293 204.183 95.936C203.82 95.232 203.639 94.4373 203.639 93.552ZM210.855 93.584C210.855 92.976 210.727 92.448 210.471 92C210.226 91.552 209.9 91.2107 209.495 90.976C209.09 90.7413 208.652 90.624 208.183 90.624C207.714 90.624 207.276 90.7413 206.871 90.976C206.466 91.2 206.135 91.536 205.879 91.984C205.634 92.4213 205.511 92.944 205.511 93.552C205.511 94.16 205.634 94.6933 205.879 95.152C206.135 95.6107 206.466 95.9627 206.871 96.208C207.287 96.4427 207.724 96.56 208.183 96.56C208.652 96.56 209.09 96.4427 209.495 96.208C209.9 95.9733 210.226 95.632 210.471 95.184C210.727 94.7253 210.855 94.192 210.855 93.584ZM218.291 98.144C217.597 98.144 216.973 98.0213 216.419 97.776C215.875 97.52 215.443 97.1787 215.123 96.752C214.803 96.3147 214.632 95.8293 214.611 95.296H216.499C216.531 95.6693 216.707 95.984 217.027 96.24C217.357 96.4853 217.768 96.608 218.259 96.608C218.771 96.608 219.165 96.512 219.443 96.32C219.731 96.1173 219.875 95.8613 219.875 95.552C219.875 95.2213 219.715 94.976 219.395 94.816C219.085 94.656 218.589 94.48 217.907 94.288C217.245 94.1067 216.707 93.9307 216.291 93.76C215.875 93.5893 215.512 93.328 215.203 92.976C214.904 92.624 214.755 92.16 214.755 91.584C214.755 91.1147 214.893 90.688 215.171 90.304C215.448 89.9093 215.843 89.6 216.355 89.376C216.877 89.152 217.475 89.04 218.147 89.04C219.149 89.04 219.955 89.296 220.563 89.808C221.181 90.3093 221.512 90.9973 221.555 91.872H219.731C219.699 91.4773 219.539 91.1627 219.251 90.928C218.963 90.6933 218.573 90.576 218.083 90.576C217.603 90.576 217.235 90.6667 216.979 90.848C216.723 91.0293 216.595 91.2693 216.595 91.568C216.595 91.8027 216.68 92 216.851 92.16C217.021 92.32 217.229 92.448 217.475 92.544C217.72 92.6293 218.083 92.7413 218.563 92.88C219.203 93.0507 219.725 93.2267 220.131 93.408C220.547 93.5787 220.904 93.8347 221.203 94.176C221.501 94.5173 221.656 94.9707 221.667 95.536C221.667 96.0373 221.528 96.4853 221.251 96.88C220.973 97.2747 220.579 97.584 220.067 97.808C219.565 98.032 218.973 98.144 218.291 98.144ZM226.838 98.144C226.144 98.144 225.52 98.0213 224.966 97.776C224.422 97.52 223.99 97.1787 223.67 96.752C223.35 96.3147 223.179 95.8293 223.158 95.296H225.046C225.078 95.6693 225.254 95.984 225.574 96.24C225.904 96.4853 226.315 96.608 226.806 96.608C227.318 96.608 227.712 96.512 227.99 96.32C228.278 96.1173 228.422 95.8613 228.422 95.552C228.422 95.2213 228.262 94.976 227.942 94.816C227.632 94.656 227.136 94.48 226.454 94.288C225.792 94.1067 225.254 93.9307 224.838 93.76C224.422 93.5893 224.059 93.328 223.75 92.976C223.451 92.624 223.302 92.16 223.302 91.584C223.302 91.1147 223.44 90.688 223.718 90.304C223.995 89.9093 224.39 89.6 224.902 89.376C225.424 89.152 226.022 89.04 226.694 89.04C227.696 89.04 228.502 89.296 229.11 89.808C229.728 90.3093 230.059 90.9973 230.102 91.872H228.278C228.246 91.4773 228.086 91.1627 227.798 90.928C227.51 90.6933 227.12 90.576 226.63 90.576C226.15 90.576 225.782 90.6667 225.526 90.848C225.27 91.0293 225.142 91.2693 225.142 91.568C225.142 91.8027 225.227 92 225.398 92.16C225.568 92.32 225.776 92.448 226.022 92.544C226.267 92.6293 226.63 92.7413 227.11 92.88C227.75 93.0507 228.272 93.2267 228.678 93.408C229.094 93.5787 229.451 93.8347 229.75 94.176C230.048 94.5173 230.203 94.9707 230.214 95.536C230.214 96.0373 230.075 96.4853 229.798 96.88C229.52 97.2747 229.126 97.584 228.614 97.808C228.112 98.032 227.52 98.144 226.838 98.144ZM234.008 86.16V98H232.184V86.16H234.008ZM244.483 93.376C244.483 93.7067 244.462 94.0053 244.419 94.272H237.683C237.736 94.976 237.998 95.5413 238.467 95.968C238.936 96.3947 239.512 96.608 240.195 96.608C241.176 96.608 241.87 96.1973 242.275 95.376H244.243C243.976 96.1867 243.491 96.8533 242.787 97.376C242.094 97.888 241.23 98.144 240.195 98.144C239.352 98.144 238.595 97.9573 237.923 97.584C237.262 97.2 236.739 96.6667 236.355 95.984C235.982 95.2907 235.795 94.4907 235.795 93.584C235.795 92.6773 235.976 91.8827 236.339 91.2C236.712 90.5067 237.23 89.9733 237.891 89.6C238.563 89.2267 239.331 89.04 240.195 89.04C241.027 89.04 241.768 89.2213 242.419 89.584C243.07 89.9467 243.576 90.4587 243.939 91.12C244.302 91.7707 244.483 92.5227 244.483 93.376ZM242.579 92.8C242.568 92.128 242.328 91.5893 241.859 91.184C241.39 90.7787 240.808 90.576 240.115 90.576C239.486 90.576 238.947 90.7787 238.499 91.184C238.051 91.5787 237.784 92.1173 237.699 92.8H242.579ZM253.046 91.44V92.976H246.47V91.44H253.046ZM259.334 90.672H257.702V98H255.862V90.672H254.822V89.184H255.862V88.56C255.862 87.5467 256.128 86.8107 256.662 86.352C257.206 85.8827 258.054 85.648 259.206 85.648V87.168C258.651 87.168 258.262 87.2747 258.038 87.488C257.814 87.6907 257.702 88.048 257.702 88.56V89.184H259.334V90.672ZM262.774 90.464C263.041 90.016 263.393 89.6693 263.83 89.424C264.278 89.168 264.806 89.04 265.414 89.04V90.928H264.95C264.235 90.928 263.691 91.1093 263.318 91.472C262.955 91.8347 262.774 92.464 262.774 93.36V98H260.95V89.184H262.774V90.464ZM275.171 93.376C275.171 93.7067 275.149 94.0053 275.107 94.272H268.371C268.424 94.976 268.685 95.5413 269.155 95.968C269.624 96.3947 270.2 96.608 270.883 96.608C271.864 96.608 272.557 96.1973 272.963 95.376H274.931C274.664 96.1867 274.179 96.8533 273.475 97.376C272.781 97.888 271.917 98.144 270.883 98.144C270.04 98.144 269.283 97.9573 268.611 97.584C267.949 97.2 267.427 96.6667 267.043 95.984C266.669 95.2907 266.483 94.4907 266.483 93.584C266.483 92.6773 266.664 91.8827 267.027 91.2C267.4 90.5067 267.917 89.9733 268.579 89.6C269.251 89.2267 270.019 89.04 270.883 89.04C271.715 89.04 272.456 89.2213 273.107 89.584C273.757 89.9467 274.264 90.4587 274.627 91.12C274.989 91.7707 275.171 92.5227 275.171 93.376ZM273.267 92.8C273.256 92.128 273.016 91.5893 272.547 91.184C272.077 90.7787 271.496 90.576 270.803 90.576C270.173 90.576 269.635 90.7787 269.187 91.184C268.739 91.5787 268.472 92.1173 268.387 92.8H273.267ZM285.046 93.376C285.046 93.7067 285.024 94.0053 284.982 94.272H278.246C278.299 94.976 278.56 95.5413 279.03 95.968C279.499 96.3947 280.075 96.608 280.758 96.608C281.739 96.608 282.432 96.1973 282.838 95.376H284.806C284.539 96.1867 284.054 96.8533 283.35 97.376C282.656 97.888 281.792 98.144 280.758 98.144C279.915 98.144 279.158 97.9573 278.486 97.584C277.824 97.2 277.302 96.6667 276.918 95.984C276.544 95.2907 276.358 94.4907 276.358 93.584C276.358 92.6773 276.539 91.8827 276.902 91.2C277.275 90.5067 277.792 89.9733 278.454 89.6C279.126 89.2267 279.894 89.04 280.758 89.04C281.59 89.04 282.331 89.2213 282.982 89.584C283.632 89.9467 284.139 90.4587 284.502 91.12C284.864 91.7707 285.046 92.5227 285.046 93.376ZM283.142 92.8C283.131 92.128 282.891 91.5893 282.422 91.184C281.952 90.7787 281.371 90.576 280.678 90.576C280.048 90.576 279.51 90.7787 279.062 91.184C278.614 91.5787 278.347 92.1173 278.262 92.8H283.142Z" fill="#01154C"/>
</g>
<defs>
<filter id="filter0_d_1839_2233" x="0" y="0" width="380" height="168" filterUnits="userSpaceOnUse" color-interpolation-filters="sRGB">
<feFlood flood-opacity="0" result="BackgroundImageFix"/>
<feColorMatrix in="SourceAlpha" type="matrix" values="0 0 0 0 0 0 0 0 0 0 0 0 0 0 0 0 0 0 127 0" result="hardAlpha"/>
<feOffset dx="4" dy="4"/>
<feGaussianBlur stdDeviation="24"/>
<feComposite in2="hardAlpha" operator="out"/>
<feColorMatrix type="matrix" values="0 0 0 0 0 0 0 0 0 0 0 0 0 0 0 0 0 0 0.1 0"/>
<feBlend mode="normal" in2="BackgroundImageFix" result="effect1_dropShadow_1839_2233"/>
<feBlend mode="normal" in="SourceGraphic" in2="effect1_dropShadow_1839_2233" result="shape"/>
</filter>
</defs>
</svg>
