<svg width="380" height="168" viewBox="0 0 380 168" fill="none" xmlns="http://www.w3.org/2000/svg">
<g filter="url(#filter0_d_1237_1957)">
<rect x="44" y="44" width="284" height="72" rx="36" fill="white"/>
<rect x="52" y="52" width="56" height="56" rx="28" fill="#E6EDFF"/>
<path fill-rule="evenodd" clip-rule="evenodd" d="M92.0833 61.6602C91.3929 61.6602 90.8333 62.2198 90.8333 62.9101V74.0676L86.4853 69.7196C85.9971 69.2314 85.2056 69.2314 84.7174 69.7196C84.2293 70.2077 84.2293 70.9992 84.7174 71.4873L91.1993 77.9692C91.6874 78.4573 92.4789 78.4573 92.9671 77.9692L99.4489 71.4873C99.9371 70.9992 99.9371 70.2077 99.4489 69.7196C98.9608 69.2314 98.1693 69.2314 97.6811 69.7196L93.3333 74.0674V62.9101C93.3333 62.2198 92.7736 61.6602 92.0833 61.6602ZM67.9165 68.3345C67.2262 68.3345 66.6665 68.8942 66.6665 69.5845V93.7512C66.6665 94.4415 67.2262 95.0012 67.9165 95.0012H92.0831C92.7736 95.0012 93.3331 94.4415 93.3331 93.7512V82.9188C93.3331 82.2285 92.7736 81.6688 92.0831 81.6688C91.3928 81.6688 90.8331 82.2285 90.8331 82.9188V92.5012H69.1665V70.8345H79.7663C80.4566 70.8345 81.0163 70.2749 81.0163 69.5845C81.0163 68.8942 80.4566 68.3345 79.7663 68.3345H67.9165ZM75.2985 75.4103C75.4625 75.1274 75.7647 74.9532 76.0917 74.9532H83.7609C84.4634 74.9532 84.9049 75.7109 84.5584 76.322C84.3956 76.6091 84.0911 76.7865 83.7609 76.7865H81.4859C81.7539 77.2567 81.8693 77.8028 81.9464 78.2865H83.7729C84.4728 78.2865 84.9144 79.039 84.5733 79.65C84.4114 79.9402 84.1051 80.1198 83.7729 80.1198H82.0223C81.6603 82.3025 79.5266 83.1487 78.2488 83.3173L81.6028 86.8328C81.7001 86.9348 81.7694 87.0533 81.8108 87.1788L81.8348 87.204L81.8213 87.2132C81.9121 87.53 81.8284 87.8853 81.5736 88.1288C81.2076 88.4787 80.6274 88.4657 80.2776 88.0998L76.5342 84.1762L75.7163 83.3315L75.7194 83.322L75.3729 82.9588C75.0231 82.5928 75.0361 82.0127 75.402 81.6628C75.6646 81.4117 76.0376 81.3475 76.3566 81.4665C78.4928 81.715 79.3111 80.9692 79.6168 80.1198H76.2461C75.5426 80.1198 75.1013 79.36 75.4499 78.749C75.613 78.463 75.9169 78.2865 76.2461 78.2865H79.6746C79.4076 77.42 78.7504 76.9857 78.0804 76.7865H76.0917C75.3854 76.7865 74.9444 76.0214 75.2985 75.4103Z" fill="#1C59FC"/>
<path d="M120.96 72.416H126.128V74H118.8V72.576L123.952 64.464H118.8V62.88H126.128V64.304L120.96 72.416ZM136.202 69.376C136.202 69.7067 136.181 70.0053 136.138 70.272H129.402C129.455 70.976 129.717 71.5413 130.186 71.968C130.655 72.3947 131.231 72.608 131.914 72.608C132.895 72.608 133.589 72.1973 133.994 71.376H135.962C135.695 72.1867 135.21 72.8533 134.506 73.376C133.813 73.888 132.949 74.144 131.914 74.144C131.071 74.144 130.314 73.9573 129.642 73.584C128.981 73.2 128.458 72.6667 128.074 71.984C127.701 71.2907 127.514 70.4907 127.514 69.584C127.514 68.6773 127.695 67.8827 128.058 67.2C128.431 66.5067 128.949 65.9733 129.61 65.6C130.282 65.2267 131.05 65.04 131.914 65.04C132.746 65.04 133.487 65.2213 134.138 65.584C134.789 65.9467 135.295 66.4587 135.658 67.12C136.021 67.7707 136.202 68.5227 136.202 69.376ZM134.298 68.8C134.287 68.128 134.047 67.5893 133.578 67.184C133.109 66.7787 132.527 66.576 131.834 66.576C131.205 66.576 130.666 66.7787 130.218 67.184C129.77 67.5787 129.503 68.1173 129.418 68.8H134.298ZM139.821 66.464C140.088 66.016 140.44 65.6693 140.877 65.424C141.325 65.168 141.853 65.04 142.461 65.04V66.928H141.997C141.282 66.928 140.738 67.1093 140.365 67.472C140.002 67.8347 139.821 68.464 139.821 69.36V74H137.997V65.184H139.821V66.464ZM147.962 74.144C147.13 74.144 146.378 73.9573 145.706 73.584C145.034 73.2 144.506 72.6667 144.122 71.984C143.738 71.2907 143.546 70.4907 143.546 69.584C143.546 68.688 143.743 67.8933 144.138 67.2C144.532 66.5067 145.071 65.9733 145.754 65.6C146.436 65.2267 147.199 65.04 148.042 65.04C148.884 65.04 149.647 65.2267 150.33 65.6C151.012 65.9733 151.551 66.5067 151.946 67.2C152.34 67.8933 152.538 68.688 152.538 69.584C152.538 70.48 152.335 71.2747 151.93 71.968C151.524 72.6613 150.97 73.2 150.266 73.584C149.572 73.9573 148.804 74.144 147.962 74.144ZM147.962 72.56C148.431 72.56 148.868 72.448 149.274 72.224C149.69 72 150.026 71.664 150.282 71.216C150.538 70.768 150.666 70.224 150.666 69.584C150.666 68.944 150.543 68.4053 150.298 67.968C150.052 67.52 149.727 67.184 149.322 66.96C148.916 66.736 148.479 66.624 148.01 66.624C147.54 66.624 147.103 66.736 146.698 66.96C146.303 67.184 145.988 67.52 145.754 67.968C145.519 68.4053 145.402 68.944 145.402 69.584C145.402 70.5333 145.642 71.2693 146.122 71.792C146.612 72.304 147.226 72.56 147.962 72.56ZM169.169 65.04C169.862 65.04 170.481 65.184 171.025 65.472C171.58 65.76 172.012 66.1867 172.321 66.752C172.641 67.3173 172.801 68 172.801 68.8V74H170.993V69.072C170.993 68.2827 170.796 67.68 170.401 67.264C170.006 66.8373 169.468 66.624 168.785 66.624C168.102 66.624 167.558 66.8373 167.153 67.264C166.758 67.68 166.561 68.2827 166.561 69.072V74H164.753V69.072C164.753 68.2827 164.556 67.68 164.161 67.264C163.766 66.8373 163.228 66.624 162.545 66.624C161.862 66.624 161.318 66.8373 160.913 67.264C160.518 67.68 160.321 68.2827 160.321 69.072V74H158.497V65.184H160.321V66.192C160.62 65.8293 160.998 65.5467 161.457 65.344C161.916 65.1413 162.406 65.04 162.929 65.04C163.633 65.04 164.262 65.1893 164.817 65.488C165.372 65.7867 165.798 66.2187 166.097 66.784C166.364 66.2507 166.78 65.8293 167.345 65.52C167.91 65.2 168.518 65.04 169.169 65.04ZM178.946 74.144C178.114 74.144 177.362 73.9573 176.69 73.584C176.018 73.2 175.49 72.6667 175.106 71.984C174.722 71.2907 174.53 70.4907 174.53 69.584C174.53 68.688 174.727 67.8933 175.122 67.2C175.517 66.5067 176.055 65.9733 176.738 65.6C177.421 65.2267 178.183 65.04 179.026 65.04C179.869 65.04 180.631 65.2267 181.314 65.6C181.997 65.9733 182.535 66.5067 182.93 67.2C183.325 67.8933 183.522 68.688 183.522 69.584C183.522 70.48 183.319 71.2747 182.914 71.968C182.509 72.6613 181.954 73.2 181.25 73.584C180.557 73.9573 179.789 74.144 178.946 74.144ZM178.946 72.56C179.415 72.56 179.853 72.448 180.258 72.224C180.674 72 181.01 71.664 181.266 71.216C181.522 70.768 181.65 70.224 181.65 69.584C181.65 68.944 181.527 68.4053 181.282 67.968C181.037 67.52 180.711 67.184 180.306 66.96C179.901 66.736 179.463 66.624 178.994 66.624C178.525 66.624 178.087 66.736 177.682 66.96C177.287 67.184 176.973 67.52 176.738 67.968C176.503 68.4053 176.386 68.944 176.386 69.584C176.386 70.5333 176.626 71.2693 177.106 71.792C177.597 72.304 178.21 72.56 178.946 72.56ZM189.773 65.04C190.466 65.04 191.085 65.184 191.629 65.472C192.184 65.76 192.616 66.1867 192.925 66.752C193.234 67.3173 193.389 68 193.389 68.8V74H191.581V69.072C191.581 68.2827 191.384 67.68 190.989 67.264C190.594 66.8373 190.056 66.624 189.373 66.624C188.69 66.624 188.146 66.8373 187.741 67.264C187.346 67.68 187.149 68.2827 187.149 69.072V74H185.325V65.184H187.149V66.192C187.448 65.8293 187.826 65.5467 188.285 65.344C188.754 65.1413 189.25 65.04 189.773 65.04ZM197.844 66.672V71.552C197.844 71.8827 197.918 72.1227 198.068 72.272C198.228 72.4107 198.494 72.48 198.868 72.48H199.988V74H198.548C197.726 74 197.097 73.808 196.66 73.424C196.222 73.04 196.004 72.416 196.004 71.552V66.672H194.964V65.184H196.004V62.992H197.844V65.184H199.988V66.672H197.844ZM206.229 65.04C206.901 65.04 207.498 65.184 208.021 65.472C208.554 65.76 208.97 66.1867 209.269 66.752C209.578 67.3173 209.733 68 209.733 68.8V74H207.925V69.072C207.925 68.2827 207.727 67.68 207.333 67.264C206.938 66.8373 206.399 66.624 205.717 66.624C205.034 66.624 204.49 66.8373 204.085 67.264C203.69 67.68 203.493 68.2827 203.493 69.072V74H201.669V62.16H203.493V66.208C203.802 65.8347 204.191 65.5467 204.661 65.344C205.141 65.1413 205.663 65.04 206.229 65.04ZM213.883 62.16V74H212.059V62.16H213.883ZM224.214 65.184L218.806 78.144H216.918L218.71 73.856L215.238 65.184H217.27L219.75 71.904L222.326 65.184H224.214ZM129.872 89.04C130.565 89.04 131.184 89.184 131.728 89.472C132.283 89.76 132.715 90.1867 133.024 90.752C133.344 91.3173 133.504 92 133.504 92.8V98H131.696V93.072C131.696 92.2827 131.499 91.68 131.104 91.264C130.709 90.8373 130.171 90.624 129.488 90.624C128.805 90.624 128.261 90.8373 127.856 91.264C127.461 91.68 127.264 92.2827 127.264 93.072V98H125.456V93.072C125.456 92.2827 125.259 91.68 124.864 91.264C124.469 90.8373 123.931 90.624 123.248 90.624C122.565 90.624 122.021 90.8373 121.616 91.264C121.221 91.68 121.024 92.2827 121.024 93.072V98H119.2V89.184H121.024V90.192C121.323 89.8293 121.701 89.5467 122.16 89.344C122.619 89.1413 123.109 89.04 123.632 89.04C124.336 89.04 124.965 89.1893 125.52 89.488C126.075 89.7867 126.501 90.2187 126.8 90.784C127.067 90.2507 127.483 89.8293 128.048 89.52C128.613 89.2 129.221 89.04 129.872 89.04ZM135.217 93.552C135.217 92.6667 135.398 91.8827 135.761 91.2C136.134 90.5173 136.636 89.9893 137.265 89.616C137.905 89.232 138.609 89.04 139.377 89.04C140.07 89.04 140.673 89.1787 141.185 89.456C141.708 89.7227 142.124 90.0587 142.433 90.464V89.184H144.273V98H142.433V96.688C142.124 97.104 141.702 97.4507 141.169 97.728C140.636 98.0053 140.028 98.144 139.345 98.144C138.588 98.144 137.894 97.952 137.265 97.568C136.636 97.1733 136.134 96.6293 135.761 95.936C135.398 95.232 135.217 94.4373 135.217 93.552ZM142.433 93.584C142.433 92.976 142.305 92.448 142.049 92C141.804 91.552 141.478 91.2107 141.073 90.976C140.668 90.7413 140.23 90.624 139.761 90.624C139.292 90.624 138.854 90.7413 138.449 90.976C138.044 91.2 137.713 91.536 137.457 91.984C137.212 92.4213 137.089 92.944 137.089 93.552C137.089 94.16 137.212 94.6933 137.457 95.152C137.713 95.6107 138.044 95.9627 138.449 96.208C138.865 96.4427 139.302 96.56 139.761 96.56C140.23 96.56 140.668 96.4427 141.073 96.208C141.478 95.9733 141.804 95.632 142.049 95.184C142.305 94.7253 142.433 94.192 142.433 93.584ZM147.597 88.016C147.266 88.016 146.989 87.904 146.765 87.68C146.541 87.456 146.429 87.1787 146.429 86.848C146.429 86.5173 146.541 86.24 146.765 86.016C146.989 85.792 147.266 85.68 147.597 85.68C147.917 85.68 148.189 85.792 148.413 86.016C148.637 86.24 148.749 86.5173 148.749 86.848C148.749 87.1787 148.637 87.456 148.413 87.68C148.189 87.904 147.917 88.016 147.597 88.016ZM148.493 89.184V98H146.669V89.184H148.493ZM155.336 89.04C156.029 89.04 156.648 89.184 157.192 89.472C157.746 89.76 158.178 90.1867 158.488 90.752C158.797 91.3173 158.952 92 158.952 92.8V98H157.144V93.072C157.144 92.2827 156.946 91.68 156.552 91.264C156.157 90.8373 155.618 90.624 154.936 90.624C154.253 90.624 153.709 90.8373 153.304 91.264C152.909 91.68 152.712 92.2827 152.712 93.072V98H150.888V89.184H152.712V90.192C153.01 89.8293 153.389 89.5467 153.848 89.344C154.317 89.1413 154.813 89.04 155.336 89.04ZM163.406 90.672V95.552C163.406 95.8827 163.481 96.1227 163.63 96.272C163.79 96.4107 164.057 96.48 164.43 96.48H165.55V98H164.11C163.289 98 162.659 97.808 162.222 97.424C161.785 97.04 161.566 96.416 161.566 95.552V90.672H160.526V89.184H161.566V86.992H163.406V89.184H165.55V90.672H163.406ZM175.311 93.376C175.311 93.7067 175.29 94.0053 175.247 94.272H168.511C168.565 94.976 168.826 95.5413 169.295 95.968C169.765 96.3947 170.341 96.608 171.023 96.608C172.005 96.608 172.698 96.1973 173.103 95.376H175.071C174.805 96.1867 174.319 96.8533 173.615 97.376C172.922 97.888 172.058 98.144 171.023 98.144C170.181 98.144 169.423 97.9573 168.751 97.584C168.09 97.2 167.567 96.6667 167.183 95.984C166.81 95.2907 166.623 94.4907 166.623 93.584C166.623 92.6773 166.805 91.8827 167.167 91.2C167.541 90.5067 168.058 89.9733 168.719 89.6C169.391 89.2267 170.159 89.04 171.023 89.04C171.855 89.04 172.597 89.2213 173.247 89.584C173.898 89.9467 174.405 90.4587 174.767 91.12C175.13 91.7707 175.311 92.5227 175.311 93.376ZM173.407 92.8C173.397 92.128 173.157 91.5893 172.687 91.184C172.218 90.7787 171.637 90.576 170.943 90.576C170.314 90.576 169.775 90.7787 169.327 91.184C168.879 91.5787 168.613 92.1173 168.527 92.8H173.407ZM181.554 89.04C182.248 89.04 182.866 89.184 183.41 89.472C183.965 89.76 184.397 90.1867 184.706 90.752C185.016 91.3173 185.17 92 185.17 92.8V98H183.362V93.072C183.362 92.2827 183.165 91.68 182.77 91.264C182.376 90.8373 181.837 90.624 181.154 90.624C180.472 90.624 179.928 90.8373 179.522 91.264C179.128 91.68 178.93 92.2827 178.93 93.072V98H177.106V89.184H178.93V90.192C179.229 89.8293 179.608 89.5467 180.066 89.344C180.536 89.1413 181.032 89.04 181.554 89.04ZM186.889 93.552C186.889 92.6667 187.07 91.8827 187.433 91.2C187.806 90.5173 188.308 89.9893 188.937 89.616C189.577 89.232 190.281 89.04 191.049 89.04C191.742 89.04 192.345 89.1787 192.857 89.456C193.38 89.7227 193.796 90.0587 194.105 90.464V89.184H195.945V98H194.105V96.688C193.796 97.104 193.374 97.4507 192.841 97.728C192.308 98.0053 191.7 98.144 191.017 98.144C190.26 98.144 189.566 97.952 188.937 97.568C188.308 97.1733 187.806 96.6293 187.433 95.936C187.07 95.232 186.889 94.4373 186.889 93.552ZM194.105 93.584C194.105 92.976 193.977 92.448 193.721 92C193.476 91.552 193.15 91.2107 192.745 90.976C192.34 90.7413 191.902 90.624 191.433 90.624C190.964 90.624 190.526 90.7413 190.121 90.976C189.716 91.2 189.385 91.536 189.129 91.984C188.884 92.4213 188.761 92.944 188.761 93.552C188.761 94.16 188.884 94.6933 189.129 95.152C189.385 95.6107 189.716 95.9627 190.121 96.208C190.537 96.4427 190.974 96.56 191.433 96.56C191.902 96.56 192.34 96.4427 192.745 96.208C193.15 95.9733 193.476 95.632 193.721 95.184C193.977 94.7253 194.105 94.192 194.105 93.584ZM202.789 89.04C203.482 89.04 204.101 89.184 204.645 89.472C205.199 89.76 205.631 90.1867 205.941 90.752C206.25 91.3173 206.405 92 206.405 92.8V98H204.597V93.072C204.597 92.2827 204.399 91.68 204.005 91.264C203.61 90.8373 203.071 90.624 202.389 90.624C201.706 90.624 201.162 90.8373 200.757 91.264C200.362 91.68 200.165 92.2827 200.165 93.072V98H198.341V89.184H200.165V90.192C200.463 89.8293 200.842 89.5467 201.301 89.344C201.77 89.1413 202.266 89.04 202.789 89.04ZM208.123 93.584C208.123 92.6773 208.305 91.8827 208.667 91.2C209.041 90.5067 209.553 89.9733 210.203 89.6C210.854 89.2267 211.601 89.04 212.443 89.04C213.51 89.04 214.39 89.296 215.083 89.808C215.787 90.3093 216.262 91.0293 216.507 91.968H214.539C214.379 91.5307 214.123 91.1893 213.771 90.944C213.419 90.6987 212.977 90.576 212.443 90.576C211.697 90.576 211.099 90.8427 210.651 91.376C210.214 91.8987 209.995 92.6347 209.995 93.584C209.995 94.5333 210.214 95.2747 210.651 95.808C211.099 96.3413 211.697 96.608 212.443 96.608C213.499 96.608 214.198 96.144 214.539 95.216H216.507C216.251 96.112 215.771 96.8267 215.067 97.36C214.363 97.8827 213.489 98.144 212.443 98.144C211.601 98.144 210.854 97.9573 210.203 97.584C209.553 97.2 209.041 96.6667 208.667 95.984C208.305 95.2907 208.123 94.4907 208.123 93.584ZM226.405 93.376C226.405 93.7067 226.384 94.0053 226.341 94.272H219.605C219.658 94.976 219.92 95.5413 220.389 95.968C220.858 96.3947 221.434 96.608 222.117 96.608C223.098 96.608 223.792 96.1973 224.197 95.376H226.165C225.898 96.1867 225.413 96.8533 224.709 97.376C224.016 97.888 223.152 98.144 222.117 98.144C221.274 98.144 220.517 97.9573 219.845 97.584C219.184 97.2 218.661 96.6667 218.277 95.984C217.904 95.2907 217.717 94.4907 217.717 93.584C217.717 92.6773 217.898 91.8827 218.261 91.2C218.634 90.5067 219.152 89.9733 219.813 89.6C220.485 89.2267 221.253 89.04 222.117 89.04C222.949 89.04 223.69 89.2213 224.341 89.584C224.992 89.9467 225.498 90.4587 225.861 91.12C226.224 91.7707 226.405 92.5227 226.405 93.376ZM224.501 92.8C224.49 92.128 224.25 91.5893 223.781 91.184C223.312 90.7787 222.73 90.576 222.037 90.576C221.408 90.576 220.869 90.7787 220.421 91.184C219.973 91.5787 219.706 92.1173 219.621 92.8H224.501ZM231.748 93.584C231.748 92.6773 231.93 91.8827 232.292 91.2C232.666 90.5067 233.178 89.9733 233.828 89.6C234.479 89.2267 235.226 89.04 236.068 89.04C237.135 89.04 238.015 89.296 238.708 89.808C239.412 90.3093 239.887 91.0293 240.132 91.968H238.164C238.004 91.5307 237.748 91.1893 237.396 90.944C237.044 90.6987 236.602 90.576 236.068 90.576C235.322 90.576 234.724 90.8427 234.276 91.376C233.839 91.8987 233.62 92.6347 233.62 93.584C233.62 94.5333 233.839 95.2747 234.276 95.808C234.724 96.3413 235.322 96.608 236.068 96.608C237.124 96.608 237.823 96.144 238.164 95.216H240.132C239.876 96.112 239.396 96.8267 238.692 97.36C237.988 97.8827 237.114 98.144 236.068 98.144C235.226 98.144 234.479 97.9573 233.828 97.584C233.178 97.2 232.666 96.6667 232.292 95.984C231.93 95.2907 231.748 94.4907 231.748 93.584ZM246.51 89.04C247.182 89.04 247.779 89.184 248.302 89.472C248.835 89.76 249.251 90.1867 249.55 90.752C249.859 91.3173 250.014 92 250.014 92.8V98H248.206V93.072C248.206 92.2827 248.009 91.68 247.614 91.264C247.219 90.8373 246.681 90.624 245.998 90.624C245.315 90.624 244.771 90.8373 244.366 91.264C243.971 91.68 243.774 92.2827 243.774 93.072V98H241.95V86.16H243.774V90.208C244.083 89.8347 244.473 89.5467 244.942 89.344C245.422 89.1413 245.945 89.04 246.51 89.04ZM251.733 93.552C251.733 92.6667 251.914 91.8827 252.277 91.2C252.65 90.5173 253.151 89.9893 253.781 89.616C254.421 89.232 255.125 89.04 255.893 89.04C256.586 89.04 257.189 89.1787 257.701 89.456C258.223 89.7227 258.639 90.0587 258.949 90.464V89.184H260.789V98H258.949V96.688C258.639 97.104 258.218 97.4507 257.685 97.728C257.151 98.0053 256.543 98.144 255.861 98.144C255.103 98.144 254.41 97.952 253.781 97.568C253.151 97.1733 252.65 96.6293 252.277 95.936C251.914 95.232 251.733 94.4373 251.733 93.552ZM258.949 93.584C258.949 92.976 258.821 92.448 258.565 92C258.319 91.552 257.994 91.2107 257.589 90.976C257.183 90.7413 256.746 90.624 256.277 90.624C255.807 90.624 255.37 90.7413 254.965 90.976C254.559 91.2 254.229 91.536 253.973 91.984C253.727 92.4213 253.605 92.944 253.605 93.552C253.605 94.16 253.727 94.6933 253.973 95.152C254.229 95.6107 254.559 95.9627 254.965 96.208C255.381 96.4427 255.818 96.56 256.277 96.56C256.746 96.56 257.183 96.4427 257.589 96.208C257.994 95.9733 258.319 95.632 258.565 95.184C258.821 94.7253 258.949 94.192 258.949 93.584ZM265.008 90.464C265.275 90.016 265.627 89.6693 266.064 89.424C266.512 89.168 267.04 89.04 267.648 89.04V90.928H267.184C266.47 90.928 265.926 91.1093 265.552 91.472C265.19 91.8347 265.008 92.464 265.008 93.36V98H263.184V89.184H265.008V90.464ZM272.877 89.04C273.56 89.04 274.162 89.1787 274.685 89.456C275.218 89.7227 275.634 90.0587 275.933 90.464V89.184H277.773V98.144C277.773 98.9547 277.602 99.6747 277.261 100.304C276.92 100.944 276.424 101.445 275.773 101.808C275.133 102.171 274.365 102.352 273.469 102.352C272.274 102.352 271.282 102.069 270.493 101.504C269.704 100.949 269.256 100.192 269.149 99.232H270.957C271.096 99.6907 271.389 100.059 271.837 100.336C272.296 100.624 272.84 100.768 273.469 100.768C274.205 100.768 274.797 100.544 275.245 100.096C275.704 99.648 275.933 98.9973 275.933 98.144V96.672C275.624 97.088 275.202 97.44 274.669 97.728C274.146 98.0053 273.549 98.144 272.877 98.144C272.109 98.144 271.405 97.952 270.765 97.568C270.136 97.1733 269.634 96.6293 269.261 95.936C268.898 95.232 268.717 94.4373 268.717 93.552C268.717 92.6667 268.898 91.8827 269.261 91.2C269.634 90.5173 270.136 89.9893 270.765 89.616C271.405 89.232 272.109 89.04 272.877 89.04ZM275.933 93.584C275.933 92.976 275.805 92.448 275.549 92C275.304 91.552 274.978 91.2107 274.573 90.976C274.168 90.7413 273.73 90.624 273.261 90.624C272.792 90.624 272.354 90.7413 271.949 90.976C271.544 91.2 271.213 91.536 270.957 91.984C270.712 92.4213 270.589 92.944 270.589 93.552C270.589 94.16 270.712 94.6933 270.957 95.152C271.213 95.6107 271.544 95.9627 271.949 96.208C272.365 96.4427 272.802 96.56 273.261 96.56C273.73 96.56 274.168 96.4427 274.573 96.208C274.978 95.9733 275.304 95.632 275.549 95.184C275.805 94.7253 275.933 94.192 275.933 93.584ZM288.249 93.376C288.249 93.7067 288.227 94.0053 288.185 94.272H281.449C281.502 94.976 281.763 95.5413 282.233 95.968C282.702 96.3947 283.278 96.608 283.961 96.608C284.942 96.608 285.635 96.1973 286.041 95.376H288.009C287.742 96.1867 287.257 96.8533 286.553 97.376C285.859 97.888 284.995 98.144 283.961 98.144C283.118 98.144 282.361 97.9573 281.689 97.584C281.027 97.2 280.505 96.6667 280.121 95.984C279.747 95.2907 279.561 94.4907 279.561 93.584C279.561 92.6773 279.742 91.8827 280.105 91.2C280.478 90.5067 280.995 89.9733 281.657 89.6C282.329 89.2267 283.097 89.04 283.961 89.04C284.793 89.04 285.534 89.2213 286.185 89.584C286.835 89.9467 287.342 90.4587 287.705 91.12C288.067 91.7707 288.249 92.5227 288.249 93.376ZM286.345 92.8C286.334 92.128 286.094 91.5893 285.625 91.184C285.155 90.7787 284.574 90.576 283.881 90.576C283.251 90.576 282.713 90.7787 282.265 91.184C281.817 91.5787 281.55 92.1173 281.465 92.8H286.345Z" fill="#01154C"/>
</g>
<defs>
<filter id="filter0_d_1237_1957" x="0" y="0" width="380" height="168" filterUnits="userSpaceOnUse" color-interpolation-filters="sRGB">
<feFlood flood-opacity="0" result="BackgroundImageFix"/>
<feColorMatrix in="SourceAlpha" type="matrix" values="0 0 0 0 0 0 0 0 0 0 0 0 0 0 0 0 0 0 127 0" result="hardAlpha"/>
<feOffset dx="4" dy="4"/>
<feGaussianBlur stdDeviation="24"/>
<feComposite in2="hardAlpha" operator="out"/>
<feColorMatrix type="matrix" values="0 0 0 0 0 0 0 0 0 0 0 0 0 0 0 0 0 0 0.1 0"/>
<feBlend mode="normal" in2="BackgroundImageFix" result="effect1_dropShadow_1237_1957"/>
<feBlend mode="normal" in="SourceGraphic" in2="effect1_dropShadow_1237_1957" result="shape"/>
</filter>
</defs>
</svg>
