<svg width="451" height="168" viewBox="0 0 451 168" fill="none" xmlns="http://www.w3.org/2000/svg">
<g filter="url(#filter0_d_1237_1961)">
<rect x="44" y="44" width="355" height="72" rx="36" fill="white"/>
<path d="M127.024 62.88V74H125.2V62.88H127.024ZM133.867 65.04C134.56 65.04 135.179 65.184 135.723 65.472C136.277 65.76 136.709 66.1867 137.019 66.752C137.328 67.3173 137.483 68 137.483 68.8V74H135.675V69.072C135.675 68.2827 135.477 67.68 135.083 67.264C134.688 66.8373 134.149 66.624 133.467 66.624C132.784 66.624 132.24 66.8373 131.835 67.264C131.44 67.68 131.243 68.2827 131.243 69.072V74H129.419V65.184H131.243V66.192C131.541 65.8293 131.92 65.5467 132.379 65.344C132.848 65.1413 133.344 65.04 133.867 65.04ZM143.009 74.144C142.316 74.144 141.692 74.0213 141.137 73.776C140.593 73.52 140.161 73.1787 139.841 72.752C139.521 72.3147 139.351 71.8293 139.329 71.296H141.217C141.249 71.6693 141.425 71.984 141.745 72.24C142.076 72.4853 142.487 72.608 142.977 72.608C143.489 72.608 143.884 72.512 144.161 72.32C144.449 72.1173 144.593 71.8613 144.593 71.552C144.593 71.2213 144.433 70.976 144.113 70.816C143.804 70.656 143.308 70.48 142.625 70.288C141.964 70.1067 141.425 69.9307 141.009 69.76C140.593 69.5893 140.231 69.328 139.921 68.976C139.623 68.624 139.473 68.16 139.473 67.584C139.473 67.1147 139.612 66.688 139.889 66.304C140.167 65.9093 140.561 65.6 141.073 65.376C141.596 65.152 142.193 65.04 142.865 65.04C143.868 65.04 144.673 65.296 145.281 65.808C145.9 66.3093 146.231 66.9973 146.273 67.872H144.449C144.417 67.4773 144.257 67.1627 143.969 66.928C143.681 66.6933 143.292 66.576 142.801 66.576C142.321 66.576 141.953 66.6667 141.697 66.848C141.441 67.0293 141.313 67.2693 141.313 67.568C141.313 67.8027 141.399 68 141.569 68.16C141.74 68.32 141.948 68.448 142.193 68.544C142.439 68.6293 142.801 68.7413 143.281 68.88C143.921 69.0507 144.444 69.2267 144.849 69.408C145.265 69.5787 145.623 69.8347 145.921 70.176C146.22 70.5173 146.375 70.9707 146.385 71.536C146.385 72.0373 146.247 72.4853 145.969 72.88C145.692 73.2747 145.297 73.584 144.785 73.808C144.284 74.032 143.692 74.144 143.009 74.144ZM150.484 66.672V71.552C150.484 71.8827 150.559 72.1227 150.708 72.272C150.868 72.4107 151.135 72.48 151.508 72.48H152.628V74H151.188C150.367 74 149.738 73.808 149.3 73.424C148.863 73.04 148.644 72.416 148.644 71.552V66.672H147.604V65.184H148.644V62.992H150.484V65.184H152.628V66.672H150.484ZM153.701 69.552C153.701 68.6667 153.883 67.8827 154.245 67.2C154.619 66.5173 155.12 65.9893 155.749 65.616C156.389 65.232 157.093 65.04 157.861 65.04C158.555 65.04 159.157 65.1787 159.669 65.456C160.192 65.7227 160.608 66.0587 160.917 66.464V65.184H162.757V74H160.917V72.688C160.608 73.104 160.187 73.4507 159.653 73.728C159.12 74.0053 158.512 74.144 157.829 74.144C157.072 74.144 156.379 73.952 155.749 73.568C155.12 73.1733 154.619 72.6293 154.245 71.936C153.883 71.232 153.701 70.4373 153.701 69.552ZM160.917 69.584C160.917 68.976 160.789 68.448 160.533 68C160.288 67.552 159.963 67.2107 159.557 66.976C159.152 66.7413 158.715 66.624 158.245 66.624C157.776 66.624 157.339 66.7413 156.933 66.976C156.528 67.2 156.197 67.536 155.941 67.984C155.696 68.4213 155.573 68.944 155.573 69.552C155.573 70.16 155.696 70.6933 155.941 71.152C156.197 71.6107 156.528 71.9627 156.933 72.208C157.349 72.4427 157.787 72.56 158.245 72.56C158.715 72.56 159.152 72.4427 159.557 72.208C159.963 71.9733 160.288 71.632 160.533 71.184C160.789 70.7253 160.917 70.192 160.917 69.584ZM169.601 65.04C170.294 65.04 170.913 65.184 171.457 65.472C172.012 65.76 172.444 66.1867 172.753 66.752C173.062 67.3173 173.217 68 173.217 68.8V74H171.409V69.072C171.409 68.2827 171.212 67.68 170.817 67.264C170.422 66.8373 169.884 66.624 169.201 66.624C168.518 66.624 167.974 66.8373 167.569 67.264C167.174 67.68 166.977 68.2827 166.977 69.072V74H165.153V65.184H166.977V66.192C167.276 65.8293 167.654 65.5467 168.113 65.344C168.582 65.1413 169.078 65.04 169.601 65.04ZM177.672 66.672V71.552C177.672 71.8827 177.746 72.1227 177.896 72.272C178.056 72.4107 178.322 72.48 178.696 72.48H179.816V74H178.376C177.554 74 176.925 73.808 176.488 73.424C176.05 73.04 175.832 72.416 175.832 71.552V66.672H174.792V65.184H175.832V62.992H177.672V65.184H179.816V66.672H177.672ZM188.853 74.144C188.16 74.144 187.536 74.0213 186.981 73.776C186.437 73.52 186.005 73.1787 185.685 72.752C185.365 72.3147 185.194 71.8293 185.173 71.296H187.061C187.093 71.6693 187.269 71.984 187.589 72.24C187.92 72.4853 188.33 72.608 188.821 72.608C189.333 72.608 189.728 72.512 190.005 72.32C190.293 72.1173 190.437 71.8613 190.437 71.552C190.437 71.2213 190.277 70.976 189.957 70.816C189.648 70.656 189.152 70.48 188.469 70.288C187.808 70.1067 187.269 69.9307 186.853 69.76C186.437 69.5893 186.074 69.328 185.765 68.976C185.466 68.624 185.317 68.16 185.317 67.584C185.317 67.1147 185.456 66.688 185.733 66.304C186.01 65.9093 186.405 65.6 186.917 65.376C187.44 65.152 188.037 65.04 188.709 65.04C189.712 65.04 190.517 65.296 191.125 65.808C191.744 66.3093 192.074 66.9973 192.117 67.872H190.293C190.261 67.4773 190.101 67.1627 189.813 66.928C189.525 66.6933 189.136 66.576 188.645 66.576C188.165 66.576 187.797 66.6667 187.541 66.848C187.285 67.0293 187.157 67.2693 187.157 67.568C187.157 67.8027 187.242 68 187.413 68.16C187.584 68.32 187.792 68.448 188.037 68.544C188.282 68.6293 188.645 68.7413 189.125 68.88C189.765 69.0507 190.288 69.2267 190.693 69.408C191.109 69.5787 191.466 69.8347 191.765 70.176C192.064 70.5173 192.218 70.9707 192.229 71.536C192.229 72.0373 192.09 72.4853 191.813 72.88C191.536 73.2747 191.141 73.584 190.629 73.808C190.128 74.032 189.536 74.144 188.853 74.144ZM202.28 69.376C202.28 69.7067 202.259 70.0053 202.216 70.272H195.48C195.533 70.976 195.795 71.5413 196.264 71.968C196.733 72.3947 197.309 72.608 197.992 72.608C198.973 72.608 199.667 72.1973 200.072 71.376H202.04C201.773 72.1867 201.288 72.8533 200.584 73.376C199.891 73.888 199.027 74.144 197.992 74.144C197.149 74.144 196.392 73.9573 195.72 73.584C195.059 73.2 194.536 72.6667 194.152 71.984C193.779 71.2907 193.592 70.4907 193.592 69.584C193.592 68.6773 193.773 67.8827 194.136 67.2C194.509 66.5067 195.027 65.9733 195.688 65.6C196.36 65.2267 197.128 65.04 197.992 65.04C198.824 65.04 199.565 65.2213 200.216 65.584C200.867 65.9467 201.373 66.4587 201.736 67.12C202.099 67.7707 202.28 68.5227 202.28 69.376ZM200.376 68.8C200.365 68.128 200.125 67.5893 199.656 67.184C199.187 66.7787 198.605 66.576 197.912 66.576C197.283 66.576 196.744 66.7787 196.296 67.184C195.848 67.5787 195.581 68.1173 195.496 68.8H200.376ZM206.203 66.672V71.552C206.203 71.8827 206.278 72.1227 206.427 72.272C206.587 72.4107 206.854 72.48 207.227 72.48H208.347V74H206.907C206.086 74 205.456 73.808 205.019 73.424C204.582 73.04 204.363 72.416 204.363 71.552V66.672H203.323V65.184H204.363V62.992H206.203V65.184H208.347V66.672H206.203ZM212.156 66.672V71.552C212.156 71.8827 212.231 72.1227 212.38 72.272C212.54 72.4107 212.807 72.48 213.18 72.48H214.3V74H212.86C212.039 74 211.409 73.808 210.972 73.424C210.535 73.04 210.316 72.416 210.316 71.552V66.672H209.276V65.184H210.316V62.992H212.156V65.184H214.3V66.672H212.156ZM217.805 62.16V74H215.981V62.16H217.805ZM228.28 69.376C228.28 69.7067 228.259 70.0053 228.216 70.272H221.48C221.533 70.976 221.795 71.5413 222.264 71.968C222.733 72.3947 223.309 72.608 223.992 72.608C224.973 72.608 225.667 72.1973 226.072 71.376H228.04C227.773 72.1867 227.288 72.8533 226.584 73.376C225.891 73.888 225.027 74.144 223.992 74.144C223.149 74.144 222.392 73.9573 221.72 73.584C221.059 73.2 220.536 72.6667 220.152 71.984C219.779 71.2907 219.592 70.4907 219.592 69.584C219.592 68.6773 219.773 67.8827 220.136 67.2C220.509 66.5067 221.027 65.9733 221.688 65.6C222.36 65.2267 223.128 65.04 223.992 65.04C224.824 65.04 225.565 65.2213 226.216 65.584C226.867 65.9467 227.373 66.4587 227.736 67.12C228.099 67.7707 228.28 68.5227 228.28 69.376ZM226.376 68.8C226.365 68.128 226.125 67.5893 225.656 67.184C225.187 66.7787 224.605 66.576 223.912 66.576C223.283 66.576 222.744 66.7787 222.296 67.184C221.848 67.5787 221.581 68.1173 221.496 68.8H226.376ZM240.747 65.04C241.44 65.04 242.059 65.184 242.603 65.472C243.158 65.76 243.59 66.1867 243.899 66.752C244.219 67.3173 244.379 68 244.379 68.8V74H242.571V69.072C242.571 68.2827 242.374 67.68 241.979 67.264C241.584 66.8373 241.046 66.624 240.363 66.624C239.68 66.624 239.136 66.8373 238.731 67.264C238.336 67.68 238.139 68.2827 238.139 69.072V74H236.331V69.072C236.331 68.2827 236.134 67.68 235.739 67.264C235.344 66.8373 234.806 66.624 234.123 66.624C233.44 66.624 232.896 66.8373 232.491 67.264C232.096 67.68 231.899 68.2827 231.899 69.072V74H230.075V65.184H231.899V66.192C232.198 65.8293 232.576 65.5467 233.035 65.344C233.494 65.1413 233.984 65.04 234.507 65.04C235.211 65.04 235.84 65.1893 236.395 65.488C236.95 65.7867 237.376 66.2187 237.675 66.784C237.942 66.2507 238.358 65.8293 238.923 65.52C239.488 65.2 240.096 65.04 240.747 65.04ZM254.78 69.376C254.78 69.7067 254.759 70.0053 254.716 70.272H247.98C248.033 70.976 248.295 71.5413 248.764 71.968C249.233 72.3947 249.809 72.608 250.492 72.608C251.473 72.608 252.167 72.1973 252.572 71.376H254.54C254.273 72.1867 253.788 72.8533 253.084 73.376C252.391 73.888 251.527 74.144 250.492 74.144C249.649 74.144 248.892 73.9573 248.22 73.584C247.559 73.2 247.036 72.6667 246.652 71.984C246.279 71.2907 246.092 70.4907 246.092 69.584C246.092 68.6773 246.273 67.8827 246.636 67.2C247.009 66.5067 247.527 65.9733 248.188 65.6C248.86 65.2267 249.628 65.04 250.492 65.04C251.324 65.04 252.065 65.2213 252.716 65.584C253.367 65.9467 253.873 66.4587 254.236 67.12C254.599 67.7707 254.78 68.5227 254.78 69.376ZM252.876 68.8C252.865 68.128 252.625 67.5893 252.156 67.184C251.687 66.7787 251.105 66.576 250.412 66.576C249.783 66.576 249.244 66.7787 248.796 67.184C248.348 67.5787 248.081 68.1173 247.996 68.8H252.876ZM261.023 65.04C261.716 65.04 262.335 65.184 262.879 65.472C263.434 65.76 263.866 66.1867 264.175 66.752C264.484 67.3173 264.639 68 264.639 68.8V74H262.831V69.072C262.831 68.2827 262.634 67.68 262.239 67.264C261.844 66.8373 261.306 66.624 260.623 66.624C259.94 66.624 259.396 66.8373 258.991 67.264C258.596 67.68 258.399 68.2827 258.399 69.072V74H256.575V65.184H258.399V66.192C258.698 65.8293 259.076 65.5467 259.535 65.344C260.004 65.1413 260.5 65.04 261.023 65.04ZM269.094 66.672V71.552C269.094 71.8827 269.168 72.1227 269.318 72.272C269.478 72.4107 269.744 72.48 270.118 72.48H271.238V74H269.798C268.976 74 268.347 73.808 267.91 73.424C267.472 73.04 267.254 72.416 267.254 71.552V66.672H266.214V65.184H267.254V62.992H269.094V65.184H271.238V66.672H269.094ZM278.003 64.016C277.672 64.016 277.395 63.904 277.171 63.68C276.947 63.456 276.835 63.1787 276.835 62.848C276.835 62.5173 276.947 62.24 277.171 62.016C277.395 61.792 277.672 61.68 278.003 61.68C278.323 61.68 278.595 61.792 278.819 62.016C279.043 62.24 279.155 62.5173 279.155 62.848C279.155 63.1787 279.043 63.456 278.819 63.68C278.595 63.904 278.323 64.016 278.003 64.016ZM278.899 65.184V74H277.075V65.184H278.899ZM285.742 65.04C286.435 65.04 287.054 65.184 287.598 65.472C288.152 65.76 288.584 66.1867 288.894 66.752C289.203 67.3173 289.358 68 289.358 68.8V74H287.55V69.072C287.55 68.2827 287.352 67.68 286.958 67.264C286.563 66.8373 286.024 66.624 285.342 66.624C284.659 66.624 284.115 66.8373 283.71 67.264C283.315 67.68 283.118 68.2827 283.118 69.072V74H281.294V65.184H283.118V66.192C283.416 65.8293 283.795 65.5467 284.254 65.344C284.723 65.1413 285.219 65.04 285.742 65.04ZM293.812 66.672V71.552C293.812 71.8827 293.887 72.1227 294.036 72.272C294.196 72.4107 294.463 72.48 294.836 72.48H295.956V74H294.516C293.695 74 293.066 73.808 292.628 73.424C292.191 73.04 291.972 72.416 291.972 71.552V66.672H290.932V65.184H291.972V62.992H293.812V65.184H295.956V66.672H293.812ZM301.462 74.144C300.63 74.144 299.878 73.9573 299.206 73.584C298.534 73.2 298.006 72.6667 297.622 71.984C297.238 71.2907 297.046 70.4907 297.046 69.584C297.046 68.688 297.243 67.8933 297.638 67.2C298.032 66.5067 298.571 65.9733 299.254 65.6C299.936 65.2267 300.699 65.04 301.542 65.04C302.384 65.04 303.147 65.2267 303.83 65.6C304.512 65.9733 305.051 66.5067 305.446 67.2C305.84 67.8933 306.038 68.688 306.038 69.584C306.038 70.48 305.835 71.2747 305.43 71.968C305.024 72.6613 304.47 73.2 303.766 73.584C303.072 73.9573 302.304 74.144 301.462 74.144ZM301.462 72.56C301.931 72.56 302.368 72.448 302.774 72.224C303.19 72 303.526 71.664 303.782 71.216C304.038 70.768 304.166 70.224 304.166 69.584C304.166 68.944 304.043 68.4053 303.798 67.968C303.552 67.52 303.227 67.184 302.822 66.96C302.416 66.736 301.979 66.624 301.51 66.624C301.04 66.624 300.603 66.736 300.198 66.96C299.803 67.184 299.488 67.52 299.254 67.968C299.019 68.4053 298.902 68.944 298.902 69.584C298.902 70.5333 299.142 71.2693 299.622 71.792C300.112 72.304 300.726 72.56 301.462 72.56ZM317.949 68.288C318.546 68.3947 319.053 68.7093 319.469 69.232C319.885 69.7547 320.093 70.3467 320.093 71.008C320.093 71.5733 319.944 72.0853 319.645 72.544C319.357 72.992 318.936 73.3493 318.381 73.616C317.826 73.872 317.181 74 316.445 74H311.997V62.88H316.237C316.994 62.88 317.645 63.008 318.189 63.264C318.733 63.52 319.144 63.8667 319.421 64.304C319.698 64.7307 319.837 65.2107 319.837 65.744C319.837 66.384 319.666 66.9173 319.325 67.344C318.984 67.7707 318.525 68.0853 317.949 68.288ZM313.821 67.552H316.077C316.674 67.552 317.138 67.4187 317.469 67.152C317.81 66.8747 317.981 66.48 317.981 65.968C317.981 65.4667 317.81 65.0773 317.469 64.8C317.138 64.512 316.674 64.368 316.077 64.368H313.821V67.552ZM316.285 72.512C316.904 72.512 317.389 72.3627 317.741 72.064C318.093 71.7653 318.269 71.3493 318.269 70.816C318.269 70.272 318.082 69.84 317.709 69.52C317.336 69.2 316.84 69.04 316.221 69.04H313.821V72.512H316.285ZM321.467 69.552C321.467 68.6667 321.648 67.8827 322.011 67.2C322.384 66.5173 322.886 65.9893 323.515 65.616C324.155 65.232 324.859 65.04 325.627 65.04C326.32 65.04 326.923 65.1787 327.435 65.456C327.958 65.7227 328.374 66.0587 328.683 66.464V65.184H330.523V74H328.683V72.688C328.374 73.104 327.952 73.4507 327.419 73.728C326.886 74.0053 326.278 74.144 325.595 74.144C324.838 74.144 324.144 73.952 323.515 73.568C322.886 73.1733 322.384 72.6293 322.011 71.936C321.648 71.232 321.467 70.4373 321.467 69.552ZM328.683 69.584C328.683 68.976 328.555 68.448 328.299 68C328.054 67.552 327.728 67.2107 327.323 66.976C326.918 66.7413 326.48 66.624 326.011 66.624C325.542 66.624 325.104 66.7413 324.699 66.976C324.294 67.2 323.963 67.536 323.707 67.984C323.462 68.4213 323.339 68.944 323.339 69.552C323.339 70.16 323.462 70.6933 323.707 71.152C323.963 71.6107 324.294 71.9627 324.699 72.208C325.115 72.4427 325.552 72.56 326.011 72.56C326.48 72.56 326.918 72.4427 327.323 72.208C327.728 71.9733 328.054 71.632 328.299 71.184C328.555 70.7253 328.683 70.192 328.683 69.584ZM337.367 65.04C338.06 65.04 338.679 65.184 339.223 65.472C339.777 65.76 340.209 66.1867 340.519 66.752C340.828 67.3173 340.983 68 340.983 68.8V74H339.175V69.072C339.175 68.2827 338.977 67.68 338.583 67.264C338.188 66.8373 337.649 66.624 336.967 66.624C336.284 66.624 335.74 66.8373 335.335 67.264C334.94 67.68 334.743 68.2827 334.743 69.072V74H332.919V65.184H334.743V66.192C335.041 65.8293 335.42 65.5467 335.879 65.344C336.348 65.1413 336.844 65.04 337.367 65.04ZM346.797 69.6L350.861 74H348.397L345.133 70.208V74H343.309V62.16H345.133V69.04L348.333 65.184H350.861L346.797 69.6ZM131.904 95.728H127.248L126.448 98H124.544L128.528 86.864H130.64L134.624 98H132.704L131.904 95.728ZM131.392 94.24L129.584 89.072L127.76 94.24H131.392ZM135.748 93.584C135.748 92.6773 135.93 91.8827 136.292 91.2C136.666 90.5067 137.178 89.9733 137.828 89.6C138.479 89.2267 139.226 89.04 140.068 89.04C141.135 89.04 142.015 89.296 142.708 89.808C143.412 90.3093 143.887 91.0293 144.132 91.968H142.164C142.004 91.5307 141.748 91.1893 141.396 90.944C141.044 90.6987 140.602 90.576 140.068 90.576C139.322 90.576 138.724 90.8427 138.276 91.376C137.839 91.8987 137.62 92.6347 137.62 93.584C137.62 94.5333 137.839 95.2747 138.276 95.808C138.724 96.3413 139.322 96.608 140.068 96.608C141.124 96.608 141.823 96.144 142.164 95.216H144.132C143.876 96.112 143.396 96.8267 142.692 97.36C141.988 97.8827 141.114 98.144 140.068 98.144C139.226 98.144 138.479 97.9573 137.828 97.584C137.178 97.2 136.666 96.6667 136.292 95.984C135.93 95.2907 135.748 94.4907 135.748 93.584ZM145.342 93.584C145.342 92.6773 145.523 91.8827 145.886 91.2C146.259 90.5067 146.771 89.9733 147.422 89.6C148.073 89.2267 148.819 89.04 149.662 89.04C150.729 89.04 151.609 89.296 152.302 89.808C153.006 90.3093 153.481 91.0293 153.726 91.968H151.758C151.598 91.5307 151.342 91.1893 150.99 90.944C150.638 90.6987 150.195 90.576 149.662 90.576C148.915 90.576 148.318 90.8427 147.87 91.376C147.433 91.8987 147.214 92.6347 147.214 93.584C147.214 94.5333 147.433 95.2747 147.87 95.808C148.318 96.3413 148.915 96.608 149.662 96.608C150.718 96.608 151.417 96.144 151.758 95.216H153.726C153.47 96.112 152.99 96.8267 152.286 97.36C151.582 97.8827 150.707 98.144 149.662 98.144C148.819 98.144 148.073 97.9573 147.422 97.584C146.771 97.2 146.259 96.6667 145.886 95.984C145.523 95.2907 145.342 94.4907 145.342 93.584ZM159.368 98.144C158.536 98.144 157.784 97.9573 157.112 97.584C156.44 97.2 155.912 96.6667 155.528 95.984C155.144 95.2907 154.952 94.4907 154.952 93.584C154.952 92.688 155.149 91.8933 155.544 91.2C155.938 90.5067 156.477 89.9733 157.16 89.6C157.842 89.2267 158.605 89.04 159.448 89.04C160.29 89.04 161.053 89.2267 161.736 89.6C162.418 89.9733 162.957 90.5067 163.352 91.2C163.746 91.8933 163.944 92.688 163.944 93.584C163.944 94.48 163.741 95.2747 163.336 95.968C162.93 96.6613 162.376 97.2 161.672 97.584C160.978 97.9573 160.21 98.144 159.368 98.144ZM159.368 96.56C159.837 96.56 160.274 96.448 160.68 96.224C161.096 96 161.432 95.664 161.688 95.216C161.944 94.768 162.072 94.224 162.072 93.584C162.072 92.944 161.949 92.4053 161.704 91.968C161.458 91.52 161.133 91.184 160.728 90.96C160.322 90.736 159.885 90.624 159.416 90.624C158.946 90.624 158.509 90.736 158.104 90.96C157.709 91.184 157.394 91.52 157.16 91.968C156.925 92.4053 156.808 92.944 156.808 93.584C156.808 94.5333 157.048 95.2693 157.528 95.792C158.018 96.304 158.632 96.56 159.368 96.56ZM173.731 89.184V98H171.907V96.96C171.619 97.3227 171.24 97.6107 170.771 97.824C170.312 98.0267 169.822 98.128 169.299 98.128C168.606 98.128 167.982 97.984 167.427 97.696C166.883 97.408 166.451 96.9813 166.131 96.416C165.822 95.8507 165.667 95.168 165.667 94.368V89.184H167.475V94.096C167.475 94.8853 167.672 95.4933 168.067 95.92C168.462 96.336 169 96.544 169.683 96.544C170.366 96.544 170.904 96.336 171.299 95.92C171.704 95.4933 171.907 94.8853 171.907 94.096V89.184H173.731ZM180.586 89.04C181.279 89.04 181.898 89.184 182.442 89.472C182.996 89.76 183.428 90.1867 183.738 90.752C184.047 91.3173 184.202 92 184.202 92.8V98H182.394V93.072C182.394 92.2827 182.196 91.68 181.802 91.264C181.407 90.8373 180.868 90.624 180.186 90.624C179.503 90.624 178.959 90.8373 178.554 91.264C178.159 91.68 177.962 92.2827 177.962 93.072V98H176.138V89.184H177.962V90.192C178.26 89.8293 178.639 89.5467 179.098 89.344C179.567 89.1413 180.063 89.04 180.586 89.04ZM188.656 90.672V95.552C188.656 95.8827 188.731 96.1227 188.88 96.272C189.04 96.4107 189.307 96.48 189.68 96.48H190.8V98H189.36C188.539 98 187.909 97.808 187.472 97.424C187.035 97.04 186.816 96.416 186.816 95.552V90.672H185.776V89.184H186.816V86.992H188.656V89.184H190.8V90.672H188.656Z" fill="#01154C"/>
<rect x="52" y="52" width="56" height="56" rx="28" fill="#E6EDFF"/>
<path fill-rule="evenodd" clip-rule="evenodd" d="M79.5728 64.0238C79.8488 63.9235 80.1512 63.9235 80.4272 64.0238L94.1772 69.0238C94.6712 69.2034 95 69.6729 95 70.1985V75C95 75.6903 94.4403 76.25 93.75 76.25H66.25C65.5597 76.25 65 75.6903 65 75V70.1985C65 69.6729 65.3288 69.2034 65.8228 69.0238L79.5728 64.0238ZM67.5 71.0741V73.75H92.5V71.0741L80 66.5286L67.5 71.0741Z" fill="#1C59FC"/>
<path fill-rule="evenodd" clip-rule="evenodd" d="M65 89.5833C65 88.893 65.5597 88.3333 66.25 88.3333H93.75C94.4403 88.3333 95 88.893 95 89.5833V95.4166C95 96.107 94.4403 96.6666 93.75 96.6666H66.25C65.5597 96.6666 65 96.107 65 95.4166V89.5833ZM67.5 90.8333V94.1666H92.5V90.8333H67.5Z" fill="#1C59FC"/>
<path fill-rule="evenodd" clip-rule="evenodd" d="M68.332 89.0176V75.5745H70.832V89.0176H68.332ZM78.7849 89.0176V75.5745H81.2849V89.0176H78.7849ZM89.2041 89.0176V75.5745H91.7041V89.0176H89.2041Z" fill="#1C59FC"/>
</g>
<defs>
<filter id="filter0_d_1237_1961" x="0" y="0" width="451" height="168" filterUnits="userSpaceOnUse" color-interpolation-filters="sRGB">
<feFlood flood-opacity="0" result="BackgroundImageFix"/>
<feColorMatrix in="SourceAlpha" type="matrix" values="0 0 0 0 0 0 0 0 0 0 0 0 0 0 0 0 0 0 127 0" result="hardAlpha"/>
<feOffset dx="4" dy="4"/>
<feGaussianBlur stdDeviation="24"/>
<feComposite in2="hardAlpha" operator="out"/>
<feColorMatrix type="matrix" values="0 0 0 0 0 0 0 0 0 0 0 0 0 0 0 0 0 0 0.1 0"/>
<feBlend mode="normal" in2="BackgroundImageFix" result="effect1_dropShadow_1237_1961"/>
<feBlend mode="normal" in="SourceGraphic" in2="effect1_dropShadow_1237_1961" result="shape"/>
</filter>
</defs>
</svg>
