<svg width="303" height="145" viewBox="0 0 303 145" fill="none" xmlns="http://www.w3.org/2000/svg">
<g filter="url(#filter0_d_1237_2202)">
<g clip-path="url(#clip0_1237_2202)">
<rect x="37" y="37" width="222" height="64" rx="32" fill="white"/>
<g filter="url(#filter1_d_1237_2202)">
<rect x="45" y="45" width="48" height="48" rx="24" fill="#FFE9D6"/>
<path d="M65.083 80.9995L71.887 56.9995L78.199 68.9635L65.083 80.9995Z" fill="#028C3C"/>
<path d="M60.8062 80.9995L67.6102 56.9995L73.9222 68.9635L60.8062 80.9995Z" fill="#FE7A09"/>
</g>
<path d="M103.76 62.1V70.96C103.76 72.0133 104.033 72.8067 104.58 73.34C105.14 73.8733 105.913 74.14 106.9 74.14C107.9 74.14 108.673 73.8733 109.22 73.34C109.78 72.8067 110.06 72.0133 110.06 70.96V62.1H112.34V70.92C112.34 72.0533 112.093 73.0133 111.6 73.8C111.107 74.5867 110.447 75.1733 109.62 75.56C108.793 75.9467 107.88 76.14 106.88 76.14C105.88 76.14 104.967 75.9467 104.14 75.56C103.327 75.1733 102.68 74.5867 102.2 73.8C101.72 73.0133 101.48 72.0533 101.48 70.92V62.1H103.76ZM125.029 66.24C125.029 66.9467 124.862 67.6133 124.529 68.24C124.195 68.8667 123.662 69.38 122.929 69.78C122.195 70.1667 121.255 70.36 120.109 70.36H117.589V76H115.309V62.1H120.109C121.175 62.1 122.075 62.2867 122.809 62.66C123.555 63.02 124.109 63.5133 124.469 64.14C124.842 64.7667 125.029 65.4667 125.029 66.24ZM120.109 68.5C120.975 68.5 121.622 68.3067 122.049 67.92C122.475 67.52 122.689 66.96 122.689 66.24C122.689 64.72 121.829 63.96 120.109 63.96H117.589V68.5H120.109ZM129.483 62.1V76H127.203V62.1H129.483ZM147.392 66.24C147.392 66.9467 147.225 67.6133 146.892 68.24C146.559 68.8667 146.025 69.38 145.292 69.78C144.559 70.1667 143.619 70.36 142.472 70.36H139.952V76H137.672V62.1H142.472C143.539 62.1 144.439 62.2867 145.172 62.66C145.919 63.02 146.472 63.5133 146.832 64.14C147.205 64.7667 147.392 65.4667 147.392 66.24ZM142.472 68.5C143.339 68.5 143.985 68.3067 144.412 67.92C144.839 67.52 145.052 66.96 145.052 66.24C145.052 64.72 144.192 63.96 142.472 63.96H139.952V68.5H142.472ZM148.806 70.44C148.806 69.3333 149.033 68.3533 149.486 67.5C149.953 66.6467 150.58 65.9867 151.366 65.52C152.166 65.04 153.046 64.8 154.006 64.8C154.873 64.8 155.626 64.9733 156.266 65.32C156.92 65.6533 157.44 66.0733 157.826 66.58V64.98H160.126V76H157.826V74.36C157.44 74.88 156.913 75.3133 156.246 75.66C155.58 76.0067 154.82 76.18 153.966 76.18C153.02 76.18 152.153 75.94 151.366 75.46C150.58 74.9667 149.953 74.2867 149.486 73.42C149.033 72.54 148.806 71.5467 148.806 70.44ZM157.826 70.48C157.826 69.72 157.666 69.06 157.346 68.5C157.04 67.94 156.633 67.5133 156.126 67.22C155.62 66.9267 155.073 66.78 154.486 66.78C153.9 66.78 153.353 66.9267 152.846 67.22C152.34 67.5 151.926 67.92 151.606 68.48C151.3 69.0267 151.146 69.68 151.146 70.44C151.146 71.2 151.3 71.8667 151.606 72.44C151.926 73.0133 152.34 73.4533 152.846 73.76C153.366 74.0533 153.913 74.2 154.486 74.2C155.073 74.2 155.62 74.0533 156.126 73.76C156.633 73.4667 157.04 73.04 157.346 72.48C157.666 71.9067 157.826 71.24 157.826 70.48ZM173.041 64.98L166.281 81.18H163.921L166.161 75.82L161.821 64.98H164.361L167.461 73.38L170.681 64.98H173.041ZM188.102 64.8C188.968 64.8 189.742 64.98 190.422 65.34C191.115 65.7 191.655 66.2333 192.042 66.94C192.442 67.6467 192.642 68.5 192.642 69.5V76H190.382V69.84C190.382 68.8533 190.135 68.1 189.642 67.58C189.148 67.0467 188.475 66.78 187.622 66.78C186.768 66.78 186.088 67.0467 185.582 67.58C185.088 68.1 184.842 68.8533 184.842 69.84V76H182.582V69.84C182.582 68.8533 182.335 68.1 181.842 67.58C181.348 67.0467 180.675 66.78 179.822 66.78C178.968 66.78 178.288 67.0467 177.782 67.58C177.288 68.1 177.042 68.8533 177.042 69.84V76H174.762V64.98H177.042V66.24C177.415 65.7867 177.888 65.4333 178.462 65.18C179.035 64.9267 179.648 64.8 180.302 64.8C181.182 64.8 181.968 64.9867 182.662 65.36C183.355 65.7333 183.888 66.2733 184.262 66.98C184.595 66.3133 185.115 65.7867 185.822 65.4C186.528 65 187.288 64.8 188.102 64.8ZM205.643 70.22C205.643 70.6333 205.616 71.0067 205.563 71.34H197.143C197.21 72.22 197.536 72.9267 198.123 73.46C198.71 73.9933 199.43 74.26 200.283 74.26C201.51 74.26 202.376 73.7467 202.883 72.72H205.343C205.01 73.7333 204.403 74.5667 203.523 75.22C202.656 75.86 201.576 76.18 200.283 76.18C199.23 76.18 198.283 75.9467 197.443 75.48C196.616 75 195.963 74.3333 195.483 73.48C195.016 72.6133 194.783 71.6133 194.783 70.48C194.783 69.3467 195.01 68.3533 195.463 67.5C195.93 66.6333 196.576 65.9667 197.403 65.5C198.243 65.0333 199.203 64.8 200.283 64.8C201.323 64.8 202.25 65.0267 203.063 65.48C203.876 65.9333 204.51 66.5733 204.963 67.4C205.416 68.2133 205.643 69.1533 205.643 70.22ZM203.263 69.5C203.25 68.66 202.95 67.9867 202.363 67.48C201.776 66.9733 201.05 66.72 200.183 66.72C199.396 66.72 198.723 66.9733 198.163 67.48C197.603 67.9733 197.27 68.6467 197.163 69.5H203.263ZM213.447 64.8C214.313 64.8 215.087 64.98 215.767 65.34C216.46 65.7 217 66.2333 217.387 66.94C217.773 67.6467 217.967 68.5 217.967 69.5V76H215.707V69.84C215.707 68.8533 215.46 68.1 214.967 67.58C214.473 67.0467 213.8 66.78 212.947 66.78C212.093 66.78 211.413 67.0467 210.907 67.58C210.413 68.1 210.167 68.8533 210.167 69.84V76H207.887V64.98H210.167V66.24C210.54 65.7867 211.013 65.4333 211.587 65.18C212.173 64.9267 212.793 64.8 213.447 64.8ZM223.535 66.84V72.94C223.535 73.3533 223.628 73.6533 223.815 73.84C224.015 74.0133 224.348 74.1 224.815 74.1H226.215V76H224.415C223.388 76 222.602 75.76 222.055 75.28C221.508 74.8 221.235 74.02 221.235 72.94V66.84H219.935V64.98H221.235V62.24H223.535V64.98H226.215V66.84H223.535Z" fill="#01154C"/>
</g>
</g>
<defs>
<filter id="filter0_d_1237_2202" x="0.379292" y="0.379292" width="301.9" height="143.9" filterUnits="userSpaceOnUse" color-interpolation-filters="sRGB">
<feFlood flood-opacity="0" result="BackgroundImageFix"/>
<feColorMatrix in="SourceAlpha" type="matrix" values="0 0 0 0 0 0 0 0 0 0 0 0 0 0 0 0 0 0 127 0" result="hardAlpha"/>
<feOffset dx="3.32916" dy="3.32916"/>
<feGaussianBlur stdDeviation="19.9749"/>
<feComposite in2="hardAlpha" operator="out"/>
<feColorMatrix type="matrix" values="0 0 0 0 0 0 0 0 0 0 0 0 0 0 0 0 0 0 0.1 0"/>
<feBlend mode="normal" in2="BackgroundImageFix" result="effect1_dropShadow_1237_2202"/>
<feBlend mode="normal" in="SourceGraphic" in2="effect1_dropShadow_1237_2202" result="shape"/>
</filter>
<filter id="filter1_d_1237_2202" x="8.37929" y="8.37929" width="127.9" height="127.9" filterUnits="userSpaceOnUse" color-interpolation-filters="sRGB">
<feFlood flood-opacity="0" result="BackgroundImageFix"/>
<feColorMatrix in="SourceAlpha" type="matrix" values="0 0 0 0 0 0 0 0 0 0 0 0 0 0 0 0 0 0 127 0" result="hardAlpha"/>
<feOffset dx="3.32916" dy="3.32916"/>
<feGaussianBlur stdDeviation="19.9749"/>
<feComposite in2="hardAlpha" operator="out"/>
<feColorMatrix type="matrix" values="0 0 0 0 0 0 0 0 0 0 0 0 0 0 0 0 0 0 0.1 0"/>
<feBlend mode="normal" in2="BackgroundImageFix" result="effect1_dropShadow_1237_2202"/>
<feBlend mode="normal" in="SourceGraphic" in2="effect1_dropShadow_1237_2202" result="shape"/>
</filter>
<clipPath id="clip0_1237_2202">
<rect x="37" y="37" width="222" height="64" rx="32" fill="white"/>
</clipPath>
</defs>
</svg>
