<svg width="47" height="48" viewBox="0 0 47 48" fill="none" xmlns="http://www.w3.org/2000/svg">
<rect width="47" height="48" rx="23.5" fill="#1C59FC"/>
<path d="M34.5396 18.42C34.4208 17.9454 34.1789 17.5106 33.8382 17.1594C33.4976 16.8082 33.0703 16.5532 32.5996 16.42C30.8796 16 23.9996 16 23.9996 16C23.9996 16 17.1196 16 15.3996 16.46C14.9288 16.5932 14.5016 16.8482 14.1609 17.1994C13.8203 17.5506 13.5784 17.9854 13.4596 18.46C13.1448 20.2056 12.9908 21.9763 12.9996 23.75C12.9884 25.537 13.1424 27.3213 13.4596 29.08C13.5906 29.5398 13.8379 29.9581 14.1777 30.2945C14.5176 30.6308 14.9384 30.8738 15.3996 31C17.1196 31.46 23.9996 31.46 23.9996 31.46C23.9996 31.46 30.8796 31.46 32.5996 31C33.0703 30.8668 33.4976 30.6118 33.8382 30.2606C34.1789 29.9094 34.4208 29.4746 34.5396 29C34.852 27.2676 35.0059 25.5103 34.9996 23.75C35.0108 21.963 34.8568 20.1787 34.5396 18.42Z" stroke="#F5F8FF" stroke-width="2" stroke-linecap="round" stroke-linejoin="round"/>
<path d="M21.7496 27.02L27.4996 23.75L21.7496 20.48V27.02Z" stroke="#F5F8FF" stroke-width="2" stroke-linecap="round" stroke-linejoin="round"/>
</svg>
