<svg width="159" height="48" viewBox="0 0 159 48" fill="none" xmlns="http://www.w3.org/2000/svg">
<path d="M23.8812 0.222426C22.0082 0.784522 8.66255 5.68725 2.22388 8.06835C1.05283 8.50109 0 9.82479 0 11.8155V33.5968C0 37.6954 0.977368 37.9645 2.8096 38.9954C0.936534 37.9415 2.22388 35.002 3.97988 34.4165C5.73589 33.831 22.7106 27.8587 24.8178 27.039C26.925 26.2193 27.5103 24.5798 27.5103 22.9404V2.09608C27.5103 0.573736 26.2226 -0.480194 23.8812 0.222426Z" fill="#4F7EFD"/>
<path d="M22.9449 3.26712C21.0718 3.82921 9.01389 8.15832 2.57522 10.5394C1.40416 10.9722 0.351335 12.2959 0.351335 14.2866V31.9692C0.351335 36.0678 1.3287 36.3369 3.16094 37.3679C1.28787 36.3139 1.28753 33.9481 3.04353 33.3626C4.79953 32.7771 21.7742 26.8048 23.8814 25.9851C25.9886 25.1653 26.5739 23.5259 26.5739 21.8864V5.14077C26.5739 3.61843 25.2862 2.5645 22.9449 3.26712Z" fill="#0232B0"/>
<path d="M22.9446 5.60925C21.0715 6.17135 9.71589 10.2662 3.27722 12.6473C2.10617 13.0801 1.05334 14.4038 1.05334 16.3945V32.4377C1.05334 36.5363 2.03071 36.8054 3.86294 37.8364C1.98987 36.7824 3.27722 33.8429 5.03322 33.2574C6.78923 32.6719 21.7739 27.5075 23.8811 26.6877C25.9883 25.868 26.5736 24.2286 26.5736 22.5891V7.4829C26.5736 5.96056 25.2859 4.90663 22.9446 5.60925Z" fill="#1C59FC"/>
<path d="M22.9446 8.41964C21.0715 8.98174 9.71589 13.0766 3.27722 15.4577C2.10617 15.8905 1.05334 17.2142 1.05334 19.2049L1.05334 32.5966C1.05334 36.6953 2.03071 36.9643 3.86294 37.9953C1.98988 36.9414 3.27722 34.0019 5.03323 33.4164C6.78923 32.8308 21.7739 27.6664 23.8811 26.8467C25.9883 26.027 26.5736 24.3875 26.5736 22.7481V10.2933C26.5736 8.77095 25.2859 7.71702 22.9446 8.41964Z" fill="#81A3FD"/>
<path d="M16.6236 47.7782C15.5078 47.2176 5.16274 40.4672 1.32688 38.0926C0.629224 37.6611 0.00199817 36.341 0.00199817 34.3557C0.00199817 32.3704 0.00436604 16.3832 0.00199817 12.2959C0.000166496 9.13408 1.28973 8.7383 1.87507 8.19725C0.704399 9.27936 1.32688 11.2329 2.37303 11.8168C3.41917 12.4007 15.9262 20.2179 17.1816 21.0353C18.437 21.8528 18.7857 23.4877 18.7857 25.1227V45.9097C18.7857 47.4278 18.0185 48.4789 16.6236 47.7782Z" fill="#02237E"/>
<path d="M10.0676 21.8431C10.0676 21.105 10.8813 20.6568 11.5049 21.0514L15.3681 23.4962C15.6394 23.668 15.8039 23.9667 15.8039 24.2879V26.5207C15.8039 27.2588 14.9902 27.7071 14.3666 27.3124L10.5034 24.8676C10.2321 24.6959 10.0676 24.3971 10.0676 24.0759V21.8431Z" fill="#B3C8FE"/>
<path d="M0 29.8613L15.0045 39.5596C15.1381 39.6459 15.2187 39.794 15.2187 39.953V43.2876C15.2187 43.6587 14.8079 43.8824 14.4963 43.681L0 34.3113V29.8613Z" fill="#B3C8FE"/>
<path d="M43.1162 17.3328V22.3425H49.8413V25.5201H43.1162V30.816H50.6999V34.0795H39.1097V14.0694H50.6999V17.3328H43.1162Z" fill="#02237E"/>
<path d="M56.0865 16.3309C55.3806 16.3309 54.7892 16.1114 54.3122 15.6725C53.8543 15.2144 53.6254 14.6515 53.6254 13.9835C53.6254 13.3155 53.8543 12.7621 54.3122 12.3231C54.7892 11.8651 55.3806 11.6361 56.0865 11.6361C56.7924 11.6361 57.3743 11.8651 57.8322 12.3231C58.3092 12.7621 58.5476 13.3155 58.5476 13.9835C58.5476 14.6515 58.3092 15.2144 57.8322 15.6725C57.3743 16.1114 56.7924 16.3309 56.0865 16.3309ZM58.0611 18.2203V34.0795H54.0546V18.2203H58.0611Z" fill="#02237E"/>
<path d="M65.7399 20.6822C66.255 19.8424 66.9228 19.184 67.7431 18.7069C68.5826 18.2298 69.5365 17.9912 70.6049 17.9912V22.1994H69.5461C68.2869 22.1994 67.3329 22.4952 66.6843 23.0868C66.0547 23.6784 65.7399 24.709 65.7399 26.1785V34.0795H61.7334V18.2203H65.7399V20.6822Z" fill="#02237E"/>
<path d="M71.9871 26.0926C71.9871 24.4895 72.3019 23.0677 72.9314 21.8272C73.5801 20.5867 74.4482 19.6325 75.5357 18.9646C76.6422 18.2966 77.8728 17.9626 79.2274 17.9626C80.4102 17.9626 81.4405 18.2012 82.3181 18.6783C83.2148 19.1554 83.9302 19.7566 84.4644 20.4818V18.2203H88.4995V34.0795H84.4644V31.7607C83.9493 32.505 83.2339 33.1253 82.3181 33.6215C81.4214 34.0986 80.3816 34.3371 79.1988 34.3371C77.8633 34.3371 76.6422 33.9936 75.5357 33.3066C74.4482 32.6195 73.5801 31.6558 72.9314 30.4153C72.3019 29.1557 71.9871 27.7148 71.9871 26.0926ZM84.4644 26.1499C84.4644 25.1766 84.2737 24.3464 83.8921 23.6593C83.5105 22.9532 82.9954 22.4189 82.3467 22.0562C81.698 21.6746 81.0017 21.4837 80.2576 21.4837C79.5135 21.4837 78.8267 21.665 78.1971 22.0276C77.5675 22.3902 77.0524 22.9246 76.6518 23.6307C76.2702 24.3178 76.0794 25.1384 76.0794 26.0926C76.0794 27.0468 76.2702 27.8866 76.6518 28.6118C77.0524 29.3179 77.5675 29.8618 78.1971 30.2435C78.8458 30.6252 79.5326 30.816 80.2576 30.816C81.0017 30.816 81.698 30.6347 82.3467 30.2721C82.9954 29.8904 83.5105 29.3561 83.8921 28.669C84.2737 27.9629 84.4644 27.1232 84.4644 26.1499Z" fill="#02237E"/>
<path d="M93.9007 34.2799C93.1757 34.2799 92.5748 34.0604 92.0978 33.6215C91.6399 33.1634 91.411 32.6004 91.411 31.9325C91.411 31.2645 91.6399 30.7111 92.0978 30.2721C92.5748 29.8141 93.1757 29.5851 93.9007 29.5851C94.6066 29.5851 95.1885 29.8141 95.6464 30.2721C96.1043 30.7111 96.3332 31.2645 96.3332 31.9325C96.3332 32.6004 96.1043 33.1634 95.6464 33.6215C95.1885 34.0604 94.6066 34.2799 93.9007 34.2799Z" fill="#02237E"/>
<path d="M98.2439 26.1499C98.2439 24.5086 98.5778 23.0773 99.2455 21.8559C99.9133 20.6154 100.839 19.6611 102.021 18.9932C103.204 18.3061 104.559 17.9626 106.085 17.9626C108.05 17.9626 109.672 18.4588 110.95 19.4512C112.248 20.4245 113.116 21.7986 113.554 23.5735H109.233C109.004 22.8864 108.613 22.3521 108.06 21.9704C107.526 21.5696 106.858 21.3692 106.057 21.3692C104.912 21.3692 104.006 21.7891 103.338 22.6288C102.67 23.4494 102.336 24.6231 102.336 26.1499C102.336 27.6576 102.67 28.8312 103.338 29.671C104.006 30.4916 104.912 30.9019 106.057 30.9019C107.678 30.9019 108.737 30.1767 109.233 28.7263H113.554C113.116 30.4439 112.248 31.8084 110.95 32.8199C109.653 33.8314 108.031 34.3371 106.085 34.3371C104.559 34.3371 103.204 34.0032 102.021 33.3352C100.839 32.6482 99.9133 31.6939 99.2455 30.4725C98.5778 29.232 98.2439 27.7911 98.2439 26.1499Z" fill="#02237E"/>
<path d="M120.21 12.8957V34.0795H116.203V12.8957H120.21Z" fill="#02237E"/>
<path d="M138.849 18.2203V34.0795H134.814V32.0756C134.299 32.7627 133.622 33.3066 132.782 33.7073C131.962 34.089 131.065 34.2799 130.092 34.2799C128.852 34.2799 127.755 34.0222 126.801 33.507C125.847 32.9726 125.094 32.1997 124.54 31.1882C124.006 30.1576 123.739 28.9362 123.739 27.524V18.2203H127.746V26.9514C127.746 28.211 128.06 29.1843 128.69 29.8714C129.32 30.5393 130.178 30.8733 131.266 30.8733C132.372 30.8733 133.24 30.5393 133.87 29.8714C134.499 29.1843 134.814 28.211 134.814 26.9514V18.2203H138.849Z" fill="#02237E"/>
<path d="M146.523 20.539C147.038 19.7756 147.744 19.1554 148.64 18.6783C149.556 18.2012 150.596 17.9626 151.76 17.9626C153.114 17.9626 154.335 18.2966 155.423 18.9646C156.529 19.6325 157.397 20.5867 158.027 21.8272C158.676 23.0486 159 24.4704 159 26.0926C159 27.7148 158.676 29.1557 158.027 30.4153C157.397 31.6558 156.529 32.6195 155.423 33.3066C154.335 33.9936 153.114 34.3371 151.76 34.3371C150.577 34.3371 149.537 34.1081 148.64 33.6501C147.763 33.173 147.057 32.5623 146.523 31.818V34.0795H142.516V12.8957H146.523V20.539ZM154.908 26.0926C154.908 25.1384 154.707 24.3178 154.307 23.6307C153.925 22.9246 153.41 22.3902 152.761 22.0276C152.132 21.665 151.445 21.4837 150.701 21.4837C149.976 21.4837 149.289 21.6746 148.64 22.0562C148.011 22.4189 147.496 22.9532 147.095 23.6593C146.713 24.3655 146.523 25.1957 146.523 26.1499C146.523 27.1041 146.713 27.9343 147.095 28.6404C147.496 29.3465 148.011 29.8904 148.64 30.2721C149.289 30.6347 149.976 30.816 150.701 30.816C151.445 30.816 152.132 30.6252 152.761 30.2435C153.41 29.8618 153.925 29.3179 154.307 28.6118C154.707 27.9057 154.908 27.0659 154.908 26.0926Z" fill="#02237E"/>
</svg>
