<svg width="47" height="48" viewBox="0 0 47 48" fill="none" xmlns="http://www.w3.org/2000/svg">
<rect width="47" height="48" rx="23.5" fill="#1C59FC"/>
<path d="M29.5 18.5H29.51M19 14H29C31.7614 14 34 16.2386 34 19V29C34 31.7614 31.7614 34 29 34H19C16.2386 34 14 31.7614 14 29V19C14 16.2386 16.2386 14 19 14ZM28 23.37C28.1234 24.2022 27.9813 25.0522 27.5938 25.799C27.2063 26.5458 26.5931 27.1514 25.8416 27.5297C25.0901 27.9079 24.2384 28.0396 23.4078 27.9059C22.5771 27.7723 21.8098 27.3801 21.2148 26.7852C20.6199 26.1902 20.2277 25.4229 20.0941 24.5922C19.9604 23.7616 20.0921 22.9099 20.4703 22.1584C20.8486 21.4069 21.4542 20.7937 22.201 20.4062C22.9478 20.0187 23.7978 19.8766 24.63 20C25.4789 20.1259 26.2649 20.5215 26.8717 21.1283C27.4785 21.7351 27.8741 22.5211 28 23.37Z" stroke="#F5F8FF" stroke-width="2" stroke-linecap="round" stroke-linejoin="round"/>
</svg>
