<svg width="149" height="45" viewBox="0 0 149 45" fill="none" xmlns="http://www.w3.org/2000/svg">
<rect x="0.5" y="1" width="147.5" height="43" rx="4.5" fill="black"/>
<rect x="0.5" y="1" width="147.5" height="43" rx="4.5" stroke="#A6A6A6"/>
<path d="M74.9494 24.4262C72.3622 24.4262 70.2535 26.3941 70.2535 29.1045C70.2535 31.7984 72.3622 33.7828 74.9494 33.7828C77.5377 33.7828 79.6464 31.7984 79.6464 29.1045C79.6453 26.3941 77.5366 24.4262 74.9494 24.4262ZM74.9494 31.9414C73.5315 31.9414 72.3094 30.7721 72.3094 29.1056C72.3094 27.4215 73.5326 26.2698 74.9494 26.2698C76.3673 26.2698 77.5894 27.4215 77.5894 29.1056C77.5894 30.771 76.3673 31.9414 74.9494 31.9414ZM64.704 24.4262C62.1168 24.4262 60.0081 26.3941 60.0081 29.1045C60.0081 31.7984 62.1168 33.7828 64.704 33.7828C67.2923 33.7828 69.401 31.7984 69.401 29.1045C69.401 26.3941 67.2923 24.4262 64.704 24.4262ZM64.704 31.9414C63.2861 31.9414 62.064 30.7721 62.064 29.1056C62.064 27.4215 63.2872 26.2698 64.704 26.2698C66.1219 26.2698 67.344 27.4215 67.344 29.1056C67.3451 30.771 66.1219 31.9414 64.704 31.9414ZM52.5182 25.8628V27.8472H57.268C57.1261 28.9637 56.7543 29.7788 56.1867 30.3453C55.4959 31.0361 54.4146 31.7984 52.5182 31.7984C49.5944 31.7984 47.3086 29.4411 47.3086 26.5173C47.3086 23.5935 49.5944 21.2362 52.5182 21.2362C54.0956 21.2362 55.2473 21.8566 56.0976 22.6541L57.4979 21.2538C56.3099 20.1197 54.7336 19.2518 52.5182 19.2518C48.5131 19.2518 45.146 22.5122 45.146 26.5173C45.146 30.5224 48.5131 33.7828 52.5182 33.7828C54.6797 33.7828 56.311 33.0733 57.5859 31.7445C58.8971 30.4333 59.3052 28.5897 59.3052 27.1014C59.3052 26.6416 59.27 26.2159 59.1985 25.8617H52.5182V25.8628ZM102.357 27.4039C101.968 26.3589 100.78 24.4262 98.3519 24.4262C95.9418 24.4262 93.9387 26.3226 93.9387 29.1045C93.9387 31.7269 95.9242 33.7828 98.5818 33.7828C100.726 33.7828 101.966 32.4716 102.481 31.7093L100.886 30.6456C100.355 31.4255 99.6279 31.9392 98.5818 31.9392C97.5368 31.9392 96.7921 31.4607 96.3136 30.5213L102.569 27.9341L102.357 27.4039ZM95.977 28.9637C95.9242 27.1553 97.3773 26.2346 98.4234 26.2346C99.2385 26.2346 99.9293 26.6427 100.16 27.2268L95.977 28.9637ZM90.8917 33.5001H92.9465V19.749H90.8917V33.5001ZM87.5235 25.4723H87.4531C86.9922 24.9223 86.1056 24.4262 84.9902 24.4262C82.6505 24.4262 80.5066 26.4821 80.5066 29.1232C80.5066 31.7456 82.6505 33.7839 84.9902 33.7839C86.1067 33.7839 86.9922 33.2878 87.4531 32.7213H87.5235V33.3945C87.5235 35.1842 86.5665 36.1412 85.0254 36.1412C83.767 36.1412 82.9871 35.2381 82.6681 34.4758L80.8784 35.2205C81.3921 36.4602 82.7561 37.9848 85.0254 37.9848C87.4355 37.9848 89.4738 36.5669 89.4738 33.1107V24.7111H87.5246V25.4723H87.5235ZM85.1673 31.9414C83.7494 31.9414 82.5625 30.7534 82.5625 29.1232C82.5625 27.4743 83.7494 26.2698 85.1673 26.2698C86.5665 26.2698 87.6654 27.4743 87.6654 29.1232C87.6654 30.7534 86.5665 31.9414 85.1673 31.9414ZM111.986 19.749H107.068V33.5001H109.12V28.2905H111.985C114.26 28.2905 116.497 26.6438 116.497 24.0203C116.497 21.3968 114.261 19.749 111.986 19.749ZM112.039 26.3765H109.12V21.663H112.039C113.574 21.663 114.445 22.9335 114.445 24.0203C114.445 25.0851 113.574 26.3765 112.039 26.3765ZM124.724 24.402C123.238 24.402 121.699 25.0565 121.062 26.5074L122.884 27.2675C123.273 26.5074 123.999 26.2588 124.76 26.2588C125.821 26.2588 126.9 26.8957 126.918 28.0276V28.1695C126.546 27.9572 125.75 27.6393 124.777 27.6393C122.814 27.6393 120.814 28.7184 120.814 30.7347C120.814 32.575 122.424 33.7597 124.228 33.7597C125.608 33.7597 126.369 33.1404 126.846 32.4144H126.917V33.4759H128.899V28.2036C128.9 25.7638 127.076 24.402 124.724 24.402ZM124.476 31.9381C123.805 31.9381 122.866 31.6015 122.866 30.7699C122.866 29.7084 124.035 29.3014 125.043 29.3014C125.944 29.3014 126.37 29.4961 126.918 29.7612C126.758 31.0361 125.662 31.9381 124.476 31.9381ZM136.117 24.7023L133.764 30.6643H133.694L131.252 24.7023H129.041L132.703 33.0348L130.615 37.6702H132.755L138.4 24.7023H136.117ZM117.63 33.5001H119.682V19.749H117.63V33.5001Z" fill="white"/>
<path d="M52.1599 11.7673C52.1599 12.6891 51.8871 13.4228 51.3404 13.9706C50.72 14.6218 49.9104 14.9474 48.916 14.9474C47.9634 14.9474 47.1527 14.6174 46.4872 13.9574C45.8206 13.2963 45.4873 12.4779 45.4873 11.5011C45.4873 10.5232 45.8206 9.70476 46.4872 9.04476C47.1527 8.38366 47.9634 8.05366 48.916 8.05366C49.389 8.05366 49.8411 8.14606 50.2701 8.32976C50.7002 8.51456 51.0445 8.75986 51.3019 9.06676L50.7222 9.64756C50.2855 9.12506 49.6838 8.86436 48.9149 8.86436C48.2197 8.86436 47.6191 9.10856 47.112 9.59696C46.6049 10.0854 46.3519 10.7201 46.3519 11.5C46.3519 12.2799 46.6049 12.9146 47.112 13.403C47.6191 13.8914 48.2197 14.1356 48.9149 14.1356C49.6519 14.1356 50.2668 13.8903 50.7585 13.3986C51.0775 13.0785 51.2623 12.633 51.3118 12.0621H48.9149V11.269H52.1126C52.1456 11.4417 52.1599 11.6078 52.1599 11.7673Z" fill="white"/>
<path d="M57.231 9.01072H54.2258V11.1029H56.9362V11.896H54.2258V13.9882H57.231V14.8H53.3777V8.20002H57.231V9.01072Z" fill="white"/>
<path d="M60.807 14.8H59.9589V9.01072H58.1153V8.20002H62.6506V9.01072H60.807V14.8Z" fill="white"/>
<path d="M65.9318 14.8V8.20002H66.7799V14.8H65.9318Z" fill="white"/>
<path d="M70.541 14.8H69.6929V9.01072H67.8493V8.20002H72.3846V9.01072H70.541V14.8Z" fill="white"/>
<path d="M80.9699 13.9475C80.3209 14.6141 79.5146 14.9474 78.5499 14.9474C77.5852 14.9474 76.7789 14.6141 76.131 13.9475C75.482 13.2809 75.1586 12.4647 75.1586 11.5C75.1586 10.5353 75.482 9.71911 76.131 9.05251C76.7789 8.38591 77.5852 8.05151 78.5499 8.05151C79.5091 8.05151 80.3143 8.38701 80.9655 9.05691C81.6167 9.72681 81.9423 10.5408 81.9423 11.5C81.9423 12.4647 81.6178 13.2809 80.9699 13.9475ZM76.7569 13.3942C77.2453 13.8892 77.8426 14.1356 78.5499 14.1356C79.2572 14.1356 79.8556 13.8881 80.3429 13.3942C80.8313 12.8992 81.0766 12.2678 81.0766 11.5C81.0766 10.7322 80.8313 10.1008 80.3429 9.60581C79.8556 9.11081 79.2572 8.86441 78.5499 8.86441C77.8426 8.86441 77.2453 9.11191 76.7569 9.60581C76.2696 10.1008 76.0243 10.7322 76.0243 11.5C76.0243 12.2678 76.2696 12.8992 76.7569 13.3942Z" fill="white"/>
<path d="M83.1325 14.8V8.20002H84.1643L87.3719 13.3337H87.4082L87.3719 12.0621V8.20002H88.22V14.8H87.3345L83.9784 9.41663H83.9421L83.9784 10.6882V14.8H83.1325Z" fill="white"/>
<path d="M52.1599 11.7673C52.1599 12.6891 51.8871 13.4228 51.3404 13.9706C50.72 14.6218 49.9104 14.9474 48.916 14.9474C47.9634 14.9474 47.1527 14.6174 46.4872 13.9574C45.8206 13.2963 45.4873 12.4779 45.4873 11.5011C45.4873 10.5232 45.8206 9.70476 46.4872 9.04476C47.1527 8.38366 47.9634 8.05366 48.916 8.05366C49.389 8.05366 49.8411 8.14606 50.2701 8.32976C50.7002 8.51456 51.0445 8.75986 51.3019 9.06676L50.7222 9.64756C50.2855 9.12506 49.6838 8.86436 48.9149 8.86436C48.2197 8.86436 47.6191 9.10856 47.112 9.59696C46.6049 10.0854 46.3519 10.7201 46.3519 11.5C46.3519 12.2799 46.6049 12.9146 47.112 13.403C47.6191 13.8914 48.2197 14.1356 48.9149 14.1356C49.6519 14.1356 50.2668 13.8903 50.7585 13.3986C51.0775 13.0785 51.2623 12.633 51.3118 12.0621H48.9149V11.269H52.1126C52.1456 11.4417 52.1599 11.6078 52.1599 11.7673Z" stroke="white" stroke-width="0.2" stroke-miterlimit="10"/>
<path d="M57.231 9.01072H54.2258V11.1029H56.9362V11.896H54.2258V13.9882H57.231V14.8H53.3777V8.20002H57.231V9.01072Z" stroke="white" stroke-width="0.2" stroke-miterlimit="10"/>
<path d="M60.807 14.8H59.9589V9.01072H58.1153V8.20002H62.6506V9.01072H60.807V14.8Z" stroke="white" stroke-width="0.2" stroke-miterlimit="10"/>
<path d="M65.9318 14.8V8.20002H66.7799V14.8H65.9318Z" stroke="white" stroke-width="0.2" stroke-miterlimit="10"/>
<path d="M70.541 14.8H69.6929V9.01072H67.8493V8.20002H72.3846V9.01072H70.541V14.8Z" stroke="white" stroke-width="0.2" stroke-miterlimit="10"/>
<path d="M80.9699 13.9475C80.3209 14.6141 79.5146 14.9474 78.5499 14.9474C77.5852 14.9474 76.7789 14.6141 76.131 13.9475C75.482 13.2809 75.1586 12.4647 75.1586 11.5C75.1586 10.5353 75.482 9.71911 76.131 9.05251C76.7789 8.38591 77.5852 8.05151 78.5499 8.05151C79.5091 8.05151 80.3143 8.38701 80.9655 9.05691C81.6167 9.72681 81.9423 10.5408 81.9423 11.5C81.9423 12.4647 81.6178 13.2809 80.9699 13.9475ZM76.7569 13.3942C77.2453 13.8892 77.8426 14.1356 78.5499 14.1356C79.2572 14.1356 79.8556 13.8881 80.3429 13.3942C80.8313 12.8992 81.0766 12.2678 81.0766 11.5C81.0766 10.7322 80.8313 10.1008 80.3429 9.60581C79.8556 9.11081 79.2572 8.86441 78.5499 8.86441C77.8426 8.86441 77.2453 9.11191 76.7569 9.60581C76.2696 10.1008 76.0243 10.7322 76.0243 11.5C76.0243 12.2678 76.2696 12.8992 76.7569 13.3942Z" stroke="white" stroke-width="0.2" stroke-miterlimit="10"/>
<path d="M83.1325 14.8V8.20002H84.1643L87.3719 13.3337H87.4082L87.3719 12.0621V8.20002H88.22V14.8H87.3345L83.9784 9.41663H83.9421L83.9784 10.6882V14.8H83.1325Z" stroke="white" stroke-width="0.2" stroke-miterlimit="10"/>
<g filter="url(#filter0_ii_1237_1952)">
<path d="M11.4795 8.79185C11.1594 9.13065 10.9702 9.65645 10.9702 10.3373V34.6649C10.9702 35.3469 11.1594 35.8716 11.4795 36.2104L11.5609 36.2896L25.1888 22.6617V22.5011V22.3405L11.5609 8.71155L11.4795 8.79185Z" fill="url(#paint0_linear_1237_1952)"/>
<path d="M29.7309 27.2058L25.189 22.6617V22.5011V22.3405L29.732 17.7975L29.8343 17.8558L35.2166 20.9138C36.7533 21.7872 36.7533 23.2161 35.2166 24.0906L29.8343 27.1486L29.7309 27.2058Z" fill="url(#paint1_linear_1237_1952)"/>
<g filter="url(#filter1_i_1237_1952)">
<path d="M29.8341 27.1475L25.1877 22.5011L11.4795 36.2104C11.9855 36.7472 12.8226 36.8132 13.7653 36.2786L29.8341 27.1475Z" fill="url(#paint2_linear_1237_1952)"/>
</g>
<path d="M29.8341 17.8547L13.7653 8.72472C12.8226 8.18902 11.9855 8.25612 11.4795 8.79292L25.1888 22.5022L29.8341 17.8547Z" fill="url(#paint3_linear_1237_1952)"/>
</g>
<defs>
<filter id="filter0_ii_1237_1952" x="10.9702" y="8.35504" width="25.3989" height="28.2928" filterUnits="userSpaceOnUse" color-interpolation-filters="sRGB">
<feFlood flood-opacity="0" result="BackgroundImageFix"/>
<feBlend mode="normal" in="SourceGraphic" in2="BackgroundImageFix" result="shape"/>
<feColorMatrix in="SourceAlpha" type="matrix" values="0 0 0 0 0 0 0 0 0 0 0 0 0 0 0 0 0 0 127 0" result="hardAlpha"/>
<feOffset dy="-0.15"/>
<feComposite in2="hardAlpha" operator="arithmetic" k2="-1" k3="1"/>
<feColorMatrix type="matrix" values="0 0 0 0 0 0 0 0 0 0 0 0 0 0 0 0 0 0 0.12 0"/>
<feBlend mode="normal" in2="shape" result="effect1_innerShadow_1237_1952"/>
<feColorMatrix in="SourceAlpha" type="matrix" values="0 0 0 0 0 0 0 0 0 0 0 0 0 0 0 0 0 0 127 0" result="hardAlpha"/>
<feOffset dy="0.15"/>
<feComposite in2="hardAlpha" operator="arithmetic" k2="-1" k3="1"/>
<feColorMatrix type="matrix" values="0 0 0 0 1 0 0 0 0 1 0 0 0 0 1 0 0 0 0.25 0"/>
<feBlend mode="normal" in2="effect1_innerShadow_1237_1952" result="effect2_innerShadow_1237_1952"/>
</filter>
<filter id="filter1_i_1237_1952" x="11.4795" y="22.5011" width="18.3545" height="14.1467" filterUnits="userSpaceOnUse" color-interpolation-filters="sRGB">
<feFlood flood-opacity="0" result="BackgroundImageFix"/>
<feBlend mode="normal" in="SourceGraphic" in2="BackgroundImageFix" result="shape"/>
<feColorMatrix in="SourceAlpha" type="matrix" values="0 0 0 0 0 0 0 0 0 0 0 0 0 0 0 0 0 0 127 0" result="hardAlpha"/>
<feOffset dy="-0.15"/>
<feComposite in2="hardAlpha" operator="arithmetic" k2="-1" k3="1"/>
<feColorMatrix type="matrix" values="0 0 0 0 0 0 0 0 0 0 0 0 0 0 0 0 0 0 0.08 0"/>
<feBlend mode="normal" in2="shape" result="effect1_innerShadow_1237_1952"/>
</filter>
<linearGradient id="paint0_linear_1237_1952" x1="23.9808" y1="10.0799" x2="5.5206" y2="28.5401" gradientUnits="userSpaceOnUse">
<stop stop-color="#00A0FF"/>
<stop offset="0.0066" stop-color="#00A1FF"/>
<stop offset="0.2601" stop-color="#00BEFF"/>
<stop offset="0.5122" stop-color="#00D2FF"/>
<stop offset="0.7604" stop-color="#00DFFF"/>
<stop offset="1" stop-color="#00E3FF"/>
</linearGradient>
<linearGradient id="paint1_linear_1237_1952" x1="37.2169" y1="22.5011" x2="10.6014" y2="22.5011" gradientUnits="userSpaceOnUse">
<stop stop-color="#FFE000"/>
<stop offset="0.4087" stop-color="#FFBD00"/>
<stop offset="0.7754" stop-color="#FFA500"/>
<stop offset="1" stop-color="#FF9C00"/>
</linearGradient>
<linearGradient id="paint2_linear_1237_1952" x1="27.3108" y1="25.0244" x2="2.27646" y2="50.0587" gradientUnits="userSpaceOnUse">
<stop stop-color="#FF3A44"/>
<stop offset="1" stop-color="#C31162"/>
</linearGradient>
<linearGradient id="paint3_linear_1237_1952" x1="8.02703" y1="0.694504" x2="19.2056" y2="11.873" gradientUnits="userSpaceOnUse">
<stop stop-color="#32A071"/>
<stop offset="0.0685" stop-color="#2DA771"/>
<stop offset="0.4762" stop-color="#15CF74"/>
<stop offset="0.8009" stop-color="#06E775"/>
<stop offset="1" stop-color="#00F076"/>
</linearGradient>
</defs>
</svg>
